<?xml version="1.0" standalone="no"?>
<!DOCTYPE svg PUBLIC "-//W3C//DTD SVG 1.1//EN" "http://www.w3.org/Graphics/SVG/1.1/DTD/svg11.dtd" >
<svg xmlns="http://www.w3.org/2000/svg">
<metadata>
Created by FontPrep 20130207 at Wed Jun 25 14:10:35 2014
 By Vadim Goncharov
(c) 2011 Microsoft Corporation. All Rights Reserved.
</metadata>
<defs>
<font id="dddba81d1f7d7eae1ae98cee7e68e45c" horiz-adv-x='1024' >
  <font-face 
    font-family="SegoeUI"
    font-weight="400"
    font-stretch="normal"
    units-per-em="2048"
    panose-1="2 11 5 2 4 2 4 2 2 3"
    ascent="1638"
    descent="-410"
    x-height="1024"
    cap-height="1434"
    bbox="-884 -659 2837 2270"
    underline-thickness="119"
    underline-position="-119"
    unicode-range="U+000D-FFFD"
  />
<missing-glyph horiz-adv-x="1322" 
d="M314 148h694v1102h-694v-1102zM166 0v1398h990v-1398h-990z" />
    <glyph glyph-name="uniFDF2" unicode="&#x627;&#xfedf;&#xfee0;&#x651;&#x670;&#xfeea;" horiz-adv-x="2565" arabic-form="isolated" 
d="M1067 1616q0 -114 83 -114q44 0 61.5 31t17.5 67v50q0 14 -1 27h95q-1 -14 -1 -28v-25q0 -61 17 -91.5t63 -30.5q83 0 83 117q0 31 -3 58h95q2 -24 2 -44q0 -109 -49.5 -168t-134 -59t-123.5 63h-6q-41 -63 -133 -63q-161 0 -161 214q0 33 3 57h96q-4 -37 -4 -61z
M1338 1760h-116v342h116v-342zM551.5 338q67.5 0 132.5 21v374q-258 -47 -344 -167q-30 -41 -29.5 -84.5t18 -70t47.5 -43t69 -23.5t106.5 -7zM1012 -14q-264 0 -316 218q-73 -29 -163 -29q-171 0 -271.5 71t-100.5 215q0 177 151 284.5t372 140.5v97h156v-587
q0 -130 26 -171.5t60 -56.5t76 -15q82 0 138.5 46t56.5 140v917h156v-860q0 -129 25 -170t60 -57t82 -16q89 0 139.5 46.5t50.5 139.5v1067h156v-1074q0 -186 -108 -274q-88 -71 -234 -72q-191 0 -249 123h-4q-49 -63 -122 -93t-137 -30zM2223 1516h156v-1516h-156v1516z
" />
    <glyph glyph-name="uniFEDF_uniFEE0_uni0651_uni0670_uniFEEA.liga" unicode="&#xfedf;&#xfee0;&#x651;&#x670;&#xfeea;" horiz-adv-x="2052" 
d="M1067 1616q0 -114 83 -114q44 0 61.5 31t17.5 67v50q0 14 -1 27h95q-1 -14 -1 -28v-25q0 -61 17 -91.5t63 -30.5q83 0 83 117q0 31 -3 58h95q2 -24 2 -44q0 -109 -49.5 -168t-134 -59t-123.5 63h-6q-41 -63 -133 -63q-161 0 -161 214q0 33 3 57h96q-4 -37 -4 -61z
M1338 1760h-116v342h116v-342zM551.5 338q67.5 0 132.5 21v374q-258 -47 -344 -167q-30 -41 -29.5 -84.5t18 -70t47.5 -43t69 -23.5t106.5 -7zM1012 -14q-264 0 -316 218q-73 -29 -163 -29q-171 0 -271.5 71t-100.5 215q0 177 151 284.5t372 140.5v97h156v-587
q0 -130 26 -171.5t60 -56.5t76 -15q82 0 138.5 46t56.5 140v917h156v-860q0 -129 25 -170t60 -57t82 -16q89 0 139.5 46.5t50.5 139.5v1067h156v-1074q0 -186 -108 -274q-88 -71 -234 -72q-191 0 -249 123h-4q-49 -63 -122 -93t-137 -30z" />
    <glyph glyph-name="uni0620.init" unicode="&#x620;" horiz-adv-x="684" 
d="M443 -83q0 -74 -47 -121t-114 -47t-113.5 47t-46.5 101t18 89h-140q-35 0 -52.5 26t-17.5 58t17.5 57.5t52.5 25.5h153q100 0 132.5 28.5t44.5 64.5t12 93v444h156v-451q0 -213 -121 -292q66 -49 66 -123zM283 -176q36 0 60.5 24.5t24.5 60.5t-24.5 61t-60.5 25t-61 -25
t-25 -61t25 -60.5t61 -24.5z" />
    <glyph glyph-name="uni0620.medi" unicode="&#x620;" horiz-adv-x="684" 
d="M662 -14q-188 0 -250 123h-4q-24 -32 -54 -55q22 -10 42 -30q47 -46 47 -113.5t-47 -114.5t-114 -47t-113.5 47t-46.5 101t18 89h-140q-35 0 -52.5 26t-17.5 58t17.5 57.5t52.5 25.5h153q121 -1 171 97q18 36 18 89v444h156v-375q0 -144 25.5 -184.5t62.5 -55.5t98 -15
v-167h-22zM283 -176q36 0 60.5 24.5t24.5 60.5t-24.5 61t-60.5 25t-61 -25t-25 -61t25 -60.5t61 -24.5z" />
    <glyph glyph-name="uni0620.fina" unicode="&#x620;" horiz-adv-x="1710" 
d="M311 264q0 -173 78 -252q95 -97 340 -97q245 -1 319 87q22 26 22.5 56.5t-15.5 52t-35 45.5q-51 64 -51 128q0 115 69.5 181t176.5 66q130 -1 208 -159q64 -130 124 -174.5t163 -44.5v-167h-22q-174 0 -278 120q-47 54 -79 114q-33 60 -53 91q-39 59 -77 59
q-78 0 -78 -70q0 -33 16 -55q16 -21 35 -45q51 -63 51 -130q0 -236 -332 -305q37 -43 37 -106t-47 -110t-114 -47t-113.5 47t-46.5 104t23 94q-245 13 -361.5 141t-116.5 350q0 113 35 255h154q-32 -147 -32 -229zM770 -423q36 0 60.5 24.5t24.5 60.5t-24.5 61t-60.5 25
t-61 -25t-25 -61t25 -60.5t61 -24.5z" />
    <glyph glyph-name="uni0621" unicode="&#x621;" horiz-adv-x="855" arabic-form="isolated" 
d="M561 523q-109 0 -171 -43t-62 -132q0 -185 244 -185h169v-163h-622l-29 153h169l1 6q-89 89 -89 225t107 222t281 86q61 0 125 -10v-171q-70 12 -123 12z" />
    <glyph glyph-name="uni0622" unicode="&#x622;" horiz-adv-x="513" arabic-form="isolated" 
d="M171 1516h156v-1516h-156v1516zM613 1718q-81 -84 -166 -84t-163.5 33t-120.5 48t-93.5 15t-101.5 -44l-62 70q81 84 166 84t163.5 -33t120.5 -48t94.5 -15t100.5 44z" />
    <glyph glyph-name="uni0623" unicode="&#x623;" horiz-adv-x="513" arabic-form="isolated" 
d="M171 1516h156v-1516h-156v1516zM313 1925q-107 0 -107 -80q0 -88 142 -88h70v-97h-345v91h85l1 5q-45 51 -45 99q0 82 53.5 126t139.5 44q31 0 64 -6v-101q-30 7 -58 7z" />
    <glyph glyph-name="uni0624" unicode="&#x624;" horiz-adv-x="1026" arabic-form="isolated" 
d="M478 522q-55 0 -104.5 -67.5t-49.5 -142t61 -117.5t149.5 -43t146.5 33q-3 87 -51.5 185t-86 125t-65.5 27zM0 -263q194 -79 368 -79q304 0 315 365q-83 -37 -161 -37q-152 0 -251.5 84t-99.5 223t94 270.5t227.5 131.5t241 -169.5t107.5 -453.5q0 -401 -257 -537
q-91 -48 -246 -48t-338 84v166zM541 1242q-107 0 -107 -80q0 -88 142 -88h70v-97h-345v91h85l1 5q-45 51 -45 99q0 82 53.5 126t139.5 44q31 0 64 -6v-101q-30 7 -58 7z" />
    <glyph glyph-name="uni0625" unicode="&#x625;" horiz-adv-x="513" arabic-form="isolated" 
d="M171 1516h156v-1516h-156v1516zM304.5 -249q-36.5 0 -67.5 -19t-31 -58q0 -91 142 -91h70v-97h-345v91h85l1 5q-45 51 -45 99q0 82 53.5 126t139.5 44q31 0 64 -6v-101q-30 7 -66.5 7z" />
    <glyph glyph-name="uni0626" unicode="&#x626;" horiz-adv-x="1539" arabic-form="isolated" 
d="M311 363.5q0 -98.5 16.5 -160t57.5 -107.5t112 -72t180 -26t203.5 23t165 60.5t111 84.5t40.5 90t-25.5 68.5t-63.5 47.5t-82 45q-170 88 -170 248q0 237 338 333q104 30 231 47v-162q-211 -27 -287.5 -62t-104.5 -67.5t-28 -74t25.5 -70t64 -52t83.5 -45.5
q173 -85 173 -217q0 -103 -78 -207q-134 -179 -400 -238q-93 -21 -223 -21q-256 1 -386 145q-110 122 -110 342q0 167 64 368h151q-58 -222 -58 -320.5zM370 1128q-107 0 -107 -80q0 -88 142 -88h70v-97h-345v91h85l1 5q-45 51 -45 99q0 82 53.5 126t139.5 44q31 0 64 -6
v-101q-30 7 -58 7z" />
    <glyph glyph-name="uni0627" unicode="&#x627;" horiz-adv-x="513" arabic-form="isolated" 
d="M171 1516h156v-1516h-156v1516z" />
    <glyph glyph-name="uni0628" unicode="&#x628;" horiz-adv-x="1881" arabic-form="isolated" 
d="M328 416q0 -67 15 -116.5t53 -77.5q67 -48 195.5 -61.5t347 -13.5t314.5 5q95 6 159 26q126 41 127 175v430h156v-437q-1 -246 -209 -318q-119 -42 -256 -46q-136 -4 -250 -4q-310 0 -426 14q-185 22 -260 86.5t-99 140.5t-24 165t29 223h154q-26 -124 -26 -191z
M1034 -346h-185v181h185v-181z" />
    <glyph glyph-name="uni0629" unicode="&#x629;" horiz-adv-x="1026" arabic-form="isolated" 
d="M325 318q0 -171 193 -171q91 0 137 44q46 45 46 105q0 112 -42 201.5t-141 186.5q-134 -96 -178 -262q-14 -54 -15 -104zM415 974q440 -291 440 -654q0 -158 -93.5 -250t-258.5 -92q-243 0 -311 179q-22 56 -21 132q0 146 69.5 277.5t169.5 211.5q-39 31 -91 69z
M767 1192h-185v181h185v-181zM445 1192h-185v181h185v-181z" />
    <glyph glyph-name="uni062A" unicode="&#x62a;" horiz-adv-x="1881" arabic-form="isolated" 
d="M328 416q0 -67 15 -116.5t53 -77.5q67 -48 195.5 -61.5t347 -13.5t314.5 5q95 6 159 26q126 41 127 175v430h156v-437q-1 -246 -209 -318q-119 -42 -256 -46q-136 -4 -250 -4q-310 0 -426 14q-185 22 -260 86.5t-99 140.5t-24 165t29 223h154q-26 -124 -26 -191z
M1195 1021h-185v181h185v-181zM873 1021h-185v181h185v-181z" />
    <glyph glyph-name="uni062B" unicode="&#x62b;" horiz-adv-x="1881" arabic-form="isolated" 
d="M328 416q0 -67 15 -116.5t53 -77.5q67 -48 195.5 -61.5t347 -13.5t314.5 5q95 6 159 26q126 41 127 175v430h156v-437q-1 -246 -209 -318q-119 -42 -256 -46q-136 -4 -250 -4q-310 0 -426 14q-185 22 -260 86.5t-99 140.5t-24 165t29 223h154q-26 -124 -26 -191z
M1034 1301h-185v181h185v-181zM1195 1021h-185v181h185v-181zM873 1021h-185v181h185v-181z" />
    <glyph glyph-name="uni062C" unicode="&#x62c;" horiz-adv-x="1197" arabic-form="isolated" 
d="M402.5 852q106.5 0 161 -11t101 -27.5t88 -36t118.5 -47.5t197 -30l-32 -187q-604 -159 -718 -397q-36 -76 -36 -150q0 -150 101.5 -237.5t299 -87.5t406.5 73v-154q-209 -73 -379 -73q-305 0 -444.5 126t-139.5 324q0 353 440 565q102 50 237 92v8q-50 16 -88.5 32
t-103.5 36t-193.5 20t-246.5 -36v157q125 41 231.5 41zM805 -54h-185v181h185v-181z" />
    <glyph glyph-name="uni062D" unicode="&#x62d;" horiz-adv-x="1197" arabic-form="isolated" 
d="M402.5 852q106.5 0 161 -11t101 -27.5t88 -36t118.5 -47.5t197 -30l-32 -187q-604 -159 -718 -397q-36 -76 -36 -150q0 -150 101.5 -237.5t299 -87.5t406.5 73v-154q-209 -73 -379 -73q-305 0 -444.5 126t-139.5 324q0 353 440 565q102 50 237 92v8q-50 16 -88.5 32
t-103.5 36t-193.5 20t-246.5 -36v157q125 41 231.5 41z" />
    <glyph glyph-name="uni062E" unicode="&#x62e;" horiz-adv-x="1197" arabic-form="isolated" 
d="M402.5 852q106.5 0 161 -11t101 -27.5t88 -36t118.5 -47.5t197 -30l-32 -187q-604 -159 -718 -397q-36 -76 -36 -150q0 -150 101.5 -237.5t299 -87.5t406.5 73v-154q-209 -73 -379 -73q-305 0 -444.5 126t-139.5 324q0 353 440 565q102 50 237 92v8q-50 16 -88.5 32
t-103.5 36t-193.5 20t-246.5 -36v157q125 41 231.5 41zM691 1061h-185v181h185v-181z" />
    <glyph glyph-name="uni062F" unicode="&#x62f;" horiz-adv-x="1026" arabic-form="isolated" 
d="M621 189q63 42 63 127q0 144 -107 320q-73 121 -235 318h185q315 -351 315 -643q0 -333 -441 -333q-122 0 -287 22l-32 169q194 -22 335 -22t204 42z" />
    <glyph glyph-name="uni0630" unicode="&#x630;" horiz-adv-x="1026" arabic-form="isolated" 
d="M621 189q63 42 63 127q0 144 -107 320q-73 121 -235 318h185q315 -351 315 -643q0 -333 -441 -333q-122 0 -287 22l-32 169q194 -22 335 -22t204 42zM520 1192h-185v181h185v-181z" />
    <glyph glyph-name="uni0631" unicode="&#x631;" horiz-adv-x="855" arabic-form="isolated" 
d="M561 606q109 -272 109 -589q0 -100 -34 -206t-94.5 -178t-144 -109t-184.5 -37t-213 45v165q124 -39 213 -39q300 0 300 401q0 223 -113 547h161z" />
    <glyph glyph-name="uni0632" unicode="&#x632;" horiz-adv-x="855" arabic-form="isolated" 
d="M561 606q109 -272 109 -589q0 -100 -34 -206t-94.5 -178t-144 -109t-184.5 -37t-213 45v165q124 -39 213 -39q300 0 300 401q0 223 -113 547h161zM503 850h-185v181h185v-181z" />
    <glyph glyph-name="uni0633" unicode="&#x633;" horiz-adv-x="2394" arabic-form="isolated" 
d="M1031 126q0 132 -34 387h155q15 -116 25 -231q6 -66 50 -97.5t138 -31.5q174 0 174 186v267h156v-198q0 -146 25 -185.5t61 -54.5t86 -15q98 0 141.5 40t43.5 146v444h156v-457q0 -196 -102 -278q-78 -62 -230 -62q-196 0 -259 123h-4q-88 -123 -257 -123q-118 0 -173 70
l-5 -1q-6 -277 -133 -422.5t-408 -145.5q-385 -1 -459 287q-24 92 -23.5 207.5t29.5 277.5h151q-23 -157 -23 -255q0 -194 75 -271t271 -77t284.5 105t88.5 365z" />
    <glyph glyph-name="uni0634" unicode="&#x634;" horiz-adv-x="2394" arabic-form="isolated" 
d="M1031 126q0 132 -34 387h155q15 -116 25 -231q6 -66 50 -97.5t138 -31.5q174 0 174 186v267h156v-198q0 -146 25 -185.5t61 -54.5t86 -15q98 0 141.5 40t43.5 146v444h156v-457q0 -196 -102 -278q-78 -62 -230 -62q-196 0 -259 123h-4q-88 -123 -257 -123q-118 0 -173 70
l-5 -1q-6 -277 -133 -422.5t-408 -145.5q-385 -1 -459 287q-24 92 -23.5 207.5t29.5 277.5h151q-23 -157 -23 -255q0 -194 75 -271t271 -77t284.5 105t88.5 365zM1699 1130h-185v181h185v-181zM1860 850h-185v181h185v-181zM1538 850h-185v181h185v-181z" />
    <glyph glyph-name="uni0635" unicode="&#x635;" horiz-adv-x="2737" arabic-form="isolated" 
d="M1840 147q228 0 309 5q81 4 135 24q110 39 110 168q0 315 -330 315q-269 -1 -465 -271q-80 -111 -125 -238q138 -3 366 -3zM1031 155.5q0 161.5 -41 357.5h154q11 -63 17.5 -120t12.5 -97q10 -70 42 -103.5t107 -37.5q89 241 267 433q222 240 510 240q219 0 335 -132.5
t116 -337.5q1 -254 -183 -330q-102 -43 -225 -46.5t-244 -3.5q-562 0 -620 17t-96 61l-5 -1q-6 -277 -133.5 -422.5t-412.5 -145.5q-380 -1 -454 287q-24 92 -23.5 207.5t29.5 277.5h151q-23 -157 -23 -255q0 -194 75 -271t271 -77t284 104q46 55 67.5 144.5t21.5 251z" />
    <glyph glyph-name="uni0636" unicode="&#x636;" horiz-adv-x="2737" arabic-form="isolated" 
d="M1840 147q228 0 309 5q81 4 135 24q110 39 110 168q0 315 -330 315q-269 -1 -465 -271q-80 -111 -125 -238q138 -3 366 -3zM1031 155.5q0 161.5 -41 357.5h154q11 -63 17.5 -120t12.5 -97q10 -70 42 -103.5t107 -37.5q89 241 267 433q222 240 510 240q219 0 335 -132.5
t116 -337.5q1 -254 -183 -330q-102 -43 -225 -46.5t-244 -3.5q-562 0 -620 17t-96 61l-5 -1q-6 -277 -133.5 -422.5t-412.5 -145.5q-380 -1 -454 287q-24 92 -23.5 207.5t29.5 277.5h151q-23 -157 -23 -255q0 -194 75 -271t271 -77t284 104q46 55 67.5 144.5t21.5 251z
M1831 1021h-185v181h185v-181z" />
    <glyph glyph-name="uni0637" unicode="&#x637;" horiz-adv-x="1710" arabic-form="isolated" 
d="M816.5 147q225.5 0 306.5 5q81 4 135 24q110 39 110 168q0 177 -89 260t-241 83q-264 1 -461 -285q-78 -113 -124 -252q138 -3 363.5 -3zM502 520q232 336 578 336q106 0 192.5 -39.5t142.5 -107.5q110 -134 110 -351q1 -254 -183 -330q-102 -42 -224 -46
q-124 -4 -256 -4q-558 0 -805 24l-32 167q89 -12 278 -14q11 30 38 94v1267h158v-995z" />
    <glyph glyph-name="uni0638" unicode="&#x638;" horiz-adv-x="1710" arabic-form="isolated" 
d="M816.5 147q225.5 0 306.5 5q81 4 135 24q110 39 110 168q0 177 -89 260t-241 83q-264 1 -461 -285q-78 -113 -124 -252q138 -3 363.5 -3zM502 520q232 336 578 336q106 0 192.5 -39.5t142.5 -107.5q110 -134 110 -351q1 -254 -183 -330q-102 -42 -224 -46
q-124 -4 -256 -4q-558 0 -805 24l-32 167q89 -12 278 -14q11 30 38 94v1267h158v-995zM1090 1021h-185v181h185v-181z" />
    <glyph glyph-name="uni0639" unicode="&#x639;" horiz-adv-x="1026" arabic-form="isolated" 
d="M616 898q-289 0 -289 -241q0 -157 106 -246q173 96 427 163v-164q-484 -126 -574 -324q-28 -62 -29 -130q0 -141 101.5 -228t301.5 -87t409 73v-154q-209 -73 -381 -73q-306 0 -446.5 126t-140.5 323q0 234 215 398q-145 137 -145 315.5t121 297.5t325 119q77 0 156 -17
v-170q-93 19 -157 19z" />
    <glyph glyph-name="uni063A" unicode="&#x63a;" horiz-adv-x="1026" arabic-form="isolated" 
d="M616 898q-289 0 -289 -241q0 -157 106 -246q173 96 427 163v-164q-484 -126 -574 -324q-28 -62 -29 -130q0 -141 101.5 -228t301.5 -87t409 73v-154q-209 -73 -381 -73q-306 0 -446.5 126t-140.5 323q0 234 215 398q-145 137 -145 315.5t121 297.5t325 119q77 0 156 -17
v-170q-93 19 -157 19zM577 1242h-185v181h185v-181z" />
    <glyph glyph-name="uni063B.init" unicode="&#x63b;" horiz-adv-x="1026" 
d="M0 -14q-34 0 -52 26t-18 58t18 58t52 25h296q271 -1 316 95q15 32 15 90t-44 129q-44 70 -126 137q-145 118 -457 270v118l843 546v-176l-666 -417q299 -142 454 -290q154 -148 154 -324q0 -264 -301 -328q-80 -17 -191 -17h-293zM567 1534h-185v181h185v-181zM245 1534
h-185v181h185v-181z" />
    <glyph glyph-name="uni063B.medi" unicode="&#x63b;" horiz-adv-x="1026" 
d="M0 -14q-34 0 -52 26t-18 58t18 58t52 25h296q271 -1 316 95q15 32 15 90t-44 129q-44 70 -126 137q-145 118 -457 270v118l843 546v-176l-666 -417q457 -217 559 -436q32 -69 42 -113t14 -66q6 -22 16 -46q55 -131 218 -131v-167h-22q-192 0 -274 159h-5
q-108 -159 -432 -159h-293zM567 1534h-185v181h185v-181zM245 1534h-185v181h185v-181z" />
    <glyph glyph-name="uni063B.fina" unicode="&#x63b;" horiz-adv-x="1881" 
d="M328 416q0 -66 16 -116t52 -77q62 -46 177 -61t278 -15q250 1 342 5q212 10 263 79q26 35 26 101q0 133 -157 262t-470 280v118l843 546v-176l-666 -417q457 -217 559 -436q31 -69 41 -113t16 -66t15 -46q55 -131 218 -131v-167h-22q-192 0 -274 159h-5
q-86 -115 -270 -147q-116 -20 -316 -20q-351 0 -491 20t-212 82q-72 63 -96 139t-24 165t29 223h154q-26 -124 -26 -191zM1422 1534h-185v181h185v-181zM1100 1534h-185v181h185v-181z" />
    <glyph glyph-name="uni063C.init" unicode="&#x63c;" horiz-adv-x="1026" 
d="M0 -14q-34 0 -52 26t-18 58t18 58t52 25h296q271 -1 316 95q15 32 15 90t-44 129q-44 70 -126 137q-145 118 -457 270v118l843 546v-176l-666 -417q299 -142 454 -290q154 -148 154 -324q0 -264 -301 -328q-80 -17 -191 -17h-293zM520 -567h-185v181h185v-181zM681 -287
h-185v181h185v-181zM359 -287h-185v181h185v-181z" />
    <glyph glyph-name="uni063C.medi" unicode="&#x63c;" horiz-adv-x="1026" 
d="M0 -14q-34 0 -52 26t-18 58t18 58t52 25h296q271 -1 316 95q15 32 15 90t-44 129q-44 70 -126 137q-145 118 -457 270v118l843 546v-176l-666 -417q457 -217 559 -436q32 -69 42 -113t14 -66q6 -22 16 -46q55 -131 218 -131v-167h-22q-192 0 -274 159h-5
q-108 -159 -432 -159h-293zM520 -567h-185v181h185v-181zM681 -287h-185v181h185v-181zM359 -287h-185v181h185v-181z" />
    <glyph glyph-name="uni063C.fina" unicode="&#x63c;" horiz-adv-x="1881" 
d="M328 416q0 -66 16 -116t52 -77q62 -46 177 -61t278 -15q250 1 342 5q212 10 263 79q26 35 26 101q0 133 -157 262t-470 280v118l843 546v-176l-666 -417q457 -217 559 -436q31 -69 41 -113t16 -66t15 -46q55 -131 218 -131v-167h-22q-192 0 -274 159h-5
q-86 -115 -270 -147q-116 -20 -316 -20q-351 0 -491 20t-212 82q-72 63 -96 139t-24 165t29 223h154q-26 -124 -26 -191zM1034 -567h-185v181h185v-181zM1195 -287h-185v181h185v-181zM873 -287h-185v181h185v-181z" />
    <glyph glyph-name="uni063D.init" unicode="&#x63d;" horiz-adv-x="684" 
d="M153 153q100 1 132 29q33 28 45 64t12 93v444h156v-451q0 -263 -184 -323q-70 -23 -171 -23h-143q-34 0 -52 26t-18 58t18 58t52 25h153zM472 1370l236 -352h-125l-171 255l-168 -255h-121l230 352h119zM584 -346h-185v181h185v-181zM262 -346h-185v181h185v-181z" />
    <glyph glyph-name="uni063D.medi" unicode="&#x63d;" horiz-adv-x="684" 
d="M662 -14q-188 0 -250 123h-4q-91 -123 -265 -123h-143q-34 0 -52 26t-18 58t18 58t52 25h153q121 -1 171 97q18 36 18 89v444h156v-375q0 -144 26 -184q26 -41 62 -56q37 -15 98 -15v-167h-22zM472 1370l236 -352h-125l-171 255l-168 -255h-121l230 352h119zM584 -346
h-185v181h185v-181zM262 -346h-185v181h185v-181z" />
    <glyph glyph-name="uni063D.fina" unicode="&#x63d;" horiz-adv-x="1710" 
d="M311 264q0 -173 78 -252q95 -97 340 -97q245 -1 319 87q22 26 23 57q0 29 -16 51t-35 46q-51 64 -51 128q0 115 69 181t177 66q130 -1 208 -159q64 -130 124 -174q60 -45 163 -45v-167h-22q-174 0 -278 120q-47 55 -79 115q-33 59 -53 90q-39 59 -77 59q-78 0 -78 -70
q0 -33 16 -55q16 -21 35 -45q51 -63 51 -130q-1 -66 -23 -112t-61 -82q-143 -131 -461 -130q-280 0 -414 148q-112 122 -112 344q0 113 35 255h154q-32 -147 -32 -229zM829 1068l236 -352h-125l-171 255l-168 -255h-121l230 352h119z" />
    <glyph glyph-name="uni063E.init" unicode="&#x63e;" horiz-adv-x="684" 
d="M153 153q100 1 132 29q33 28 45 64t12 93v444h156v-451q0 -263 -184 -323q-70 -23 -171 -23h-143q-34 0 -52 26t-18 58t18 58t52 25h153zM584 -346h-185v181h185v-181zM262 -346h-185v181h185v-181zM666 1021h-185v181h185v-181zM344 1021h-185v181h185v-181z" />
    <glyph glyph-name="uni063E.medi" unicode="&#x63e;" horiz-adv-x="684" 
d="M662 -14q-188 0 -250 123h-4q-91 -123 -265 -123h-143q-34 0 -52 26t-18 58t18 58t52 25h153q121 -1 171 97q18 36 18 89v444h156v-375q0 -144 26 -184q26 -41 62 -56q37 -15 98 -15v-167h-22zM584 -346h-185v181h185v-181zM262 -346h-185v181h185v-181zM666 1021h-185
v181h185v-181zM344 1021h-185v181h185v-181z" />
    <glyph glyph-name="uni063E.fina" unicode="&#x63e;" horiz-adv-x="1710" 
d="M311 264q0 -173 78 -252q95 -97 340 -97q245 -1 319 87q22 26 23 57q0 29 -16 51t-35 46q-51 64 -51 128q0 115 69 181t177 66q130 -1 208 -159q64 -130 124 -174q60 -45 163 -45v-167h-22q-174 0 -278 120q-47 55 -79 115q-33 59 -53 90q-39 59 -77 59q-78 0 -78 -70
q0 -33 16 -55q16 -21 35 -45q51 -63 51 -130q-1 -66 -23 -112t-61 -82q-143 -131 -461 -130q-280 0 -414 148q-112 122 -112 344q0 113 35 255h154q-32 -147 -32 -229zM986 772h-185v181h185v-181zM664 772h-185v181h185v-181z" />
    <glyph glyph-name="uni063F.init" unicode="&#x63f;" horiz-adv-x="684" 
d="M153 153q100 1 132 29q33 28 45 64t12 93v444h156v-451q0 -263 -184 -323q-70 -23 -171 -23h-143q-34 0 -52 26t-18 58t18 58t52 25h153zM584 -346h-185v181h185v-181zM262 -346h-185v181h185v-181zM505 1301h-185v181h185v-181zM666 1021h-185v181h185v-181zM344 1021
h-185v181h185v-181z" />
    <glyph glyph-name="uni063F.medi" unicode="&#x63f;" horiz-adv-x="684" 
d="M662 -14q-188 0 -250 123h-4q-91 -123 -265 -123h-143q-34 0 -52 26t-18 58t18 58t52 25h153q121 -1 171 97q18 36 18 89v444h156v-375q0 -144 26 -184q26 -41 62 -56q37 -15 98 -15v-167h-22zM584 -346h-185v181h185v-181zM262 -346h-185v181h185v-181zM505 1301h-185
v181h185v-181zM666 1021h-185v181h185v-181zM344 1021h-185v181h185v-181z" />
    <glyph glyph-name="uni063F.fina" unicode="&#x63f;" horiz-adv-x="1710" 
d="M311 264q0 -173 78 -252q95 -97 340 -97q245 -1 319 87q22 26 23 57q0 29 -16 51t-35 46q-51 64 -51 128q0 115 69 181t177 66q130 -1 208 -159q64 -130 124 -174q60 -45 163 -45v-167h-22q-174 0 -278 120q-47 55 -79 115q-33 59 -53 90q-39 59 -77 59q-78 0 -78 -70
q0 -33 16 -55q16 -21 35 -45q51 -63 51 -130q-1 -66 -23 -112t-61 -82q-143 -131 -461 -130q-280 0 -414 148q-112 122 -112 344q0 113 35 255h154q-32 -147 -32 -229zM825 1052h-185v181h185v-181zM986 772h-185v181h185v-181zM664 772h-185v181h185v-181z" />
    <glyph glyph-name="uni0641" unicode="&#x641;" horiz-adv-x="2052" arabic-form="isolated" 
d="M1648 204q62 45 62 150.5t-64 222t-138 116.5q-57 0 -106 -66.5t-49 -145.5q-1 -105 147 -199q58 -36 148 -78zM328 416q0 -147 73 -197.5t214 -61t436.5 -10.5t393.5 5l2 6q-203 82 -237 218q-10 42 -10 97.5t24 126t66 130.5q98 136 227 136q165 0 285 -239
q64 -129 64.5 -241.5t-28.5 -178.5q-29 -65 -79 -109q-89 -78 -265 -104q-113 -17 -336 -16h-185q-308 0 -413 13q-192 24 -266.5 87.5t-98.5 140t-24 165.5t29 223h154q-26 -124 -26 -191zM1588 1135h-185v181h185v-181z" />
    <glyph glyph-name="uni0642" unicode="&#x642;" horiz-adv-x="1539" arabic-form="isolated" 
d="M992 522q-55 0 -104.5 -67.5t-49.5 -142t61 -117.5t149.5 -43t146.5 33q-3 87 -51.5 185t-86 125t-65.5 27zM312 6q0 -192 94 -271t356 -79q264 0 360 114q58 68 68 162q6 46 7 91q-80 -37 -159 -37q-153 0 -253 84t-100 223t94 270.5t227.5 131.5t241 -168.5
t107.5 -454.5q-1 -446 -345 -550q-118 -36 -280 -35q-310 0 -442.5 121.5t-132.5 369.5q0 119 29 281h151q-23 -157 -23 -253zM1234 964h-185v181h185v-181zM912 964h-185v181h185v-181z" />
    <glyph glyph-name="uni0643" unicode="&#x643;" horiz-adv-x="1710" arabic-form="isolated" 
d="M847 951q1 -20 17 -32q16 -11 35 -21q47 -24 70 -47t23 -61q0 -75 -80 -128.5t-228 -60.5v93q197 11 197 82q0 18 -15.5 29t-33.5 21q-44 23 -70 48q-26 24 -26 68q0 78 80.5 126.5t208.5 65.5v-93q-178 -23 -178 -90zM328 416q0 -66 16 -116t52 -77q63 -46 177 -61
t292.5 -15t259.5 5q81 6 135 26q108 41 108 175v1163h156v-1170q0 -244 -184 -318q-105 -42 -225.5 -46t-220.5 -4q-251 0 -391 20t-212 82.5t-96 138.5t-24 165t29 223h154q-26 -124 -26 -191z" />
    <glyph glyph-name="uni0644" unicode="&#x644;" horiz-adv-x="1368" arabic-form="isolated" 
d="M312 178q0 -196 74.5 -272.5t268.5 -76.5t282.5 105t88.5 362v1220h156v-1240q0 -302 -120 -450q-134 -165 -434 -166q-376 0 -450 288q-24 92 -23.5 210.5t27.5 263.5h152q-22 -144 -22 -244z" />
    <glyph glyph-name="uni0645" unicode="&#x645;" horiz-adv-x="1197" arabic-form="isolated" 
d="M855 275q0 80 -57.5 168t-132 88t-129 -82t-95.5 -255q33 -4 67 -12q134 -30 201 -30q146 0 146 123zM214 -118q0 -206 63 -395h-166q-54 222 -54 328q0 177 68.5 271t184.5 112q102 499 383 499q67 1 127 -41q62 -42 104 -104q88 -130 88 -263.5t-74 -218.5t-206 -85
q-71 0 -199.5 30.5t-173.5 30.5q-78 0 -111.5 -50t-33.5 -114z" />
    <glyph glyph-name="uni0646" unicode="&#x646;" horiz-adv-x="1368" arabic-form="isolated" 
d="M1033 118q0 124 -33 331h156q34 -185 34 -337q0 -314 -120 -460q-136 -165 -438 -165q-380 -1 -454 287q-24 92 -23.5 207.5t29.5 277.5h151q-23 -157 -23 -255q0 -194 75 -271t271 -77t285.5 104.5t89.5 357.5zM764 679h-185v181h185v-181z" />
    <glyph glyph-name="uni0647" unicode="&#x647;" horiz-adv-x="1026" arabic-form="isolated" 
d="M325 318q0 -171 193 -171q91 0 137 44q46 45 46 105q0 112 -42 201.5t-141 186.5q-134 -96 -178 -262q-14 -54 -15 -104zM415 974q440 -291 440 -654q0 -158 -93.5 -250t-258.5 -92q-243 0 -311 179q-22 56 -21 132q0 146 69.5 277.5t169.5 211.5q-39 31 -91 69z" />
    <glyph glyph-name="uni0648" unicode="&#x648;" horiz-adv-x="1026" arabic-form="isolated" 
d="M478 522q-55 0 -104.5 -67.5t-49.5 -142t61 -117.5t149.5 -43t146.5 33q-3 87 -51.5 185t-86 125t-65.5 27zM0 -263q194 -79 368 -79q304 0 315 365q-83 -37 -161 -37q-152 0 -251.5 84t-99.5 223t94 270.5t227.5 131.5t241 -169.5t107.5 -453.5q0 -401 -257 -537
q-91 -48 -246 -48t-338 84v166z" />
    <glyph glyph-name="uni0649" unicode="&#x649;" horiz-adv-x="1539" arabic-form="isolated" 
d="M311 363.5q0 -98.5 16.5 -160t57.5 -107.5t112 -72t180 -26t203.5 23t165 60.5t111 84.5t40.5 90t-25.5 68.5t-63.5 47.5t-82 45q-170 88 -170 248q0 237 338 333q104 30 231 47v-162q-211 -27 -287.5 -62t-104.5 -67.5t-28 -74t25.5 -70t64 -52t83.5 -45.5
q173 -85 173 -217q0 -103 -78 -207q-134 -179 -400 -238q-93 -21 -223 -21q-256 1 -386 145q-110 122 -110 342q0 167 64 368h151q-58 -222 -58 -320.5z" />
    <glyph glyph-name="uni064A" unicode="&#x64a;" horiz-adv-x="1539" arabic-form="isolated" 
d="M311 363.5q0 -98.5 16.5 -160t57.5 -107.5t112 -72t180 -26t203.5 23t165 60.5t111 84.5t40.5 90t-25.5 68.5t-63.5 47.5t-82 45q-170 88 -170 248q0 237 338 333q104 30 231 47v-162q-211 -27 -287.5 -62t-104.5 -67.5t-28 -74t25.5 -70t64 -52t83.5 -45.5
q173 -85 173 -217q0 -103 -78 -207q-134 -179 -400 -238q-93 -21 -223 -21q-256 1 -386 145q-110 122 -110 342q0 167 64 368h151q-58 -222 -58 -320.5zM1023 -517h-185v181h185v-181zM701 -517h-185v181h185v-181z" />
    <glyph glyph-name="uni066E.init" unicode="&#x66e;" horiz-adv-x="684" 
d="M153 153q100 0 132.5 28.5t44.5 64.5t12 93v444h156v-451q0 -263 -184 -323q-70 -23 -171 -23h-143q-35 0 -52.5 26t-17.5 58t17.5 57.5t52.5 25.5h153z" />
    <glyph glyph-name="uni066E.medi" unicode="&#x66e;" horiz-adv-x="684" 
d="M662 -14q-188 0 -250 123h-4q-91 -123 -265 -123h-143q-35 0 -52.5 26t-17.5 58t17.5 57.5t52.5 25.5h153q121 -1 171 97q18 36 18 89v444h156v-375q0 -144 25.5 -184.5t62.5 -55.5t98 -15v-167h-22z" />
    <glyph glyph-name="uni066E.fina" unicode="&#x66e;" horiz-adv-x="1881" 
d="M328 416q0 -67 15.5 -116.5t53.5 -77.5q66 -48 195.5 -61.5t347 -13.5t313.5 5q95 6 159 26q126 41 127 175v430h156v-375q0 -144 25.5 -184.5t62 -55.5t98.5 -15v-167h-22q-97 0 -153 29t-88 93h-4q-111 -120 -419 -128q-90 -2 -206 -2q-307 0 -463.5 18t-231.5 82.5
t-99 140.5t-24 165t29 223h154q-26 -124 -26 -191z" />
    <glyph glyph-name="uni066F.init" unicode="&#x66f;" horiz-adv-x="1026" 
d="M622 204q62 45 62 151q0 105 -64 221q-64 117 -138 117q-56 0 -106 -67q-49 -67 -49 -141q0 -73 64 -138q63 -65 231 -143zM200 153q111 0 219 -2l2 7q-203 82 -237 218q-10 42 -10 97.5t24 126t66 130.5q98 136 233 136t239 -172q105 -172 105 -325q-1 -257 -219 -335
q-116 -42 -238 -45t-193 -3h-191q-35 0 -52.5 26t-17.5 58t17.5 57.5t52.5 25.5h200z" />
    <glyph glyph-name="uni066F.medi" unicode="&#x66f;" horiz-adv-x="1026" 
d="M626 202q58 42 58 150t-64 224q-64 117 -130 117t-114 -68q-49 -68 -49 -144q0 -103 150 -199q58 -37 149 -80zM200 153q111 0 219 -2l2 7q-203 82 -237 218q-10 42 -10 97.5t24 126t66 130.5q98 136 227 136q165 0 285 -239q64 -129 64.5 -256t-51.5 -206
q75 -12 237 -12v-167h-22q-215 0 -366 58q-121 -53 -337 -57q-58 -1 -110 -1h-191q-35 0 -52.5 26t-17.5 58t17.5 57.5t52.5 25.5h200z" />
    <glyph glyph-name="uni066F.fina" unicode="&#x66f;" horiz-adv-x="1539" 
d="M838 310q0 -157 258 -157h101q-19 185 -103 301q-49 68 -103.5 68t-103.5 -66.5t-49 -145.5zM312 6q0 -192 94 -271t336 -79q333 0 416 168q30 61 37 162h-117q-282 0 -366 177q-27 57 -27 126q0 143 94 274.5t227.5 131.5t231.5 -156t113 -386h188v-167h-187
q-22 -256 -173 -377.5t-450 -121.5q-455 1 -545 281q-30 92 -29.5 210.5t29.5 280.5h151q-23 -157 -23 -253z" />
    <glyph glyph-name="uni0671" unicode="&#x671;" horiz-adv-x="513" arabic-form="isolated" 
d="M171 1516h156v-1516h-156v1516zM369.5 1785.5q32.5 32.5 32.5 69.5t-22 56.5t-57 19.5t-74 -35t-71 -118q65 -25 112 -25t79.5 32.5zM58 1806q26 0 44 -5q72 223 232 223q74 0 118 -48t44 -102q0 -95 -61.5 -154t-145.5 -59q-48 0 -123 26t-119.5 26t-104.5 -46l-47 74
q95 65 163 65z" />
    <glyph glyph-name="uni0672.fina" unicode="&#x672;" horiz-adv-x="513" 
d="M513 -14h-20q-187 0 -263 113q-58 86 -59 250v1167h156v-1108q0 -145 24 -185t61 -55t101 -15v-167zM81 1771.5q40 -19.5 77 -20.5l1 5q-45 51 -45 99q0 82 53.5 126t139.5 44q31 0 64 -6v-101q-30 7 -66.5 7t-67.5 -19t-31 -56q0 -93 142 -93h70v-97h-199q-92 0 -171 40
q-15 8 -38 7.5t-69 -40.5l-3 1v86q44 37 73.5 37t69.5 -19.5z" />
    <glyph glyph-name="uni0673.fina" unicode="&#x673;" horiz-adv-x="513" 
d="M513 -14h-20q-187 0 -263 113q-58 86 -59 250v1167h156v-1108q0 -145 24 -185t61 -55t101 -15v-167zM81 -402.5q40 -19.5 77 -20.5l1 5q-45 51 -45 99q0 82 53.5 126t139.5 44q31 0 64 -6v-101q-30 7 -66.5 7t-67.5 -19t-31 -56q0 -93 142 -93h70v-97h-199q-92 0 -171 40
q-15 8 -38 7.5t-69 -40.5l-3 1v86q44 37 73.5 37t69.5 -19.5z" />
    <glyph glyph-name="uni0675.fina" unicode="&#x675;" horiz-adv-x="855" 
d="M655 1413q-107 0 -107 -80q0 -88 142 -88h70v-97h-345v91h85l1 5q-45 51 -45 99q0 82 53.5 126t139.5 44q31 0 64 -6v-101q-30 7 -58 7zM513 153h342v-167h-362q-187 0 -263 113q-58 86 -59 250v1167h156v-1108q0 -145 24 -185t61 -55t101 -15z" />
    <glyph glyph-name="uni0676.fina" unicode="&#x676;" horiz-adv-x="1026" 
d="M324 310q0 -157 259 -157h101q-19 185 -103 301q-49 69 -103.5 68.5t-104 -68t-49.5 -144.5zM363 -342q242 0 299 210q13 48 20 118h-117q-283 0 -367 177q-27 57 -27 126q0 143 94 274.5t227.5 131.5t240.5 -170q90 -145 105 -372h188v-167h-189q-27 -345 -271 -459
q-86 -40 -203 -40q-180 0 -363 84v166q194 -79 363 -79zM826 1242q-107 0 -107 -80q0 -88 142 -88h70v-97h-345v91h85l1 5q-45 51 -45 99q0 82 53.5 126t139.5 44q31 0 64 -6v-101q-30 7 -58 7z" />
    <glyph glyph-name="uni0677" unicode="&#x677;" horiz-adv-x="1026" arabic-form="isolated" 
d="M478 522q-55 0 -104.5 -67.5t-49.5 -142t61 -117.5t149.5 -43t146.5 33q-3 87 -51.5 185t-86 125t-65.5 27zM0 -263q194 -79 368 -79q304 0 315 365q-83 -37 -161 -37q-152 0 -251.5 84t-99.5 223t94 270.5t227.5 131.5t241 -169.5t107.5 -453.5q0 -401 -257 -537
q-91 -48 -246 -48t-338 84v166zM826 1242q-107 0 -107 -80q0 -88 142 -88h70v-97h-345v91h85l1 5q-45 51 -45 99q0 82 53.5 126t139.5 44q31 0 64 -6v-101q-30 7 -58 7zM413 1213q0 41 -25.5 59.5t-49.5 18.5q-43 0 -68.5 -19.5t-25.5 -62.5t61 -111q108 36 108 115z
M276 1006q-38 -8 -121.5 -8t-179.5 28l18 83q108 -28 198 -28h7q6 0 11 1l1 2q-52 67 -52 120q0 88 53 131.5t122 43.5q109 1 151 -91q14 -30 14 -72q0 -123 -129 -182l40 -35l-53 -61q-45 34 -80 68z" />
    <glyph glyph-name="uni0678.init" unicode="&#x678;" horiz-adv-x="1026" 
d="M153 153q100 0 132.5 28.5t44.5 64.5t12 93v444h156v-451q0 -263 -184 -323q-70 -23 -171 -23h-143q-35 0 -52.5 26t-17.5 58t17.5 57.5t52.5 25.5h153zM826 1242q-107 0 -107 -80q0 -88 142 -88h70v-97h-345v91h85l1 5q-45 51 -45 99q0 82 53.5 126t139.5 44q31 0 64 -6
v-101q-30 7 -58 7z" />
    <glyph glyph-name="uni0678.medi" unicode="&#x678;" horiz-adv-x="1026" 
d="M662 -14q-188 0 -250 123h-4q-91 -123 -265 -123h-143q-35 0 -52.5 26t-17.5 58t17.5 57.5t52.5 25.5h153q121 -1 171 97q18 36 18 89v444h156v-375q0 -144 25.5 -184.5t62.5 -55.5t98 -15h342v-167h-364zM826 1242q-107 0 -107 -80q0 -88 142 -88h70v-97h-345v91h85l1 5
q-45 51 -45 99q0 82 53.5 126t139.5 44q31 0 64 -6v-101q-30 7 -58 7z" />
    <glyph glyph-name="uni0678.fina" unicode="&#x678;" horiz-adv-x="1710" 
d="M311 264q0 -173 78 -252q95 -97 340 -97q245 -1 319 87q22 26 22.5 56.5t-15.5 52t-35 45.5q-51 64 -51 128q0 115 69.5 181t176.5 66q130 -1 208 -159q64 -130 124 -174.5t163 -44.5v-167h-22q-174 0 -278 120q-47 54 -79 114q-33 60 -53 91q-39 59 -77 59
q-78 0 -78 -70q0 -33 16 -55q16 -21 35 -45q51 -63 51 -129.5t-22.5 -112.5t-61.5 -82q-143 -131 -461 -130q-280 0 -414 148q-112 122 -112 344q0 113 35 255h154q-32 -147 -32 -229zM1681 1242q-107 0 -107 -80q0 -88 142 -88h70v-97h-345v91h85l1 5q-45 51 -45 99
q0 82 53.5 126t139.5 44q31 0 64 -6v-101q-30 7 -58 7z" />
    <glyph glyph-name="uni0679" unicode="&#x679;" horiz-adv-x="1881" arabic-form="isolated" 
d="M328 416q0 -67 15 -116.5t53 -77.5q67 -48 195.5 -61.5t347 -13.5t314.5 5q95 6 159 26q126 41 127 175v430h156v-437q-1 -246 -209 -318q-119 -42 -256 -46q-136 -4 -250 -4q-310 0 -426 14q-185 22 -260 86.5t-99 140.5t-24 165t29 223h154q-26 -124 -26 -191zM975 960
q118 0 142 8q42 14 42 67.5t-32.5 81.5t-72.5 28q-71 0 -126 -52.5t-88 -132.5h135zM754 1465h89v-347l3 -1q81 132 213 132q91 0 136.5 -63t45.5 -142.5t-19.5 -114.5t-60.5 -54.5t-143 -19.5q-290 0 -378 11l-13 103q21 -2 127 -7v503z" />
    <glyph glyph-name="uni067A" unicode="&#x67a;" horiz-adv-x="1881" arabic-form="isolated" 
d="M328 416q0 -67 15 -116.5t53 -77.5q67 -48 195.5 -61.5t347 -13.5t314.5 5q95 6 159 26q126 41 127 175v430h156v-437q-1 -246 -209 -318q-119 -42 -256 -46q-136 -4 -250 -4q-310 0 -426 14q-185 22 -260 86.5t-99 140.5t-24 165t29 223h154q-26 -124 -26 -191z
M1034 1301h-185v181h185v-181zM1034 1021h-185v181h185v-181z" />
    <glyph glyph-name="uni067B" unicode="&#x67b;" horiz-adv-x="1881" arabic-form="isolated" 
d="M328 416q0 -67 15 -116.5t53 -77.5q67 -48 195.5 -61.5t347 -13.5t314.5 5q95 6 159 26q126 41 127 175v430h156v-437q-1 -246 -209 -318q-119 -42 -256 -46q-136 -4 -250 -4q-310 0 -426 14q-185 22 -260 86.5t-99 140.5t-24 165t29 223h154q-26 -124 -26 -191z
M1034 -287h-185v181h185v-181zM1034 -567h-185v181h185v-181z" />
    <glyph glyph-name="uni067C.init" unicode="&#x67c;" horiz-adv-x="684" 
d="M443 -83q0 -74 -47 -121t-114 -47t-113.5 47t-46.5 101t18 89h-140q-35 0 -52.5 26t-17.5 58t17.5 57.5t52.5 25.5h153q100 0 132.5 28.5t44.5 64.5t12 93v444h156v-451q0 -213 -121 -292q66 -49 66 -123zM283 -176q36 0 60.5 24.5t24.5 60.5t-24.5 61t-60.5 25t-61 -25
t-25 -61t25 -60.5t61 -24.5z" />
    <glyph glyph-name="uni067C.medi" unicode="&#x67c;" horiz-adv-x="684" 
d="M662 -14q-188 0 -250 123h-4q-24 -32 -54 -55q22 -10 42 -30q47 -46 47 -113.5t-47 -114.5t-114 -47t-113.5 47t-46.5 101t18 89h-140q-35 0 -52.5 26t-17.5 58t17.5 57.5t52.5 25.5h153q121 -1 171 97q18 36 18 89v444h156v-375q0 -144 25.5 -184.5t62.5 -55.5t98 -15
v-167h-22zM283 -176q36 0 60.5 24.5t24.5 60.5t-24.5 61t-60.5 25t-61 -25t-25 -61t25 -60.5t61 -24.5z" />
    <glyph glyph-name="uni067C.fina" unicode="&#x67c;" horiz-adv-x="1881" 
d="M328 416q0 -67 15.5 -116.5t53.5 -77.5q66 -48 195.5 -61.5t347 -13.5t313.5 5q95 6 159 26q126 41 127 175v430h156v-375q0 -144 25.5 -184.5t62 -55.5t98.5 -15v-167h-22q-97 0 -153 29t-88 93h-4q-111 -120 -419 -128q-59 -2 -121 -2q28 -40 28 -99t-47 -106t-114 -47
t-113.5 47t-46.5 106.5t28 99.5q-281 4 -410 46q-159 51 -204 194q-24 76 -24 165t29 223h154q-26 -124 -26 -191zM942 -199q36 0 60.5 24.5t24.5 60.5t-24.5 61t-60.5 25t-61 -25t-25 -61t25 -60.5t61 -24.5z" />
    <glyph glyph-name="uni067D.init" unicode="&#x67d;" horiz-adv-x="684" 
d="M153 153q100 0 132.5 28.5t44.5 64.5t12 93v444h156v-451q0 -263 -184 -323q-70 -23 -171 -23h-143q-35 0 -52.5 26t-17.5 58t17.5 57.5t52.5 25.5h153zM505 1021h-185v181h185v-181zM666 1301h-185v181h185v-181zM344 1301h-185v181h185v-181z" />
    <glyph glyph-name="uni067D.medi" unicode="&#x67d;" horiz-adv-x="684" 
d="M662 -14q-188 0 -250 123h-4q-91 -123 -265 -123h-143q-35 0 -52.5 26t-17.5 58t17.5 57.5t52.5 25.5h153q121 -1 171 97q18 36 18 89v444h156v-375q0 -144 25.5 -184.5t62.5 -55.5t98 -15v-167h-22zM505 1021h-185v181h185v-181zM666 1301h-185v181h185v-181zM344 1301
h-185v181h185v-181z" />
    <glyph glyph-name="uni067D.fina" unicode="&#x67d;" horiz-adv-x="1881" 
d="M328 416q0 -67 15.5 -116.5t53.5 -77.5q66 -48 195.5 -61.5t347 -13.5t313.5 5q95 6 159 26q126 41 127 175v430h156v-375q0 -144 25.5 -184.5t62 -55.5t98.5 -15v-167h-22q-97 0 -153 29t-88 93h-4q-111 -120 -419 -128q-90 -2 -206 -2q-307 0 -463.5 18t-231.5 82.5
t-99 140.5t-24 165t29 223h154q-26 -124 -26 -191zM1034 1021h-185v181h185v-181zM1195 1301h-185v181h185v-181zM873 1301h-185v181h185v-181z" />
    <glyph glyph-name="uni067E" unicode="&#x67e;" horiz-adv-x="1881" arabic-form="isolated" 
d="M328 416q0 -67 15 -116.5t53 -77.5q67 -48 195.5 -61.5t347 -13.5t314.5 5q95 6 159 26q126 41 127 175v430h156v-437q-1 -246 -209 -318q-119 -42 -256 -46q-136 -4 -250 -4q-310 0 -426 14q-185 22 -260 86.5t-99 140.5t-24 165t29 223h154q-26 -124 -26 -191z
M1034 -567h-185v181h185v-181zM1195 -287h-185v181h185v-181zM873 -287h-185v181h185v-181z" />
    <glyph glyph-name="uni067F" unicode="&#x67f;" horiz-adv-x="1881" arabic-form="isolated" 
d="M328 416q0 -67 15 -116.5t53 -77.5q67 -48 195.5 -61.5t347 -13.5t314.5 5q95 6 159 26q126 41 127 175v430h156v-437q-1 -246 -209 -318q-119 -42 -256 -46q-136 -4 -250 -4q-310 0 -426 14q-185 22 -260 86.5t-99 140.5t-24 165t29 223h154q-26 -124 -26 -191z
M1195 1301h-185v181h185v-181zM873 1301h-185v181h185v-181zM1195 1021h-185v181h185v-181zM873 1021h-185v181h185v-181z" />
    <glyph glyph-name="uni0680" unicode="&#x680;" horiz-adv-x="1881" arabic-form="isolated" 
d="M328 416q0 -67 15 -116.5t53 -77.5q67 -48 195.5 -61.5t347 -13.5t314.5 5q95 6 159 26q126 41 127 175v430h156v-437q-1 -246 -209 -318q-119 -42 -256 -46q-136 -4 -250 -4q-310 0 -426 14q-185 22 -260 86.5t-99 140.5t-24 165t29 223h154q-26 -124 -26 -191z
M1195 -287h-185v181h185v-181zM873 -287h-185v181h185v-181zM1195 -567h-185v181h185v-181zM873 -567h-185v181h185v-181z" />
    <glyph glyph-name="uni0681.init" unicode="&#x681;" horiz-adv-x="1197" 
d="M406 783q110 0 172 -14.5t115 -36t101 -46.5q190 -98 354 -100l-32 -200q-43 -10 -100.5 -43t-130.5 -77q-203 -124 -354 -184q-239 -96 -481 -96h-50q-35 0 -52.5 26t-17.5 58t17.5 57.5t52.5 25.5h59q307 0 649 200q96 56 186 113v5q-57 27 -105 53q-175 96 -339 96.5
t-279 -35.5v157q125 41 235 41zM655 1202q-107 0 -107 -80q0 -88 142 -88h70v-97h-345v91h85l1 5q-45 51 -45 99q0 82 53.5 126t139.5 44q31 0 64 -6v-101q-30 7 -58 7z" />
    <glyph glyph-name="uni0681.medi" unicode="&#x681;" horiz-adv-x="1197" 
d="M406 783q110 0 172 -14.5t115 -36t101 -46.5q190 -98 354 -100l-32 -200q-51 -13 -161 -78q2 -89 49.5 -122t192.5 -33v-167h-20q-261 0 -312 158q-15 46 -17 99q-193 -115 -318 -162q-253 -95 -480 -95h-50q-35 0 -52.5 26t-17.5 58t17.5 57.5t52.5 25.5h59
q307 0 649 200q96 56 186 113v5q-57 27 -105 53q-175 96 -339 96.5t-279 -35.5v157q125 41 235 41zM655 1202q-107 0 -107 -80q0 -88 142 -88h70v-97h-345v91h85l1 5q-45 51 -45 99q0 82 53.5 126t139.5 44q31 0 64 -6v-101q-30 7 -58 7z" />
    <glyph glyph-name="uni0681.fina" unicode="&#x681;" horiz-adv-x="1197" 
d="M402.5 852q106.5 0 161 -11t101 -27.5t88 -36t118.5 -47.5t197 -30l-32 -187q-68 -18 -128 -36q10 -187 75.5 -255.5t213.5 -68.5v-167h-24q-369 0 -391 449q-397 -143 -475 -344q-25 -63 -25 -131q0 -144 101.5 -231.5t299 -87.5t406.5 73v-154q-209 -73 -379 -73
q-305 0 -444.5 126t-139.5 324q0 353 440 565q102 50 237 92v8q-50 16 -88.5 32t-103.5 36t-193.5 20t-246.5 -36v157q125 41 231.5 41zM655 1323q-107 0 -107 -80q0 -88 142 -88h70v-97h-345v91h85l1 5q-45 51 -45 99q0 82 53.5 126t139.5 44q31 0 64 -6v-101q-30 7 -58 7z
" />
    <glyph glyph-name="uni0682.init" unicode="&#x682;" horiz-adv-x="1197" 
d="M406 783q110 0 172 -14.5t115 -36t101 -46.5q190 -98 354 -100l-32 -200q-43 -10 -100.5 -43t-130.5 -77q-203 -124 -354 -184q-239 -96 -481 -96h-50q-35 0 -52.5 26t-17.5 58t17.5 57.5t52.5 25.5h59q307 0 649 200q96 56 186 113v5q-57 27 -105 53q-175 96 -339 96.5
t-279 -35.5v157q125 41 235 41zM691 1220h-185v181h185v-181zM691 940h-185v181h185v-181z" />
    <glyph glyph-name="uni0682.medi" unicode="&#x682;" horiz-adv-x="1197" 
d="M406 783q110 0 172 -14.5t115 -36t101 -46.5q190 -98 354 -100l-32 -200q-51 -13 -161 -78q2 -89 49.5 -122t192.5 -33v-167h-20q-261 0 -312 158q-15 46 -17 99q-193 -115 -318 -162q-253 -95 -480 -95h-50q-35 0 -52.5 26t-17.5 58t17.5 57.5t52.5 25.5h59
q307 0 649 200q96 56 186 113v5q-57 27 -105 53q-175 96 -339 96.5t-279 -35.5v157q125 41 235 41zM691 1220h-185v181h185v-181zM691 940h-185v181h185v-181z" />
    <glyph glyph-name="uni0682.fina" unicode="&#x682;" horiz-adv-x="1197" 
d="M402.5 852q106.5 0 161 -11t101 -27.5t88 -36t118.5 -47.5t197 -30l-32 -187q-68 -18 -128 -36q10 -187 75.5 -255.5t213.5 -68.5v-167h-24q-369 0 -391 449q-397 -143 -475 -344q-25 -63 -25 -131q0 -144 101.5 -231.5t299 -87.5t406.5 73v-154q-209 -73 -379 -73
q-305 0 -444.5 126t-139.5 324q0 353 440 565q102 50 237 92v8q-50 16 -88.5 32t-103.5 36t-193.5 20t-246.5 -36v157q125 41 231.5 41zM691 1341h-185v181h185v-181zM691 1061h-185v181h185v-181z" />
    <glyph glyph-name="uni0683" unicode="&#x683;" horiz-adv-x="1197" arabic-form="isolated" 
d="M402.5 852q106.5 0 161 -11t101 -27.5t88 -36t118.5 -47.5t197 -30l-32 -187q-604 -159 -718 -397q-36 -76 -36 -150q0 -150 101.5 -237.5t299 -87.5t406.5 73v-154q-209 -73 -379 -73q-305 0 -444.5 126t-139.5 324q0 353 440 565q102 50 237 92v8q-50 16 -88.5 32
t-103.5 36t-193.5 20t-246.5 -36v157q125 41 231.5 41zM966 -84h-185v181h185v-181zM644 -84h-185v181h185v-181z" />
    <glyph glyph-name="uni0684" unicode="&#x684;" horiz-adv-x="1197" arabic-form="isolated" 
d="M402.5 852q106.5 0 161 -11t101 -27.5t88 -36t118.5 -47.5t197 -30l-32 -187q-604 -159 -718 -397q-36 -76 -36 -150q0 -150 101.5 -237.5t299 -87.5t406.5 73v-154q-209 -73 -379 -73q-305 0 -444.5 126t-139.5 324q0 353 440 565q102 50 237 92v8q-50 16 -88.5 32
t-103.5 36t-193.5 20t-246.5 -36v157q125 41 231.5 41zM805 57h-185v181h185v-181zM805 -223h-185v181h185v-181z" />
    <glyph glyph-name="uni0685.init" unicode="&#x685;" horiz-adv-x="1197" 
d="M406 783q110 0 172 -14.5t115 -36t101 -46.5q190 -98 354 -100l-32 -200q-43 -10 -100.5 -43t-130.5 -77q-203 -124 -354 -184q-239 -96 -481 -96h-50q-35 0 -52.5 26t-17.5 58t17.5 57.5t52.5 25.5h59q307 0 649 200q96 56 186 113v5q-57 27 -105 53q-175 96 -339 96.5
t-279 -35.5v157q125 41 235 41zM691 1220h-185v181h185v-181zM852 940h-185v181h185v-181zM530 940h-185v181h185v-181z" />
    <glyph glyph-name="uni0685.medi" unicode="&#x685;" horiz-adv-x="1197" 
d="M406 783q110 0 172 -14.5t115 -36t101 -46.5q190 -98 354 -100l-32 -200q-51 -13 -161 -78q2 -89 49.5 -122t192.5 -33v-167h-20q-261 0 -312 158q-15 46 -17 99q-193 -115 -318 -162q-253 -95 -480 -95h-50q-35 0 -52.5 26t-17.5 58t17.5 57.5t52.5 25.5h59
q307 0 649 200q96 56 186 113v5q-57 27 -105 53q-175 96 -339 96.5t-279 -35.5v157q125 41 235 41zM691 1220h-185v181h185v-181zM852 940h-185v181h185v-181zM530 940h-185v181h185v-181z" />
    <glyph glyph-name="uni0685.fina" unicode="&#x685;" horiz-adv-x="1197" 
d="M402.5 852q106.5 0 161 -11t101 -27.5t88 -36t118.5 -47.5t197 -30l-32 -187q-68 -18 -128 -36q10 -187 75.5 -255.5t213.5 -68.5v-167h-24q-369 0 -391 449q-397 -143 -475 -344q-25 -63 -25 -131q0 -144 101.5 -231.5t299 -87.5t406.5 73v-154q-209 -73 -379 -73
q-305 0 -444.5 126t-139.5 324q0 353 440 565q102 50 237 92v8q-50 16 -88.5 32t-103.5 36t-193.5 20t-246.5 -36v157q125 41 231.5 41zM691 1341h-185v181h185v-181zM852 1061h-185v181h185v-181zM530 1061h-185v181h185v-181z" />
    <glyph glyph-name="uni0686" unicode="&#x686;" horiz-adv-x="1197" arabic-form="isolated" 
d="M823 -238h-181v179h181v-179zM984 32h-181v179h181v-179zM662 32h-181v179h181v-179zM402.5 852q106.5 0 161 -11t101 -27.5t88 -36t118.5 -47.5t197 -30l-32 -187q-604 -159 -718 -397q-36 -76 -36 -150q0 -150 101.5 -237.5t299 -87.5t406.5 73v-154q-209 -73 -379 -73
q-305 0 -444.5 126t-139.5 324q0 353 440 565q102 50 237 92v8q-50 16 -88.5 32t-103.5 36t-193.5 20t-246.5 -36v157q125 41 231.5 41z" />
    <glyph glyph-name="uni0687" unicode="&#x687;" horiz-adv-x="1197" arabic-form="isolated" 
d="M964 -228h-181v179h181v-179zM682 -228h-181v179h181v-179zM964 52h-181v179h181v-179zM682 52h-181v179h181v-179zM402.5 852q106.5 0 161 -11t101 -27.5t88 -36t118.5 -47.5t197 -30l-32 -187q-604 -159 -718 -397q-36 -76 -36 -150q0 -150 101.5 -237.5t299 -87.5
t406.5 73v-154q-209 -73 -379 -73q-305 0 -444.5 126t-139.5 324q0 353 440 565q102 50 237 92v8q-50 16 -88.5 32t-103.5 36t-193.5 20t-246.5 -36v157q125 41 231.5 41z" />
    <glyph glyph-name="uni0688" unicode="&#x688;" horiz-adv-x="1026" arabic-form="isolated" 
d="M621 189q63 42 63 127q0 144 -107 320q-73 121 -235 318h185q315 -351 315 -643q0 -333 -441 -333q-122 0 -287 22l-32 169q194 -22 335 -22t204 42zM461 1302q118 0 142 8q42 14 42 67.5t-32.5 81.5t-72.5 28q-71 0 -126 -52.5t-88 -132.5h135zM240 1807h89v-347l3 -1
q81 132 213 132q91 0 136.5 -63t45.5 -142.5t-19.5 -114.5t-60.5 -54.5t-143 -19.5q-290 0 -378 11l-13 103q21 -2 127 -7v503z" />
    <glyph glyph-name="uni0689.fina" unicode="&#x689;" horiz-adv-x="1026" 
d="M412 147q136 0 199.5 35.5t63.5 113.5q0 134 -109 466q-32 98 -68 192h166q94 -281 162 -580q20 -93 48 -135q58 -86 152 -86v-167h-22q-157 0 -212 149h-5q-65 -112 -232 -144q33 -42 33 -103.5t-47 -108.5t-114 -47t-113.5 47t-46.5 105.5t26 97.5q-89 6 -179 18
l-32 169q194 -22 330 -22zM428 -193q36 0 60.5 24.5t24.5 60.5t-24.5 61t-60.5 25t-61 -25t-25 -61t25 -60.5t61 -24.5z" />
    <glyph glyph-name="uni068A.fina" unicode="&#x68a;" horiz-adv-x="1026" 
d="M412 147q136 0 199.5 35.5t63.5 113.5q0 134 -109 466q-32 98 -68 192h166q94 -281 162 -580q20 -93 48 -135q58 -86 152 -86v-167h-22q-157 0 -212 149h-5q-91 -157 -386 -157q-122 0 -287 22l-32 169q194 -22 330 -22zM520 -346h-185v181h185v-181z" />
    <glyph glyph-name="uni068B.fina" unicode="&#x68b;" horiz-adv-x="1026" 
d="M412 147q136 0 199.5 35.5t63.5 113.5q0 134 -109 466q-32 98 -68 192h166q94 -281 162 -580q20 -93 48 -135q58 -86 152 -86v-167h-22q-157 0 -212 149h-5q-91 -157 -386 -157q-122 0 -287 22l-32 169q194 -22 330 -22zM634 1192h-185v181h185v-181zM520 -346h-185v181
h185v-181z" />
    <glyph glyph-name="uni068C" unicode="&#x68c;" horiz-adv-x="1026" arabic-form="isolated" 
d="M621 189q63 42 63 127q0 144 -107 320q-73 121 -235 318h185q315 -351 315 -643q0 -333 -441 -333q-122 0 -287 22l-32 169q194 -22 335 -22t204 42zM681 1192h-185v181h185v-181zM359 1192h-185v181h185v-181z" />
    <glyph glyph-name="uni068D" unicode="&#x68d;" horiz-adv-x="1026" arabic-form="isolated" 
d="M621 189q63 42 63 127q0 144 -107 320q-73 121 -235 318h185q315 -351 315 -643q0 -333 -441 -333q-122 0 -287 22l-32 169q194 -22 335 -22t204 42zM681 -346h-185v181h185v-181zM359 -346h-185v181h185v-181z" />
    <glyph glyph-name="uni068E" unicode="&#x68e;" horiz-adv-x="1026" arabic-form="isolated" 
d="M621 189q63 42 63 127q0 144 -107 320q-73 121 -235 318h185q315 -351 315 -643q0 -333 -441 -333q-122 0 -287 22l-32 169q194 -22 335 -22t204 42zM520 1472h-185v181h185v-181zM681 1192h-185v181h185v-181zM359 1192h-185v181h185v-181z" />
    <glyph glyph-name="uni068F.fina" unicode="&#x68f;" horiz-adv-x="1026" 
d="M412 147q136 0 199.5 35.5t63.5 113.5q0 134 -109 466q-32 98 -68 192h166q94 -281 162 -580q20 -93 48 -135q58 -86 152 -86v-167h-22q-157 0 -212 149h-5q-91 -157 -386 -157q-122 0 -287 22l-32 169q194 -22 330 -22zM634 1192h-185v181h185v-181zM795 1472h-185v181
h185v-181zM473 1472h-185v181h185v-181z" />
    <glyph glyph-name="uni0690.fina" unicode="&#x690;" horiz-adv-x="1026" 
d="M412 147q136 0 199.5 35.5t63.5 113.5q0 134 -109 466q-32 98 -68 192h166q94 -281 162 -580q20 -93 48 -135q58 -86 152 -86v-167h-22q-157 0 -212 149h-5q-91 -157 -386 -157q-122 0 -287 22l-32 169q194 -22 330 -22zM795 1472h-185v181h185v-181zM473 1472h-185v181
h185v-181zM795 1192h-185v181h185v-181zM473 1192h-185v181h185v-181z" />
    <glyph glyph-name="uni0691" unicode="&#x691;" horiz-adv-x="855" arabic-form="isolated" 
d="M561 606q109 -272 109 -589q0 -100 -34 -206t-94.5 -178t-144 -109t-184.5 -37t-213 45v165q124 -39 213 -39q300 0 300 401q0 223 -113 547h161zM444 960q118 0 142 8q42 14 42 67.5t-32 81.5q-34 28 -74 28q-71 0 -125.5 -52.5t-87.5 -132.5h135zM223 1465h89v-347
l3 -1q81 132 213 132q91 0 136.5 -63t45.5 -142.5t-19.5 -114.5t-60.5 -54.5t-143 -19.5q-290 0 -378 11l-13 103q21 -2 127 -7v503z" />
    <glyph glyph-name="uni0692.fina" unicode="&#x692;" horiz-adv-x="855" 
d="M513 59q0 223 -113 547h161q59 -151 87 -316q18 -107 118 -129q36 -8 89 -8v-167h-22q-110 0 -162 69l-5 -1q0 -273 -124 -420t-326 -147q-104 0 -216 45v165q124 -39 213 -39q300 0 300 401zM357 847l-236 352h125l171 -255l168 255h121l-230 -352h-119z" />
    <glyph glyph-name="uni0693.fina" unicode="&#x693;" horiz-adv-x="855" 
d="M513 59q0 223 -113 547h161q59 -151 87 -316q18 -107 118 -129q36 -8 89 -8v-167h-22q-110 0 -162 69l-5 -1q0 -141 -34 -248q13 2 26 2q65 0 112 -46.5t47 -113.5t-47 -114t-114 -47t-103.5 37t-48.5 70q-115 -107 -288 -107q-104 0 -216 45v165q124 -39 213 -39
q300 0 300 401zM657 -438q36 0 60.5 24.5t24.5 60.5t-24.5 61t-60.5 25t-61 -25t-25 -61t25 -60.5t61 -24.5z" />
    <glyph glyph-name="uni0694.fina" unicode="&#x694;" horiz-adv-x="855" 
d="M513 59q0 223 -113 547h161q59 -151 87 -316q18 -107 118 -129q36 -8 89 -8v-167h-22q-110 0 -162 69l-5 -1q0 -273 -124 -420t-326 -147q-104 0 -216 45v165q124 -39 213 -39q300 0 300 401zM847 -517h-185v181h185v-181z" />
    <glyph glyph-name="uni0695.fina" unicode="&#x695;" horiz-adv-x="855" 
d="M513 59q0 223 -113 547h161q59 -151 87 -316q18 -107 118 -129q36 -8 89 -8v-167h-22q-110 0 -162 69l-5 -1q0 -150 -40 -264l158 -236l168 255h121l-230 -352h-119l-150 223q-120 -193 -358 -193q-104 0 -216 45v165q124 -39 213 -39q300 0 300 401z" />
    <glyph glyph-name="uni0696.fina" unicode="&#x696;" horiz-adv-x="855" 
d="M513 59q0 223 -113 547h161q59 -151 87 -316q18 -107 118 -129q36 -8 89 -8v-167h-22q-110 0 -162 69l-5 -1q0 -273 -124 -420t-326 -147q-104 0 -216 45v165q124 -39 213 -39q300 0 300 401zM847 -517h-185v181h185v-181zM503 850h-185v181h185v-181z" />
    <glyph glyph-name="uni0697.fina" unicode="&#x697;" horiz-adv-x="855" 
d="M513 59q0 223 -113 547h161q59 -151 87 -316q18 -107 118 -129q36 -8 89 -8v-167h-22q-110 0 -162 69l-5 -1q0 -273 -124 -420t-326 -147q-104 0 -216 45v165q124 -39 213 -39q300 0 300 401zM664 850h-185v181h185v-181zM342 850h-185v181h185v-181z" />
    <glyph glyph-name="uni0698" unicode="&#x698;" horiz-adv-x="855" arabic-form="isolated" 
d="M561 606q109 -272 109 -589q0 -100 -34 -206t-94.5 -178t-144 -109t-184.5 -37t-213 45v165q124 -39 213 -39q300 0 300 401q0 223 -113 547h161zM503 1130h-185v181h185v-181zM664 850h-185v181h185v-181zM342 850h-185v181h185v-181z" />
    <glyph glyph-name="uni0699.fina" unicode="&#x699;" horiz-adv-x="855" 
d="M513 59q0 223 -113 547h161q59 -151 87 -316q18 -107 118 -129q36 -8 89 -8v-167h-22q-110 0 -162 69l-5 -1q0 -273 -124 -420t-326 -147q-104 0 -216 45v165q124 -39 213 -39q300 0 300 401zM664 1130h-185v181h185v-181zM342 1130h-185v181h185v-181zM664 850h-185v181
h185v-181zM342 850h-185v181h185v-181z" />
    <glyph glyph-name="uni069A.init" unicode="&#x69a;" horiz-adv-x="1710" 
d="M670 153q185 0 185 186v267h156v-198q0 -146 25 -185.5t61 -54.5t86 -15q98 0 141.5 40t43.5 146v444h156v-457q0 -196 -104 -278q-78 -62 -228 -62q-196 0 -259 123h-4q-91 -123 -273 -123t-244 123h-4q-91 -123 -265 -123h-143q-35 0 -52.5 26t-17.5 58t17.5 57.5
t52.5 25.5h153q121 -1 171 97q18 36 18 89v267h156v-201q0 -141 23.5 -181.5t57.5 -55.5t91 -15zM1025 850h-185v181h185v-181zM1025 -346h-185v181h185v-181z" />
    <glyph glyph-name="uni069A.medi" unicode="&#x69a;" horiz-adv-x="1710" 
d="M670 153q185 0 185 186v267h156v-198q0 -146 25 -185.5t61 -54.5t86 -15q98 0 141.5 40t43.5 146v444h156v-369q0 -145 25.5 -187.5t62 -58t98.5 -15.5v-167h-22q-176 0 -236 111h-6q-77 -111 -263.5 -111t-249.5 123h-4q-91 -123 -273 -123t-244 123h-4
q-91 -123 -265 -123h-143q-35 0 -52.5 26t-17.5 58t17.5 57.5t52.5 25.5h153q121 -1 171 97q18 36 18 89v267h156v-201q0 -141 23.5 -181.5t57.5 -55.5t91 -15zM1025 850h-185v181h185v-181zM1025 -346h-185v181h185v-181z" />
    <glyph glyph-name="uni069A.fina" unicode="&#x69a;" horiz-adv-x="2394" 
d="M1365 153q174 0 174 186v267h156v-198q0 -146 25 -185.5t61 -54.5t86 -15q98 0 141.5 40t43.5 146v444h156v-369q0 -145 25.5 -187.5t62 -58t98.5 -15.5v-167h-22q-176 0 -236 111h-6q-77 -111 -263.5 -111t-249.5 123h-4q-88 -123 -257 -123q-118 0 -173 70l-5 -1
q-6 -277 -133 -422.5t-408 -145.5q-385 -1 -459 287q-24 92 -23.5 207.5t29.5 277.5h151q-23 -157 -23 -255q0 -194 75 -271t271 -77t284.5 105t88.5 362q0 135 -34 390h155q15 -116 25 -231q6 -66 50 -97.5t138 -31.5zM1709 850h-185v181h185v-181zM1709 -346h-185v181h185
v-181z" />
    <glyph glyph-name="uni069B.init" unicode="&#x69b;" horiz-adv-x="1710" 
d="M670 153q185 0 185 186v267h156v-198q0 -146 25 -185.5t61 -54.5t86 -15q98 0 141.5 40t43.5 146v444h156v-457q0 -196 -104 -278q-78 -62 -228 -62q-196 0 -259 123h-4q-91 -123 -273 -123t-244 123h-4q-91 -123 -265 -123h-143q-35 0 -52.5 26t-17.5 58t17.5 57.5
t52.5 25.5h153q121 -1 171 97q18 36 18 89v267h156v-201q0 -141 23.5 -181.5t57.5 -55.5t91 -15zM1025 -567h-185v181h185v-181zM1186 -287h-185v181h185v-181zM864 -287h-185v181h185v-181z" />
    <glyph glyph-name="uni069B.medi" unicode="&#x69b;" horiz-adv-x="1710" 
d="M670 153q185 0 185 186v267h156v-198q0 -146 25 -185.5t61 -54.5t86 -15q98 0 141.5 40t43.5 146v444h156v-369q0 -145 25.5 -187.5t62 -58t98.5 -15.5v-167h-22q-176 0 -236 111h-6q-77 -111 -263.5 -111t-249.5 123h-4q-91 -123 -273 -123t-244 123h-4
q-91 -123 -265 -123h-143q-35 0 -52.5 26t-17.5 58t17.5 57.5t52.5 25.5h153q121 -1 171 97q18 36 18 89v267h156v-201q0 -141 23.5 -181.5t57.5 -55.5t91 -15zM1025 -567h-185v181h185v-181zM1186 -287h-185v181h185v-181zM864 -287h-185v181h185v-181z" />
    <glyph glyph-name="uni069B.fina" unicode="&#x69b;" horiz-adv-x="2394" 
d="M1365 153q174 0 174 186v267h156v-198q0 -146 25 -185.5t61 -54.5t86 -15q98 0 141.5 40t43.5 146v444h156v-369q0 -145 25.5 -187.5t62 -58t98.5 -15.5v-167h-22q-176 0 -236 111h-6q-77 -111 -263.5 -111t-249.5 123h-4q-88 -123 -257 -123q-118 0 -173 70l-5 -1
q-6 -277 -133 -422.5t-408 -145.5q-385 -1 -459 287q-24 92 -23.5 207.5t29.5 277.5h151q-23 -157 -23 -255q0 -194 75 -271t271 -77t284.5 105t88.5 362q0 135 -34 390h155q15 -116 25 -231q6 -66 50 -97.5t138 -31.5zM1709 -567h-185v181h185v-181zM1870 -287h-185v181
h185v-181zM1548 -287h-185v181h185v-181z" />
    <glyph glyph-name="uni069C.init" unicode="&#x69c;" horiz-adv-x="1710" 
d="M670 153q185 0 185 186v267h156v-198q0 -146 25 -185.5t61 -54.5t86 -15q98 0 141.5 40t43.5 146v444h156v-457q0 -196 -104 -278q-78 -62 -228 -62q-196 0 -259 123h-4q-91 -123 -273 -123t-244 123h-4q-91 -123 -265 -123h-143q-35 0 -52.5 26t-17.5 58t17.5 57.5
t52.5 25.5h153q121 -1 171 97q18 36 18 89v267h156v-201q0 -141 23.5 -181.5t57.5 -55.5t91 -15zM1025 -567h-185v181h185v-181zM1186 -287h-185v181h185v-181zM864 -287h-185v181h185v-181zM1025 1130h-185v181h185v-181zM1186 850h-185v181h185v-181zM864 850h-185v181
h185v-181z" />
    <glyph glyph-name="uni069C.medi" unicode="&#x69c;" horiz-adv-x="1710" 
d="M670 153q185 0 185 186v267h156v-198q0 -146 25 -185.5t61 -54.5t86 -15q98 0 141.5 40t43.5 146v444h156v-369q0 -145 25.5 -187.5t62 -58t98.5 -15.5v-167h-22q-176 0 -236 111h-6q-77 -111 -263.5 -111t-249.5 123h-4q-91 -123 -273 -123t-244 123h-4
q-91 -123 -265 -123h-143q-35 0 -52.5 26t-17.5 58t17.5 57.5t52.5 25.5h153q121 -1 171 97q18 36 18 89v267h156v-201q0 -141 23.5 -181.5t57.5 -55.5t91 -15zM1025 -567h-185v181h185v-181zM1186 -287h-185v181h185v-181zM864 -287h-185v181h185v-181zM1025 1130h-185v181
h185v-181zM1186 850h-185v181h185v-181zM864 850h-185v181h185v-181z" />
    <glyph glyph-name="uni069C.fina" unicode="&#x69c;" horiz-adv-x="2394" 
d="M1365 153q174 0 174 186v267h156v-198q0 -146 25 -185.5t61 -54.5t86 -15q98 0 141.5 40t43.5 146v444h156v-369q0 -145 25.5 -187.5t62 -58t98.5 -15.5v-167h-22q-176 0 -236 111h-6q-77 -111 -263.5 -111t-249.5 123h-4q-88 -123 -257 -123q-118 0 -173 70l-5 -1
q-6 -277 -133 -422.5t-408 -145.5q-385 -1 -459 287q-24 92 -23.5 207.5t29.5 277.5h151q-23 -157 -23 -255q0 -194 75 -271t271 -77t284.5 105t88.5 362q0 135 -34 390h155q15 -116 25 -231q6 -66 50 -97.5t138 -31.5zM1709 -567h-185v181h185v-181zM1870 -287h-185v181
h185v-181zM1548 -287h-185v181h185v-181zM1699 1130h-185v181h185v-181zM1860 850h-185v181h185v-181zM1538 850h-185v181h185v-181z" />
    <glyph glyph-name="uni069D.init" unicode="&#x69d;" horiz-adv-x="2052" 
d="M1156 147q228 0 309 5q81 4 135 24q110 39 110 168q0 315 -330 315q-203 0 -361.5 -153.5t-228.5 -355.5q138 -3 366 -3zM334 324.5q0 57.5 -28 188.5h154q11 -63 17.5 -120t12.5 -97q10 -70 42 -103.5t107 -37.5q89 241 267 433q222 240 510 240q219 0 335 -132.5
t116 -337.5q1 -254 -183 -330q-102 -42 -224 -46q-124 -4 -254 -4q-357 0 -500 5t-185.5 23.5t-65.5 43t-43 59.5h-4q-91 -123 -265 -123h-143q-35 0 -52.5 26t-17.5 58t17.5 57.5t52.5 25.5h153q75 -1 129 43q24 20 38 45.5t14 83zM1412 -346h-185v181h185v-181zM1090 -346
h-185v181h185v-181z" />
    <glyph glyph-name="uni069D.medi" unicode="&#x69d;" horiz-adv-x="2052" 
d="M1156 147q228 0 309 5q81 4 135 24q110 39 110 168q0 315 -330 315q-203 0 -361.5 -153.5t-228.5 -355.5q138 -3 366 -3zM334 324.5q0 57.5 -28 188.5h154q11 -63 17.5 -120t12.5 -97q10 -70 42 -103.5t107 -37.5q89 241 267 433q222 240 510 240q217 0 332 -128.5
t119 -324.5q2 -121 40.5 -171.5t144.5 -50.5v-167h-22q-94 0 -152 29t-89 98h-6q-93 -122 -365 -132q-78 -3 -210 -3q-358 0 -501.5 5t-186 23.5t-65.5 43t-43 59.5h-4q-91 -123 -265 -123h-143q-35 0 -52.5 26t-17.5 58t17.5 57.5t52.5 25.5h153q75 -1 129 43
q24 20 38 45.5t14 83zM1412 -346h-185v181h185v-181zM1090 -346h-185v181h185v-181z" />
    <glyph glyph-name="uni069D.fina" unicode="&#x69d;" horiz-adv-x="2736" 
d="M1840 147q228 0 309 5q81 4 135 24q110 39 110 168q0 315 -330 315q-269 -1 -465 -271q-80 -111 -125 -238q138 -3 366 -3zM1031 155.5q0 161.5 -41 357.5h154q11 -63 17.5 -120t12.5 -97q10 -70 42 -103.5t107 -37.5q89 241 267 433q222 240 510 240q217 0 332 -128.5
t119 -324.5q2 -121 40.5 -171.5t144.5 -50.5v-167h-22q-94 0 -152 29t-89 98h-6q-93 -122 -365 -132q-78 -3 -202 -3q-563 0 -621 17t-96 61l-5 -1q-6 -277 -133.5 -422.5t-412.5 -145.5q-380 -1 -454 287q-24 92 -23.5 207.5t29.5 277.5h151q-23 -157 -23 -255
q0 -194 75 -271t271 -77t284 104q46 55 67.5 144.5t21.5 251zM2106 -346h-185v181h185v-181zM1784 -346h-185v181h185v-181z" />
    <glyph glyph-name="uni069E.init" unicode="&#x69e;" horiz-adv-x="2052" 
d="M1156 147q228 0 309 5q81 4 135 24q110 39 110 168q0 315 -330 315q-203 0 -361.5 -153.5t-228.5 -355.5q138 -3 366 -3zM334 324.5q0 57.5 -28 188.5h154q11 -63 17.5 -120t12.5 -97q10 -70 42 -103.5t107 -37.5q89 241 267 433q222 240 510 240q219 0 335 -132.5
t116 -337.5q1 -254 -183 -330q-102 -42 -224 -46q-124 -4 -254 -4q-357 0 -500 5t-185.5 23.5t-65.5 43t-43 59.5h-4q-91 -123 -265 -123h-143q-35 0 -52.5 26t-17.5 58t17.5 57.5t52.5 25.5h153q75 -1 129 43q24 20 38 45.5t14 83zM1147 1301h-185v181h185v-181zM1308 1021
h-185v181h185v-181zM986 1021h-185v181h185v-181z" />
    <glyph glyph-name="uni069E.medi" unicode="&#x69e;" horiz-adv-x="2052" 
d="M1156 147q228 0 309 5q81 4 135 24q110 39 110 168q0 315 -330 315q-203 0 -361.5 -153.5t-228.5 -355.5q138 -3 366 -3zM334 324.5q0 57.5 -28 188.5h154q11 -63 17.5 -120t12.5 -97q10 -70 42 -103.5t107 -37.5q89 241 267 433q222 240 510 240q217 0 332 -128.5
t119 -324.5q2 -121 40.5 -171.5t144.5 -50.5v-167h-22q-94 0 -152 29t-89 98h-6q-93 -122 -365 -132q-78 -3 -210 -3q-358 0 -501.5 5t-186 23.5t-65.5 43t-43 59.5h-4q-91 -123 -265 -123h-143q-35 0 -52.5 26t-17.5 58t17.5 57.5t52.5 25.5h153q75 -1 129 43
q24 20 38 45.5t14 83zM1147 1301h-185v181h185v-181zM1308 1021h-185v181h185v-181zM986 1021h-185v181h185v-181z" />
    <glyph glyph-name="uni069E.fina" unicode="&#x69e;" horiz-adv-x="2736" 
d="M1840 147q228 0 309 5q81 4 135 24q110 39 110 168q0 315 -330 315q-269 -1 -465 -271q-80 -111 -125 -238q138 -3 366 -3zM1031 155.5q0 161.5 -41 357.5h154q11 -63 17.5 -120t12.5 -97q10 -70 42 -103.5t107 -37.5q89 241 267 433q222 240 510 240q217 0 332 -128.5
t119 -324.5q2 -121 40.5 -171.5t144.5 -50.5v-167h-22q-94 0 -152 29t-89 98h-6q-93 -122 -365 -132q-78 -3 -202 -3q-563 0 -621 17t-96 61l-5 -1q-6 -277 -133.5 -422.5t-412.5 -145.5q-380 -1 -454 287q-24 92 -23.5 207.5t29.5 277.5h151q-23 -157 -23 -255
q0 -194 75 -271t271 -77t284 104q46 55 67.5 144.5t21.5 251zM1831 1301h-185v181h185v-181zM1992 1021h-185v181h185v-181zM1670 1021h-185v181h185v-181z" />
    <glyph glyph-name="uni069F.init" unicode="&#x69f;" horiz-adv-x="1710" 
d="M816 147q226 0 307 5q81 4 135 24q110 39 110 168q0 177 -89 260t-241 83q-264 1 -461 -285q-78 -113 -124 -252q137 -3 363 -3zM341 1516h158v-995l3 -1q159 230 390 308q82 28 187.5 28t192.5 -39.5t143 -107.5q110 -134 110 -351q-1 -254 -183 -328
q-105 -43 -225.5 -46t-202.5 -3l-845 5h-69q-35 0 -52.5 26t-17.5 58t17.5 57.5t52.5 25.5h302q7 21 39 96v1267zM1090 1301h-185v181h185v-181zM1251 1021h-185v181h185v-181zM929 1021h-185v181h185v-181z" />
    <glyph glyph-name="uni069F.medi" unicode="&#x69f;" horiz-adv-x="1710" 
d="M816 147q226 0 307 5q81 4 135 24q110 39 110 168q0 177 -89 260t-241 83q-264 1 -461 -285q-78 -113 -124 -252q137 -3 363 -3zM341 1516h158v-995l3 -1q159 230 390 308q82 28 187 28t191 -39t142 -105q109 -128 113 -337q2 -121 40.5 -171.5t144.5 -50.5v-167h-22
q-94 0 -152 30t-89 97h-6q-97 -121 -365 -129q-78 -2 -162 -3l-845 5h-69q-35 0 -52.5 26t-17.5 58t17.5 57.5t52.5 25.5h302q7 21 39 96v1267zM1090 1301h-185v181h185v-181zM1251 1021h-185v181h185v-181zM929 1021h-185v181h185v-181z" />
    <glyph glyph-name="uni069F.fina" unicode="&#x69f;" horiz-adv-x="1710" 
d="M816.5 147q225.5 0 306.5 5q81 4 135 24q110 39 110 168q0 177 -89 260t-241 83q-264 1 -461 -285q-78 -113 -124 -252q138 -3 363.5 -3zM341 1516h158v-995l3 -1q159 230 390 308q82 28 187 28t191 -39t142 -105q109 -128 113 -337q2 -121 40.5 -171.5t144.5 -50.5v-167
h-22q-94 0 -152 29t-89 98h-6q-93 -122 -365 -132q-78 -3 -212 -3q-558 0 -807 24l-32 167q89 -12 278 -14q11 30 38 94v1267zM1090 1301h-185v181h185v-181zM1251 1021h-185v181h185v-181zM929 1021h-185v181h185v-181z" />
    <glyph glyph-name="uni06A0.init" unicode="&#x6a0;" horiz-adv-x="1198" 
d="M655 738q-328 0 -328 -232q0 -172 239 -327q249 49 517 175l1 -183q-328 -151 -632 -177q-98 -8 -202 -8h-250q-35 0 -52.5 26t-17.5 58t17.5 57.5t52.5 25.5h369l1 6q-199 164 -199 356q0 164 138 278q138 113 368 113q86 0 177 -17v-170q-109 19 -199 19zM634 1351
h-185v181h185v-181zM795 1071h-185v181h185v-181zM473 1071h-185v181h185v-181z" />
    <glyph glyph-name="uni06A0.medi" unicode="&#x6a0;" horiz-adv-x="1197" 
d="M855 612q0 93 -224 93q-97 0 -307 -23v-11q142 -219 341 -355q140 110 180 243q10 33 10 53zM652 862q360 0 360 -203q0 -141 -119 -309q-41 -58 -98 -112q184 -85 402 -85v-167h-62q-257 0 -483 143q-230 -143 -549 -143h-103q-35 0 -52.5 26t-17.5 58t17.5 57.5
t52.5 25.5h113q232 0 406 77q-198 164 -348 408v173q328 51 481 51zM691 1301h-185v181h185v-181zM852 1021h-185v181h185v-181zM530 1021h-185v181h185v-181z" />
    <glyph glyph-name="uni06A0.fina" unicode="&#x6a0;" horiz-adv-x="1197" 
d="M632 760q-98 0 -308 -23v-13q113 -176 248 -305q150 67 216.5 138t66.5 115q0 88 -223 88zM1197 153v-167h-62q-321 0 -606 263q-272 -113 -272 -295q0 -217 224 -288q79 -25 192 -25q187 0 396 73v-154q-209 -73 -381 -73q-306 0 -446.5 126t-140.5 315.5t163 323.5
q63 52 161 102q-89 95 -160.5 202t-93.5 145v165q328 51 482 51q359 0 359 -196q0 -151 -163 -293q-64 -56 -166 -104q234 -171 493 -171h21zM691 1421h-185v181h185v-181zM852 1141h-185v181h185v-181zM530 1141h-185v181h185v-181z" />
    <glyph glyph-name="uni06A1.init" unicode="&#x6a1;" horiz-adv-x="1026" 
d="M622 204q62 45 62 151q0 105 -64 221q-64 117 -138 117q-56 0 -106 -67q-49 -67 -49 -141q0 -73 64 -138q63 -65 231 -143zM200 153q111 0 219 -2l2 7q-203 82 -237 218q-10 42 -10 97.5t24 126t66 130.5q98 136 233 136t239 -172q105 -172 105 -325q-1 -257 -219 -335
q-116 -42 -238 -45t-193 -3h-191q-35 0 -52.5 26t-17.5 58t17.5 57.5t52.5 25.5h200z" />
    <glyph glyph-name="uni06A1.medi" unicode="&#x6a1;" horiz-adv-x="1026" 
d="M626 202q58 42 58 150t-64 224q-64 117 -130 117t-114 -68q-49 -68 -49 -144q0 -103 150 -199q58 -37 149 -80zM200 153q111 0 219 -2l2 7q-203 82 -237 218q-10 42 -10 97.5t24 126t66 130.5q98 136 227 136q165 0 285 -239q64 -129 64.5 -256t-51.5 -206
q75 -12 237 -12v-167h-22q-215 0 -366 58q-121 -53 -337 -57q-58 -1 -110 -1h-191q-35 0 -52.5 26t-17.5 58t17.5 57.5t52.5 25.5h200z" />
    <glyph glyph-name="uni06A1.fina" unicode="&#x6a1;" horiz-adv-x="2052" 
d="M1648 204q62 43 62 149.5t-64 223t-130 116.5t-114.5 -68t-48.5 -144q-1 -102 147 -197q58 -37 148 -80zM328 416q0 -147 73 -197.5t214 -61t436.5 -10.5t393.5 5l2 6q-203 82 -237 218q-10 42 -10 97.5t24 126t66 130.5q98 136 227 136q165 0 285 -239
q64 -129 64.5 -255t-51.5 -207q75 -12 237 -12v-167h-22q-214 0 -365 58q-126 -58 -369 -64q-69 -2 -138 -2h-185q-308 0 -413 13q-192 24 -266.5 87.5t-98.5 140t-24 165.5t29 223h154q-26 -124 -26 -191z" />
    <glyph glyph-name="uni06A2.init" unicode="&#x6a2;" horiz-adv-x="1026" 
d="M622 204q62 45 62 151q0 105 -64 221q-64 117 -138 117q-56 0 -106 -67q-49 -67 -49 -141q0 -73 64 -138q63 -65 231 -143zM200 153q111 0 219 -2l2 7q-203 82 -237 218q-10 42 -10 97.5t24 126t66 130.5q98 136 233 136t239 -172q105 -172 105 -325q-1 -257 -219 -335
q-116 -42 -238 -45t-193 -3h-191q-35 0 -52.5 26t-17.5 58t17.5 57.5t52.5 25.5h200zM619 -346h-185v181h185v-181z" />
    <glyph glyph-name="uni06A2.medi" unicode="&#x6a2;" horiz-adv-x="1026" 
d="M626 202q58 42 58 150t-64 224q-64 117 -130 117t-114 -68q-49 -68 -49 -144q0 -103 150 -199q58 -37 149 -80zM200 153q111 0 219 -2l2 7q-203 82 -237 218q-10 42 -10 97.5t24 126t66 130.5q98 136 227 136q165 0 285 -239q64 -129 64.5 -256t-51.5 -206
q75 -12 237 -12v-167h-22q-215 0 -366 58q-121 -53 -337 -57q-58 -1 -110 -1h-191q-35 0 -52.5 26t-17.5 58t17.5 57.5t52.5 25.5h200zM619 -346h-185v181h185v-181z" />
    <glyph glyph-name="uni06A2.fina" unicode="&#x6a2;" horiz-adv-x="2052" 
d="M1648 204q62 43 62 149.5t-64 223t-130 116.5t-114.5 -68t-48.5 -144q-1 -102 147 -197q58 -37 148 -80zM328 416q0 -147 73 -197.5t214 -61t436.5 -10.5t393.5 5l2 6q-203 82 -237 218q-10 42 -10 97.5t24 126t66 130.5q98 136 227 136q165 0 285 -239
q64 -129 64.5 -255t-51.5 -207q75 -12 237 -12v-167h-22q-214 0 -365 58q-126 -58 -369 -64q-69 -2 -138 -2h-185q-308 0 -413 13q-192 24 -266.5 87.5t-98.5 140t-24 165.5t29 223h154q-26 -124 -26 -191zM1645 -346h-185v181h185v-181z" />
    <glyph glyph-name="uni06A3.init" unicode="&#x6a3;" horiz-adv-x="1026" 
d="M622 204q62 45 62 151q0 105 -64 221q-64 117 -138 117q-56 0 -106 -67q-49 -67 -49 -141q0 -73 64 -138q63 -65 231 -143zM200 153q111 0 219 -2l2 7q-203 82 -237 218q-10 42 -10 97.5t24 126t66 130.5q98 136 233 136t239 -172q105 -172 105 -325q-1 -257 -219 -335
q-116 -42 -238 -45t-193 -3h-191q-35 0 -52.5 26t-17.5 58t17.5 57.5t52.5 25.5h200zM619 -346h-185v181h185v-181zM562 1135h-185v181h185v-181z" />
    <glyph glyph-name="uni06A3.medi" unicode="&#x6a3;" horiz-adv-x="1026" 
d="M626 202q58 42 58 150t-64 224q-64 117 -130 117t-114 -68q-49 -68 -49 -144q0 -103 150 -199q58 -37 149 -80zM200 153q111 0 219 -2l2 7q-203 82 -237 218q-10 42 -10 97.5t24 126t66 130.5q98 136 227 136q165 0 285 -239q64 -129 64.5 -256t-51.5 -206
q75 -12 237 -12v-167h-22q-215 0 -366 58q-121 -53 -337 -57q-58 -1 -110 -1h-191q-35 0 -52.5 26t-17.5 58t17.5 57.5t52.5 25.5h200zM619 -346h-185v181h185v-181zM562 1135h-185v181h185v-181z" />
    <glyph glyph-name="uni06A3.fina" unicode="&#x6a3;" horiz-adv-x="2052" 
d="M1648 204q62 43 62 149.5t-64 223t-130 116.5t-114.5 -68t-48.5 -144q-1 -102 147 -197q58 -37 148 -80zM328 416q0 -147 73 -197.5t214 -61t436.5 -10.5t393.5 5l2 6q-203 82 -237 218q-10 42 -10 97.5t24 126t66 130.5q98 136 227 136q165 0 285 -239
q64 -129 64.5 -255t-51.5 -207q75 -12 237 -12v-167h-22q-214 0 -365 58q-126 -58 -369 -64q-69 -2 -138 -2h-185q-308 0 -413 13q-192 24 -266.5 87.5t-98.5 140t-24 165.5t29 223h154q-26 -124 -26 -191zM1588 1135h-185v181h185v-181zM1091 -346h-185v181h185v-181z" />
    <glyph glyph-name="uni06A4" unicode="&#x6a4;" horiz-adv-x="2052" arabic-form="isolated" 
d="M1648 204q62 45 62 150.5t-64 222t-138 116.5q-57 0 -106 -66.5t-49 -145.5q-1 -105 147 -199q58 -36 148 -78zM328 416q0 -147 73 -197.5t214 -61t436.5 -10.5t393.5 5l2 6q-203 82 -237 218q-10 42 -10 97.5t24 126t66 130.5q98 136 227 136q165 0 285 -239
q64 -129 64.5 -241.5t-28.5 -178.5q-29 -65 -79 -109q-89 -78 -265 -104q-113 -17 -336 -16h-185q-308 0 -413 13q-192 24 -266.5 87.5t-98.5 140t-24 165.5t29 223h154q-26 -124 -26 -191zM1588 1415h-185v181h185v-181zM1749 1135h-185v181h185v-181zM1427 1135h-185v181
h185v-181z" />
    <glyph glyph-name="uni06A5.init" unicode="&#x6a5;" horiz-adv-x="1026" 
d="M622 204q62 45 62 151q0 105 -64 221q-64 117 -138 117q-56 0 -106 -67q-49 -67 -49 -141q0 -73 64 -138q63 -65 231 -143zM200 153q111 0 219 -2l2 7q-203 82 -237 218q-10 42 -10 97.5t24 126t66 130.5q98 136 233 136t239 -172q105 -172 105 -325q-1 -257 -219 -335
q-116 -42 -238 -45t-193 -3h-191q-35 0 -52.5 26t-17.5 58t17.5 57.5t52.5 25.5h200zM619 -567h-185v181h185v-181zM780 -287h-185v181h185v-181zM458 -287h-185v181h185v-181z" />
    <glyph glyph-name="uni06A5.medi" unicode="&#x6a5;" horiz-adv-x="1026" 
d="M626 202q58 42 58 150t-64 224q-64 117 -130 117t-114 -68q-49 -68 -49 -144q0 -103 150 -199q58 -37 149 -80zM200 153q111 0 219 -2l2 7q-203 82 -237 218q-10 42 -10 97.5t24 126t66 130.5q98 136 227 136q165 0 285 -239q64 -129 64.5 -256t-51.5 -206
q75 -12 237 -12v-167h-22q-215 0 -366 58q-121 -53 -337 -57q-58 -1 -110 -1h-191q-35 0 -52.5 26t-17.5 58t17.5 57.5t52.5 25.5h200zM619 -567h-185v181h185v-181zM780 -287h-185v181h185v-181zM458 -287h-185v181h185v-181z" />
    <glyph glyph-name="uni06A5.fina" unicode="&#x6a5;" horiz-adv-x="2052" 
d="M1648 204q62 43 62 149.5t-64 223t-130 116.5t-114.5 -68t-48.5 -144q-1 -102 147 -197q58 -37 148 -80zM328 416q0 -147 73 -197.5t214 -61t436.5 -10.5t393.5 5l2 6q-203 82 -237 218q-10 42 -10 97.5t24 126t66 130.5q98 136 227 136q165 0 285 -239
q64 -129 64.5 -255t-51.5 -207q75 -12 237 -12v-167h-22q-214 0 -365 58q-126 -58 -369 -64q-69 -2 -138 -2h-185q-308 0 -413 13q-192 24 -266.5 87.5t-98.5 140t-24 165.5t29 223h154q-26 -124 -26 -191zM1645 -567h-185v181h185v-181zM1806 -287h-185v181h185v-181z
M1484 -287h-185v181h185v-181z" />
    <glyph glyph-name="uni06A6" unicode="&#x6a6;" horiz-adv-x="2052" arabic-form="isolated" 
d="M1648 204q62 45 62 150.5t-64 222t-138 116.5q-57 0 -106 -66.5t-49 -145.5q-1 -105 147 -199q58 -36 148 -78zM328 416q0 -147 73 -197.5t214 -61t436.5 -10.5t393.5 5l2 6q-203 82 -237 218q-10 42 -10 97.5t24 126t66 130.5q98 136 227 136q165 0 285 -239
q64 -129 64.5 -241.5t-28.5 -178.5q-29 -65 -79 -109q-89 -78 -265 -104q-113 -17 -336 -16h-185q-308 0 -413 13q-192 24 -266.5 87.5t-98.5 140t-24 165.5t29 223h154q-26 -124 -26 -191zM1749 1415h-185v181h185v-181zM1427 1415h-185v181h185v-181zM1749 1135h-185v181
h185v-181zM1427 1135h-185v181h185v-181z" />
    <glyph glyph-name="uni06A7.init" unicode="&#x6a7;" horiz-adv-x="1026" 
d="M622 204q62 45 62 151q0 105 -64 221q-64 117 -138 117q-56 0 -106 -67q-49 -67 -49 -141q0 -73 64 -138q63 -65 231 -143zM200 153q111 0 219 -2l2 7q-203 82 -237 218q-10 42 -10 97.5t24 126t66 130.5q98 136 233 136t239 -172q105 -172 105 -325q-1 -257 -219 -335
q-116 -42 -238 -45t-193 -3h-191q-35 0 -52.5 26t-17.5 58t17.5 57.5t52.5 25.5h200zM562 1135h-185v181h185v-181z" />
    <glyph glyph-name="uni06A7.medi" unicode="&#x6a7;" horiz-adv-x="1026" 
d="M626 202q58 42 58 150t-64 224q-64 117 -130 117t-114 -68q-49 -68 -49 -144q0 -103 150 -199q58 -37 149 -80zM200 153q111 0 219 -2l2 7q-203 82 -237 218q-10 42 -10 97.5t24 126t66 130.5q98 136 227 136q165 0 285 -239q64 -129 64.5 -256t-51.5 -206
q75 -12 237 -12v-167h-22q-215 0 -366 58q-121 -53 -337 -57q-58 -1 -110 -1h-191q-35 0 -52.5 26t-17.5 58t17.5 57.5t52.5 25.5h200zM562 1135h-185v181h185v-181z" />
    <glyph glyph-name="uni06A7.fina" unicode="&#x6a7;" horiz-adv-x="1539" 
d="M838 310q0 -157 258 -157h101q-19 185 -103 301q-49 68 -103.5 68t-103.5 -66.5t-49 -145.5zM312 6q0 -192 94 -271t336 -79q333 0 416 168q30 61 37 162h-117q-282 0 -366 177q-27 57 -27 126q0 143 94 274.5t227.5 131.5t231.5 -156t113 -386h188v-167h-187
q-22 -256 -173 -377.5t-450 -121.5q-455 1 -545 281q-30 92 -29.5 210.5t29.5 280.5h151q-23 -157 -23 -253zM1073 964h-185v181h185v-181z" />
    <glyph glyph-name="uni06A8.init" unicode="&#x6a8;" horiz-adv-x="1026" 
d="M622 204q62 45 62 151q0 105 -64 221q-64 117 -138 117q-56 0 -106 -67q-49 -67 -49 -141q0 -73 64 -138q63 -65 231 -143zM200 153q111 0 219 -2l2 7q-203 82 -237 218q-10 42 -10 97.5t24 126t66 130.5q98 136 233 136t239 -172q105 -172 105 -325q-1 -257 -219 -335
q-116 -42 -238 -45t-193 -3h-191q-35 0 -52.5 26t-17.5 58t17.5 57.5t52.5 25.5h200zM562 1415h-185v181h185v-181zM723 1135h-185v181h185v-181zM401 1135h-185v181h185v-181z" />
    <glyph glyph-name="uni06A8.medi" unicode="&#x6a8;" horiz-adv-x="1026" 
d="M626 202q58 42 58 150t-64 224q-64 117 -130 117t-114 -68q-49 -68 -49 -144q0 -103 150 -199q58 -37 149 -80zM200 153q111 0 219 -2l2 7q-203 82 -237 218q-10 42 -10 97.5t24 126t66 130.5q98 136 227 136q165 0 285 -239q64 -129 64.5 -256t-51.5 -206
q75 -12 237 -12v-167h-22q-215 0 -366 58q-121 -53 -337 -57q-58 -1 -110 -1h-191q-35 0 -52.5 26t-17.5 58t17.5 57.5t52.5 25.5h200zM562 1415h-185v181h185v-181zM723 1135h-185v181h185v-181zM401 1135h-185v181h185v-181z" />
    <glyph glyph-name="uni06A8.fina" unicode="&#x6a8;" horiz-adv-x="1539" 
d="M838 310q0 -157 258 -157h101q-19 185 -103 301q-49 68 -103.5 68t-103.5 -66.5t-49 -145.5zM312 6q0 -192 94 -271t336 -79q333 0 416 168q30 61 37 162h-117q-282 0 -366 177q-27 57 -27 126q0 143 94 274.5t227.5 131.5t231.5 -156t113 -386h188v-167h-187
q-22 -256 -173 -377.5t-450 -121.5q-455 1 -545 281q-30 92 -29.5 210.5t29.5 280.5h151q-23 -157 -23 -253zM1073 1244h-185v181h185v-181zM1234 964h-185v181h185v-181zM912 964h-185v181h185v-181z" />
    <glyph glyph-name="uni06A9" unicode="&#x6a9;" horiz-adv-x="1881" arabic-form="isolated" 
d="M328 416q0 -66 16 -116t52 -77q62 -46 177 -61t277 -15q270 0 340 4q216 13 266 80q26 35 26 101q0 133 -168 271q-140 115 -459 271v118l843 546v-176l-666 -417q296 -141 452 -289t156 -312.5t-105 -254.5t-337 -104q-120 -7 -262 -7q-293 0 -433 20t-212 82.5
t-96 138.5t-24 165t29 223h154q-26 -124 -26 -191z" />
    <glyph glyph-name="uni06AA.init" unicode="&#x6aa;" horiz-adv-x="2052" 
d="M0 -14q-35 0 -52.5 26t-17.5 58t17.5 57.5t52.5 25.5h59l904 -8q559 0 815 20q6 22 6 40q0 67 -46.5 109.5t-131.5 42.5h-1069q-201 0 -258.5 19t-82.5 51t-25 101.5t53.5 154t153.5 157.5q219 161 566 209v-166q-251 -32 -439 -125.5t-188 -186.5q0 -18 12.5 -28
t57.5 -16t278 -6h954q138 0 228.5 -83t90.5 -192q0 -108 -65 -192q-23 -30 -55 -52q-250 -24 -899 -24l-869 8h-50z" />
    <glyph glyph-name="uni06AA.medi" unicode="&#x6aa;" horiz-adv-x="2052" 
d="M0 -14q-35 0 -52.5 26t-17.5 58t17.5 57.5t52.5 25.5h59l904 -8q559 0 815 20q6 22 6 40q0 67 -46.5 109.5t-131.5 42.5h-1069q-201 0 -258.5 19t-82.5 51t-25 101.5t53.5 154t153.5 157.5q219 161 566 209v-166q-251 -32 -439 -125.5t-188 -186.5q0 -18 12.5 -28
t57.5 -16t278 -6h954q138 0 228.5 -83t90.5 -198q0 -35 -11 -79q51 -8 125 -8v-167h-7q-105 0 -158 85h-4q-19 -37 -65 -69q-250 -24 -899 -24l-869 8h-50z" />
    <glyph glyph-name="uni06AA.fina" unicode="&#x6aa;" horiz-adv-x="2223" 
d="M25 169q178 -24 923 -24q746 0 1001 20q6 22 6 40q0 67 -46.5 109.5t-131.5 42.5h-1069q-201 0 -258.5 19t-82.5 51t-25 101.5t54 153.5q52 84 152 158q219 161 567 209v-166q-251 -32 -439 -126t-188 -186q0 -18 12.5 -28t57.5 -16t278 -6h954q138 0 228 -83
q91 -83 91 -198q0 -35 -11 -79q51 -8 125 -8v-167h-7q-104 0 -158 85h-4q-21 -38 -65 -69q-283 -24 -1000 -24q-716 0 -932 24z" />
    <glyph glyph-name="uni06AB.init" unicode="&#x6ab;" horiz-adv-x="1026" 
d="M0 -14q-35 0 -52.5 26t-17.5 58t17.5 57.5t52.5 25.5h296q271 -1 316 95q15 32 15 90.5t-44 128.5t-126 137q-145 118 -457 270v118l843 546v-176l-181 -113q23 -11 43 -31q47 -46 47 -113.5t-47 -114.5t-114 -47t-113.5 47t-46.5 112v2l-254 -159q299 -142 453.5 -289.5
t154.5 -324.5q0 -264 -301 -328q-80 -17 -191 -17h-293zM592 1018q36 0 60.5 24.5t24.5 60.5t-24.5 61t-60.5 25t-61 -25t-25 -61t25 -60.5t61 -24.5z" />
    <glyph glyph-name="uni06AB.medi" unicode="&#x6ab;" horiz-adv-x="1026" 
d="M0 -14q-35 0 -52.5 26t-17.5 58t17.5 57.5t52.5 25.5h296q271 -1 316 95q15 32 15 90.5t-44 128.5t-126 137q-145 118 -457 270v118l843 546v-176l-181 -113q23 -11 43 -31q47 -46 47 -113.5t-47 -114.5t-114 -47t-113.5 47t-46.5 112v2l-254 -159q457 -217 559 -436
q32 -69 41.5 -113.5t15 -66t15.5 -45.5q55 -131 218 -131v-167h-22q-192 0 -274 159h-5q-108 -159 -432 -159h-293zM592 1018q36 0 60.5 24.5t24.5 60.5t-24.5 61t-60.5 25t-61 -25t-25 -61t25 -60.5t61 -24.5z" />
    <glyph glyph-name="uni06AB.fina" unicode="&#x6ab;" horiz-adv-x="1881" 
d="M328 416q0 -66 16 -116t52 -77q62 -46 177 -61t278 -15q250 1 342 5q212 10 263 79q26 35 26 101q0 133 -157.5 261.5t-469.5 280.5v118l843 546v-176l-181 -113q23 -11 43 -31q47 -46 47 -113.5t-47 -114.5t-114 -47t-113.5 47t-46.5 112v2l-254 -159q457 -217 559 -436
q32 -69 41.5 -113.5t15 -66t15.5 -45.5q55 -131 218 -131v-167h-22q-192 0 -274 159h-5q-86 -115 -270 -147q-116 -20 -316 -20q-351 0 -491 20t-212 82.5t-96 138.5t-24 165t29 223h154q-26 -124 -26 -191zM1447 1018q36 0 60.5 24.5t24.5 60.5t-24.5 61t-60.5 25t-61 -25
t-25 -61t25 -60.5t61 -24.5z" />
    <glyph glyph-name="uni06AC.init" unicode="&#x6ac;" horiz-adv-x="1026" 
d="M0 -14q-35 0 -52.5 26t-17.5 58t17.5 57.5t52.5 25.5h296q271 -1 316 95q15 32 15 90.5t-44 128.5t-126 137q-145 118 -457 270v118l843 546v-176l-666 -417q299 -142 454 -290q154 -148 154 -324q0 -264 -301 -328q-80 -17 -191 -17h-293zM406 1534h-185v181h185v-181z
" />
    <glyph glyph-name="uni06AC.medi" unicode="&#x6ac;" horiz-adv-x="1026" 
d="M0 -14q-35 0 -52.5 26t-17.5 58t17.5 57.5t52.5 25.5h296q271 -1 316 95q15 32 15 90.5t-44 128.5t-126 137q-145 118 -457 270v118l843 546v-176l-666 -417q457 -217 559 -436q32 -69 41.5 -113.5t15 -66t15.5 -45.5q55 -131 218 -131v-167h-22q-192 0 -274 159h-5
q-108 -159 -432 -159h-293zM406 1534h-185v181h185v-181z" />
    <glyph glyph-name="uni06AC.fina" unicode="&#x6ac;" horiz-adv-x="1710" 
d="M847 951q1 -20 17 -32q16 -11 35 -21q47 -24 70 -47t23 -61q0 -75 -80 -128.5t-228 -60.5v93q197 11 197 82q0 18 -15.5 29t-33.5 21q-44 23 -70 48q-26 24 -26 68q0 78 80.5 126.5t208.5 65.5v-93q-178 -23 -178 -90zM328 416q0 -66 16 -116t52 -77q63 -46 177 -61
t292.5 -15t259.5 5q81 6 135 26q108 41 108 175v1163h156v-1108q0 -144 25.5 -184.5t62 -55.5t98.5 -15v-167h-22q-100 0 -158.5 29t-90.5 93h-4q-95 -120 -361 -128q-78 -2 -178 -2q-252 0 -392.5 20t-212.5 82.5t-96 138.5t-24 165t29 223h154q-26 -124 -26 -191z
M976 1534h-185v181h185v-181z" />
    <glyph glyph-name="uni06AD" unicode="&#x6ad;" horiz-adv-x="1710" arabic-form="isolated" 
d="M847 951q1 -20 17 -32q16 -11 35 -21q47 -24 70 -47t23 -61q0 -75 -80 -128.5t-228 -60.5v93q197 11 197 82q0 18 -15.5 29t-33.5 21q-44 23 -70 48q-26 24 -26 68q0 78 80.5 126.5t208.5 65.5v-93q-178 -23 -178 -90zM328 416q0 -66 16 -116t52 -77q63 -46 177 -61
t292.5 -15t259.5 5q81 6 135 26q108 41 108 175v1163h156v-1170q0 -244 -184 -318q-105 -42 -225.5 -46t-220.5 -4q-251 0 -391 20t-212 82.5t-96 138.5t-24 165t29 223h154q-26 -124 -26 -191zM976 1814h-185v181h185v-181zM1137 1534h-185v181h185v-181zM815 1534h-185
v181h185v-181z" />
    <glyph glyph-name="uni06AE.init" unicode="&#x6ae;" horiz-adv-x="1026" 
d="M0 -14q-35 0 -52.5 26t-17.5 58t17.5 57.5t52.5 25.5h296q271 -1 316 95q15 32 15 90.5t-44 128.5t-126 137q-145 118 -457 270v118l843 546v-176l-666 -417q299 -142 454 -290q154 -148 154 -324q0 -264 -301 -328q-80 -17 -191 -17h-293zM520 -567h-185v181h185v-181z
M681 -287h-185v181h185v-181zM359 -287h-185v181h185v-181z" />
    <glyph glyph-name="uni06AE.medi" unicode="&#x6ae;" horiz-adv-x="1026" 
d="M0 -14q-35 0 -52.5 26t-17.5 58t17.5 57.5t52.5 25.5h296q271 -1 316 95q15 32 15 90.5t-44 128.5t-126 137q-145 118 -457 270v118l843 546v-176l-666 -417q457 -217 559 -436q32 -69 41.5 -113.5t15 -66t15.5 -45.5q55 -131 218 -131v-167h-22q-192 0 -274 159h-5
q-108 -159 -432 -159h-293zM520 -567h-185v181h185v-181zM681 -287h-185v181h185v-181zM359 -287h-185v181h185v-181z" />
    <glyph glyph-name="uni06AE.fina" unicode="&#x6ae;" horiz-adv-x="1710" 
d="M847 951q1 -20 17 -32q16 -11 35 -21q47 -24 70 -47t23 -61q0 -75 -80 -128.5t-228 -60.5v93q197 11 197 82q0 18 -15.5 29t-33.5 21q-44 23 -70 48q-26 24 -26 68q0 78 80.5 126.5t208.5 65.5v-93q-178 -23 -178 -90zM328 416q0 -66 16 -116t52 -77q63 -46 177 -61
t292.5 -15t259.5 5q81 6 135 26q108 41 108 175v1163h156v-1108q0 -144 25.5 -184.5t62 -55.5t98.5 -15v-167h-22q-100 0 -158.5 29t-90.5 93h-4q-95 -120 -361 -128q-78 -2 -178 -2q-252 0 -392.5 20t-212.5 82.5t-96 138.5t-24 165t29 223h154q-26 -124 -26 -191z
M977 -567h-185v181h185v-181zM1138 -287h-185v181h185v-181zM816 -287h-185v181h185v-181z" />
    <glyph glyph-name="uni06AF" unicode="&#x6af;" horiz-adv-x="1881" arabic-form="isolated" 
d="M328 416q0 -66 16 -116t52 -77q62 -46 177 -61t277 -15q270 0 340 4q216 13 266 80q26 35 26 101q0 133 -168 271q-140 115 -459 271v118l843 546v-176l-666 -417q296 -141 452 -289t156 -312.5t-105 -254.5t-337 -104q-120 -7 -262 -7q-293 0 -433 20t-212 82.5
t-96 138.5t-24 165t29 223h154q-26 -124 -26 -191zM855 1154v148l843 546v-148z" />
    <glyph glyph-name="uni06B0.init" unicode="&#x6b0;" horiz-adv-x="1026" 
d="M0 -14q-35 0 -52.5 26t-17.5 58t17.5 57.5t52.5 25.5h296q271 -1 316 95q15 32 15 90.5t-44 128.5t-126 137q-145 118 -457 270v118l843 546v-176l-181 -113q23 -11 43 -31q47 -46 47 -113.5t-47 -114.5t-114 -47t-113.5 47t-46.5 112v2l-254 -159q299 -142 453.5 -289.5
t154.5 -324.5q0 -264 -301 -328q-80 -17 -191 -17h-293zM592 1018q36 0 60.5 24.5t24.5 60.5t-24.5 61t-60.5 25t-61 -25t-25 -61t25 -60.5t61 -24.5zM0 1154v148l843 546v-148z" />
    <glyph glyph-name="uni06B0.medi" unicode="&#x6b0;" horiz-adv-x="1026" 
d="M0 -14q-35 0 -52.5 26t-17.5 58t17.5 57.5t52.5 25.5h296q271 -1 316 95q15 32 15 90.5t-44 128.5t-126 137q-145 118 -457 270v118l843 546v-176l-181 -113q23 -11 43 -31q47 -46 47 -113.5t-47 -114.5t-114 -47t-113.5 47t-46.5 112v2l-254 -159q457 -217 559 -436
q32 -69 41.5 -113.5t15 -66t15.5 -45.5q55 -131 218 -131v-167h-22q-192 0 -274 159h-5q-108 -159 -432 -159h-293zM592 1018q36 0 60.5 24.5t24.5 60.5t-24.5 61t-60.5 25t-61 -25t-25 -61t25 -60.5t61 -24.5zM0 1154v148l843 546v-148z" />
    <glyph glyph-name="uni06B0.fina" unicode="&#x6b0;" horiz-adv-x="1881" 
d="M328 416q0 -66 16 -116t52 -77q62 -46 177 -61t278 -15q250 1 342 5q212 10 263 79q26 35 26 101q0 133 -157.5 261.5t-469.5 280.5v118l843 546v-176l-181 -113q23 -11 43 -31q47 -46 47 -113.5t-47 -114.5t-114 -47t-113.5 47t-46.5 112v2l-254 -159q457 -217 559 -436
q32 -69 41.5 -113.5t15 -66t15.5 -45.5q55 -131 218 -131v-167h-22q-192 0 -274 159h-5q-86 -115 -270 -147q-116 -20 -316 -20q-351 0 -491 20t-212 82.5t-96 138.5t-24 165t29 223h154q-26 -124 -26 -191zM1447 1018q36 0 60.5 24.5t24.5 60.5t-24.5 61t-60.5 25t-61 -25
t-25 -61t25 -60.5t61 -24.5zM855 1154v148l843 546v-148z" />
    <glyph glyph-name="uni06B1" unicode="&#x6b1;" horiz-adv-x="1881" arabic-form="isolated" 
d="M328 416q0 -66 16 -116t52 -77q62 -46 177 -61t277 -15q270 0 340 4q216 13 266 80q26 35 26 101q0 133 -168 271q-140 115 -459 271v118l843 546v-176l-666 -417q296 -141 452 -289t156 -312.5t-105 -254.5t-337 -104q-120 -7 -262 -7q-293 0 -433 20t-212 82.5
t-96 138.5t-24 165t29 223h154q-26 -124 -26 -191zM855 1154v148l843 546v-148zM1422 1806h-185v181h185v-181zM1100 1806h-185v181h185v-181z" />
    <glyph glyph-name="uni06B2.init" unicode="&#x6b2;" horiz-adv-x="1026" 
d="M0 -14q-35 0 -52.5 26t-17.5 58t17.5 57.5t52.5 25.5h296q271 -1 316 95q15 32 15 90.5t-44 128.5t-126 137q-145 118 -457 270v118l843 546v-176l-666 -417q299 -142 454 -290q154 -148 154 -324q0 -264 -301 -328q-80 -17 -191 -17h-293zM0 1154v148l843 546v-148z
M681 -346h-185v181h185v-181zM359 -346h-185v181h185v-181z" />
    <glyph glyph-name="uni06B2.medi" unicode="&#x6b2;" horiz-adv-x="1026" 
d="M0 -14q-35 0 -52.5 26t-17.5 58t17.5 57.5t52.5 25.5h296q271 -1 316 95q15 32 15 90.5t-44 128.5t-126 137q-145 118 -457 270v118l843 546v-176l-666 -417q457 -217 559 -436q32 -69 41.5 -113.5t15 -66t15.5 -45.5q55 -131 218 -131v-167h-22q-192 0 -274 159h-5
q-108 -159 -432 -159h-293zM0 1154v148l843 546v-148zM681 -346h-185v181h185v-181zM359 -346h-185v181h185v-181z" />
    <glyph glyph-name="uni06B2.fina" unicode="&#x6b2;" horiz-adv-x="1881" 
d="M328 416q0 -66 16 -116t52 -77q62 -46 177 -61t278 -15q250 1 342 5q212 10 263 79q26 35 26 101q0 133 -157.5 261.5t-469.5 280.5v118l843 546v-176l-666 -417q457 -217 559 -436q32 -69 41.5 -113.5t15 -66t15.5 -45.5q55 -131 218 -131v-167h-22q-192 0 -274 159h-5
q-86 -115 -270 -147q-116 -20 -316 -20q-351 0 -491 20t-212 82.5t-96 138.5t-24 165t29 223h154q-26 -124 -26 -191zM855 1154v148l843 546v-148zM1195 -346h-185v181h185v-181zM873 -346h-185v181h185v-181z" />
    <glyph glyph-name="uni06B3" unicode="&#x6b3;" horiz-adv-x="1881" arabic-form="isolated" 
d="M328 416q0 -66 16 -116t52 -77q62 -46 177 -61t277 -15q270 0 340 4q216 13 266 80q26 35 26 101q0 133 -168 271q-140 115 -459 271v118l843 546v-176l-666 -417q296 -141 452 -289t156 -312.5t-105 -254.5t-337 -104q-120 -7 -262 -7q-293 0 -433 20t-212 82.5
t-96 138.5t-24 165t29 223h154q-26 -124 -26 -191zM1034 -287h-185v181h185v-181zM1034 -567h-185v181h185v-181zM855 1154v148l843 546v-148z" />
    <glyph glyph-name="uni06B4.init" unicode="&#x6b4;" horiz-adv-x="1026" 
d="M0 -14q-35 0 -52.5 26t-17.5 58t17.5 57.5t52.5 25.5h296q271 -1 316 95q15 32 15 90.5t-44 128.5t-126 137q-145 118 -457 270v118l843 546v-176l-666 -417q299 -142 454 -290q154 -148 154 -324q0 -264 -301 -328q-80 -17 -191 -17h-293zM0 1154v148l843 546v-148z
M349 2056h-185v181h185v-181zM510 1776h-185v181h185v-181zM188 1776h-185v181h185v-181z" />
    <glyph glyph-name="uni06B4.medi" unicode="&#x6b4;" horiz-adv-x="1026" 
d="M0 -14q-35 0 -52.5 26t-17.5 58t17.5 57.5t52.5 25.5h296q271 -1 316 95q15 32 15 90.5t-44 128.5t-126 137q-145 118 -457 270v118l843 546v-176l-666 -417q457 -217 559 -436q32 -69 41.5 -113.5t15 -66t15.5 -45.5q55 -131 218 -131v-167h-22q-192 0 -274 159h-5
q-108 -159 -432 -159h-293zM0 1154v148l843 546v-148zM349 2056h-185v181h185v-181zM510 1776h-185v181h185v-181zM188 1776h-185v181h185v-181z" />
    <glyph glyph-name="uni06B4.fina" unicode="&#x6b4;" horiz-adv-x="1881" 
d="M328 416q0 -66 16 -116t52 -77q62 -46 177 -61t278 -15q250 1 342 5q212 10 263 79q26 35 26 101q0 133 -157.5 261.5t-469.5 280.5v118l843 546v-176l-666 -417q457 -217 559 -436q32 -69 41.5 -113.5t15 -66t15.5 -45.5q55 -131 218 -131v-167h-22q-192 0 -274 159h-5
q-86 -115 -270 -147q-116 -20 -316 -20q-351 0 -491 20t-212 82.5t-96 138.5t-24 165t29 223h154q-26 -124 -26 -191zM855 1154v148l843 546v-148zM1204 2056h-185v181h185v-181zM1365 1776h-185v181h185v-181zM1043 1776h-185v181h185v-181z" />
    <glyph glyph-name="uni06B5.init" unicode="&#x6b5;" horiz-adv-x="684" 
d="M153 153q100 0 132.5 28.5t44.5 64.5t12 93v1177h156v-1184q0 -263 -184 -323q-70 -23 -171 -23h-143q-35 0 -52.5 26t-17.5 58t17.5 57.5t52.5 25.5h153zM359 1710l-236 352h125l171 -255l168 255h121l-230 -352h-119z" />
    <glyph glyph-name="uni06B5.medi" unicode="&#x6b5;" horiz-adv-x="684" 
d="M0 -14q-35 0 -52.5 26t-17.5 58t17.5 57.5t52.5 25.5h153q121 -1 171 97q18 36 18 89v1177h156v-1108q0 -144 25.5 -184.5t62.5 -55.5t98 -15v-167h-22q-183 0 -242 123h-4q-95 -123 -273 -123h-143zM359 1710l-236 352h125l171 -255l168 255h121l-230 -352h-119z" />
    <glyph glyph-name="uni06B5.fina" unicode="&#x6b5;" horiz-adv-x="1368" 
d="M312 178q0 -196 74.5 -272.5t268.5 -76.5t282.5 105t88.5 362v1220h156v-1104q0 -144 25.5 -186t62.5 -57.5t98 -15.5v-167h-19q-133 0 -190 78h-4q-72 -404 -527 -404q-376 0 -450 288q-24 92 -23.5 210.5t27.5 263.5h152q-22 -144 -22 -244zM1043 1710l-236 352h125
l171 -255l168 255h121l-230 -352h-119z" />
    <glyph glyph-name="uni06B6.init" unicode="&#x6b6;" horiz-adv-x="684" 
d="M153 153q100 0 132.5 28.5t44.5 64.5t12 93v1177h156v-1184q0 -263 -184 -323q-70 -23 -171 -23h-143q-35 0 -52.5 26t-17.5 58t17.5 57.5t52.5 25.5h153zM505 1714h-185v181h185v-181z" />
    <glyph glyph-name="uni06B6.medi" unicode="&#x6b6;" horiz-adv-x="684" 
d="M0 -14q-35 0 -52.5 26t-17.5 58t17.5 57.5t52.5 25.5h153q121 -1 171 97q18 36 18 89v1177h156v-1108q0 -144 25.5 -184.5t62.5 -55.5t98 -15v-167h-22q-183 0 -242 123h-4q-95 -123 -273 -123h-143zM505 1714h-185v181h185v-181z" />
    <glyph glyph-name="uni06B6.fina" unicode="&#x6b6;" horiz-adv-x="1368" 
d="M312 178q0 -196 74.5 -272.5t268.5 -76.5t282.5 105t88.5 362v1220h156v-1104q0 -144 25.5 -186t62.5 -57.5t98 -15.5v-167h-19q-133 0 -190 78h-4q-72 -404 -527 -404q-376 0 -450 288q-24 92 -23.5 210.5t27.5 263.5h152q-22 -144 -22 -244zM1189 1714h-185v181h185
v-181z" />
    <glyph glyph-name="uni06B7.init" unicode="&#x6b7;" horiz-adv-x="684" 
d="M153 153q100 0 132.5 28.5t44.5 64.5t12 93v1177h156v-1184q0 -263 -184 -323q-70 -23 -171 -23h-143q-35 0 -52.5 26t-17.5 58t17.5 57.5t52.5 25.5h153zM505 1994h-185v181h185v-181zM666 1714h-185v181h185v-181zM344 1714h-185v181h185v-181z" />
    <glyph glyph-name="uni06B7.medi" unicode="&#x6b7;" horiz-adv-x="684" 
d="M0 -14q-35 0 -52.5 26t-17.5 58t17.5 57.5t52.5 25.5h153q121 -1 171 97q18 36 18 89v1177h156v-1108q0 -144 25.5 -184.5t62.5 -55.5t98 -15v-167h-22q-183 0 -242 123h-4q-95 -123 -273 -123h-143zM505 1994h-185v181h185v-181zM666 1714h-185v181h185v-181zM344 1714
h-185v181h185v-181z" />
    <glyph glyph-name="uni06B7.fina" unicode="&#x6b7;" horiz-adv-x="1368" 
d="M312 178q0 -196 74.5 -272.5t268.5 -76.5t282.5 105t88.5 362v1220h156v-1104q0 -144 25.5 -186t62.5 -57.5t98 -15.5v-167h-19q-133 0 -190 78h-4q-72 -404 -527 -404q-376 0 -450 288q-24 92 -23.5 210.5t27.5 263.5h152q-22 -144 -22 -244zM1189 1994h-185v181h185
v-181zM1350 1714h-185v181h185v-181zM1028 1714h-185v181h185v-181z" />
    <glyph glyph-name="uni06B8.init" unicode="&#x6b8;" horiz-adv-x="684" 
d="M153 153q100 0 132.5 28.5t44.5 64.5t12 93v1177h156v-1184q0 -263 -184 -323q-70 -23 -171 -23h-143q-35 0 -52.5 26t-17.5 58t17.5 57.5t52.5 25.5h153zM423 -567h-185v181h185v-181zM584 -287h-185v181h185v-181zM262 -287h-185v181h185v-181z" />
    <glyph glyph-name="uni06B8.medi" unicode="&#x6b8;" horiz-adv-x="684" 
d="M0 -14q-35 0 -52.5 26t-17.5 58t17.5 57.5t52.5 25.5h153q121 -1 171 97q18 36 18 89v1177h156v-1108q0 -144 25.5 -184.5t62.5 -55.5t98 -15v-167h-22q-183 0 -242 123h-4q-95 -123 -273 -123h-143zM423 -567h-185v181h185v-181zM584 -287h-185v181h185v-181zM262 -287
h-185v181h185v-181z" />
    <glyph glyph-name="uni06B8.fina" unicode="&#x6b8;" horiz-adv-x="1368" 
d="M595 -292h-201v189h201v-189zM937 -292h-201v189h201v-189zM766 -572h-201v189h201v-189zM312 504q0 -195 74.5 -272t268 -77t282.5 98.5t89 338.5v924h156v-1104q0 -144 25.5 -186t62 -57.5t98.5 -15.5v-167h-26q-133 0 -214 89q-31 34 -51 87h-3q-133 -176 -446 -176
q-376 0 -450 288q-24 92 -23.5 210.5t27.5 263.5h152q-22 -144 -22 -244z" />
    <glyph glyph-name="uni06B9.init" unicode="&#x6b9;" horiz-adv-x="684" 
d="M153 153q100 0 132.5 28.5t44.5 64.5t12 93v444h156v-451q0 -263 -184 -323q-70 -23 -171 -23h-143q-35 0 -52.5 26t-17.5 58t17.5 57.5t52.5 25.5h153zM505 1021h-185v181h185v-181zM480 -346h-185v181h185v-181z" />
    <glyph glyph-name="uni06B9.medi" unicode="&#x6b9;" horiz-adv-x="684" 
d="M662 -14q-188 0 -250 123h-4q-91 -123 -265 -123h-143q-35 0 -52.5 26t-17.5 58t17.5 57.5t52.5 25.5h153q121 -1 171 97q18 36 18 89v444h156v-375q0 -144 25.5 -184.5t62.5 -55.5t98 -15v-167h-22zM505 1021h-185v181h185v-181zM480 -346h-185v181h185v-181z" />
    <glyph glyph-name="uni06B9.fina" unicode="&#x6b9;" horiz-adv-x="1368" 
d="M772 -522h-201v189h201v-189zM772 1017h-201v189h201v-189zM1190 445v-33q0 -151 24.5 -191t59.5 -54t94 -14v-167h-25q-149 0 -216 101h-4q-115 -258 -493 -258q-378 -1 -452 287q-24 92 -23.5 207.5t29.5 277.5h151q-23 -157 -23 -255q0 -194 75 -271t271 -77
t285.5 104.5t89.5 362.5q0 120 -33 326h156q34 -186 34 -346z" />
    <glyph glyph-name="uni06BA" unicode="&#x6ba;" horiz-adv-x="1368" arabic-form="isolated" 
d="M1033 118q0 124 -33 331h156q34 -185 34 -337q0 -314 -120 -460q-136 -165 -438 -165q-380 -1 -454 287q-24 92 -23.5 207.5t29.5 277.5h151q-23 -157 -23 -255q0 -194 75 -271t271 -77t285.5 104.5t89.5 357.5z" />
    <glyph glyph-name="uni06BB" unicode="&#x6bb;" horiz-adv-x="1368" arabic-form="isolated" 
d="M1033 118q0 124 -33 331h156q34 -185 34 -337q0 -314 -120 -460q-136 -165 -438 -165q-380 -1 -454 287q-24 92 -23.5 207.5t29.5 277.5h151q-23 -157 -23 -255q0 -194 75 -271t271 -77t285.5 104.5t89.5 357.5zM705 789q118 0 142 8q42 14 42 67.5t-32.5 81.5t-72.5 28
q-71 0 -126 -52.5t-88 -132.5h135zM484 1294h89v-347l3 -1q81 132 213 132q91 0 136.5 -63t45.5 -142.5t-19.5 -114.5t-60.5 -54.5t-143 -19.5q-290 0 -378 11l-13 103q21 -2 127 -7v503z" />
    <glyph glyph-name="uni06BC.init" unicode="&#x6bc;" horiz-adv-x="684" 
d="M443 -83q0 -74 -47 -121t-114 -47t-113.5 47t-46.5 101t18 89h-140q-35 0 -52.5 26t-17.5 58t17.5 57.5t52.5 25.5h153q100 0 132.5 28.5t44.5 64.5t12 93v444h156v-451q0 -213 -121 -292q66 -49 66 -123zM283 -176q36 0 60.5 24.5t24.5 60.5t-24.5 61t-60.5 25t-61 -25
t-25 -61t25 -60.5t61 -24.5zM505 1021h-185v181h185v-181z" />
    <glyph glyph-name="uni06BC.medi" unicode="&#x6bc;" horiz-adv-x="684" 
d="M662 -14q-188 0 -250 123h-4q-24 -32 -54 -55q22 -10 42 -30q47 -46 47 -113.5t-47 -114.5t-114 -47t-113.5 47t-46.5 101t18 89h-140q-35 0 -52.5 26t-17.5 58t17.5 57.5t52.5 25.5h153q121 -1 171 97q18 36 18 89v444h156v-375q0 -144 25.5 -184.5t62.5 -55.5t98 -15
v-167h-22zM283 -176q36 0 60.5 24.5t24.5 60.5t-24.5 61t-60.5 25t-61 -25t-25 -61t25 -60.5t61 -24.5zM505 1021h-185v181h185v-181z" />
    <glyph glyph-name="uni06BC.fina" unicode="&#x6bc;" horiz-adv-x="1368" 
d="M672 -352q36 0 60.5 24.5t24.5 60.5t-24.5 61t-60.5 25t-61 -25t-25 -61t25 -60.5t61 -24.5zM772 1017h-201v189h201v-189zM1190 445v-33q0 -151 24.5 -191t59.5 -54t94 -14v-167h-25q-149 0 -216 101h-4q-89 -199 -334 -245q43 -45 43 -94q0 -80 -46.5 -127.5
t-97.5 -47.5q-85 0 -131 47.5t-46 109t33 103.5q-308 31 -370 299q-20 86 -19.5 196.5t29.5 272.5h151q-23 -157 -23 -255q0 -194 75 -271t271 -77t285.5 104.5t89.5 362.5q0 120 -33 326h156q34 -188 34 -346z" />
    <glyph glyph-name="uni06BD.init" unicode="&#x6bd;" horiz-adv-x="684" 
d="M153 153q100 1 132 29q33 28 45 64t12 93v444h156v-451q0 -263 -184 -323q-70 -23 -171 -23h-143q-34 0 -52 26t-18 58t18 58t52 25h153zM505 1301h-185v181h185v-181zM666 1021h-185v181h185v-181zM344 1021h-185v181h185v-181z" />
    <glyph glyph-name="uni06BD.medi" unicode="&#x6bd;" horiz-adv-x="684" 
d="M662 -14q-188 0 -250 123h-4q-91 -123 -265 -123h-143q-34 0 -52 26t-18 58t18 58t52 25h153q121 -1 171 97q18 36 18 89v444h156v-375q0 -144 26 -184q26 -41 62 -56q37 -15 98 -15v-167h-22zM505 1301h-185v181h185v-181zM666 1021h-185v181h185v-181zM344 1021h-185
v181h185v-181z" />
    <glyph glyph-name="uni06BD.fina" unicode="&#x6bd;" horiz-adv-x="1368" 
d="M1033 118q0 124 -33 331h156q8 -45 12 -87t12 -94q16 -115 188 -115v-167h-22q-110 0 -160 70l-5 -1q-6 -279 -134 -423.5t-415 -144.5q-380 -1 -454 287q-24 92 -23.5 207.5t29.5 277.5h151q-23 -157 -23 -255q0 -194 75 -271t271 -77t285.5 104.5t89.5 357.5zM764 959
h-185v181h185v-181zM925 679h-185v181h185v-181zM603 679h-185v181h185v-181z" />
    <glyph glyph-name="uni06BE" unicode="&#x6be;" horiz-adv-x="1539" arabic-form="isolated" 
d="M929 471q0 -174 -87 -278q131 -51 296 -64q29 45 29 93q0 84 -66.5 177t-183.5 202l-5 -5q17 -60 17 -125zM802 483q0 85 -48 153t-101.5 68t-107 -73.5t-53.5 -140.5t33 -108q62 -76 193 -143q84 104 84 244zM380.5 151q149.5 0 208.5 3l1 4q-202 82 -236 218
q-10 42 -11 93q0 112 72.5 229.5t179.5 149.5l1 6l-83 54v199q377 -211 611 -475q102 -116 154 -215t52 -155q0 -114 -50 -195t-136 -81q-123 0 -286 47q-59 17 -116 43q-109 -90 -379 -90q-136 0 -248 16l-32 167q148 -18 297.5 -18z" />
    <glyph glyph-name="uni06BF.init" unicode="&#x6bf;" horiz-adv-x="1197" 
d="M406 783q110 0 172 -14.5t115 -36t101 -46.5q190 -98 354 -100l-32 -200q-43 -10 -100.5 -43t-130.5 -77q-203 -124 -354 -184q-239 -96 -481 -96h-50q-35 0 -52.5 26t-17.5 58t17.5 57.5t52.5 25.5h59q307 0 649 200q96 56 186 113v5q-57 27 -105 53q-175 96 -339 96.5
t-279 -35.5v157q125 41 235 41zM691 -567h-185v181h185v-181zM852 -287h-185v181h185v-181zM530 -287h-185v181h185v-181zM691 940h-185v181h185v-181z" />
    <glyph glyph-name="uni06BF.medi" unicode="&#x6bf;" horiz-adv-x="1197" 
d="M406 783q110 0 172 -14.5t115 -36t101 -46.5q190 -98 354 -100l-32 -200q-51 -13 -161 -78q2 -89 49.5 -122t192.5 -33v-167h-20q-261 0 -312 158q-15 46 -17 99q-193 -115 -318 -162q-253 -95 -480 -95h-50q-35 0 -52.5 26t-17.5 58t17.5 57.5t52.5 25.5h59
q307 0 649 200q96 56 186 113v5q-57 27 -105 53q-175 96 -339 96.5t-279 -35.5v157q125 41 235 41zM691 -567h-185v181h185v-181zM852 -287h-185v181h185v-181zM530 -287h-185v181h185v-181zM691 940h-185v181h185v-181z" />
    <glyph glyph-name="uni06BF.fina" unicode="&#x6bf;" horiz-adv-x="1368" 
d="M1337 153h31v-167h-55q-152 0 -236 88t-92 230q62 22 126 38q6 -104 64 -146.5t162 -42.5zM402.5 852q106.5 0 161 -11t101 -27.5t88 -36t118.5 -47.5t197 -30l-32 -187q-604 -159 -718 -397q-36 -76 -36 -150q0 -150 101.5 -237.5t299 -87.5t406.5 73v-154
q-209 -73 -379 -73q-305 0 -444.5 126t-139.5 324q0 353 440 565q102 50 237 92v8q-50 16 -88.5 32t-103.5 36t-193.5 20t-246.5 -36v157q125 41 231.5 41zM783 -258h-181v179h181v-179zM934 2h-181v179h181v-179zM632 2h-181v179h181v-179zM691 1061h-185v181h185v-181z
" />
    <glyph glyph-name="uni06C0" unicode="&#x6c0;" horiz-adv-x="1026" arabic-form="isolated" 
d="M325 318q0 -171 193 -171q91 0 137 44q46 45 46 105q0 112 -42 201.5t-141 186.5q-134 -96 -178 -262q-14 -54 -15 -104zM415 974q440 -291 440 -654q0 -158 -93.5 -250t-258.5 -92q-243 0 -311 179q-22 56 -21 132q0 146 69.5 277.5t169.5 211.5q-39 31 -91 69z
M591 1454q-107 0 -107 -80q0 -88 142 -88h70v-97h-345v91h85l1 5q-45 51 -45 99q0 82 53.5 126t139.5 44q31 0 64 -6v-101q-30 7 -58 7z" />
    <glyph glyph-name="uni06C1" unicode="&#x6c1;" horiz-adv-x="1026" arabic-form="isolated" 
d="M325 318q0 -171 193 -171q91 0 137 44q46 45 46 105q0 112 -42 201.5t-141 186.5q-134 -96 -178 -262q-14 -54 -15 -104zM415 974q440 -291 440 -654q0 -158 -93.5 -250t-258.5 -92q-243 0 -311 179q-22 56 -21 132q0 146 69.5 277.5t169.5 211.5q-39 31 -91 69z" />
    <glyph glyph-name="uni06C2.fina" unicode="&#x6c2;" horiz-adv-x="1026" 
d="M87 -24q0 234 109.5 350.5t252 116.5t310.5 -145q103 -89 160.5 -117t106.5 -28v-167h-12q-149 0 -313 145q-100 88 -158 116.5t-104 28.5q-97 0 -157 -79.5t-60 -245.5v-32h-131q-4 29 -4 57zM484 941q-107 0 -107 -80q0 -88 142 -88h70v-97h-345v91h85l1 5
q-45 51 -45 99q0 82 53.5 126t139.5 44q31 0 64 -6v-101q-30 7 -58 7z" />
    <glyph glyph-name="uni06C3.fina" unicode="&#x6c3;" horiz-adv-x="1026" 
d="M87 -24q0 234 109.5 350.5t252 116.5t310.5 -145q103 -89 160.5 -117t106.5 -28v-167h-12q-149 0 -313 145q-100 88 -158 116.5t-104 28.5q-97 0 -157 -79.5t-60 -245.5v-32h-131q-4 29 -4 57zM681 679h-185v181h185v-181zM359 679h-185v181h185v-181z" />
    <glyph glyph-name="uni06C4.fina" unicode="&#x6c4;" horiz-adv-x="1026" 
d="M324 310q0 -157 259 -157h101q-19 185 -103 301q-49 69 -103.5 68.5t-104 -68t-49.5 -144.5zM363 -513q-180 0 -363 84v166q117 -48 214 -65q-16 32 -16 85.5t46.5 100t113.5 46.5t114 -46.5t47 -115.5q0 -31 -11 -58q132 56 164 234q6 30 10 68h-117q-283 0 -367 177
q-27 57 -27 126q0 143 94 274.5t227.5 131.5t240.5 -170q90 -145 105 -372h188v-167h-189q-27 -345 -271 -459q-86 -40 -203 -40zM444 -257q0 36 -24.5 61t-60.5 25t-61 -25t-25 -61t25 -60.5t61 -24.5t60.5 24.5t24.5 60.5z" />
    <glyph glyph-name="uni06C5" unicode="&#x6c5;" horiz-adv-x="1026" arabic-form="isolated" 
d="M554 253q62 0 129 32q-7 104 -42 173q-81 165 -163 165q-56 0 -105 -68t-49 -123.5t16 -85.5t45 -50.5t68 -31.5t101 -11zM343 -342q220 0 298 183h-470v109h500q14 74 16 176q-149 -70 -289 -23t-198 161q-28 58 -29 126q0 143 94 274.5t231.5 131.5t242 -167
t104.5 -457q1 -290 -99 -468q-121 -218 -395 -218q-169 0 -349 86v166q192 -80 343 -80z" />
    <glyph glyph-name="uni06C6" unicode="&#x6c6;" horiz-adv-x="1026" arabic-form="isolated" 
d="M478 522q-55 0 -104.5 -67.5t-49.5 -142t61 -117.5t149.5 -43t146.5 33q-3 87 -51.5 185t-86 125t-65.5 27zM0 -263q194 -79 368 -79q304 0 315 365q-83 -37 -161 -37q-152 0 -251.5 84t-99.5 223t94 270.5t227.5 131.5t241 -169.5t107.5 -453.5q0 -401 -257 -537
q-91 -48 -246 -48t-338 84v166zM432 977l-236 352h125l171 -255l168 255h121l-230 -352h-119z" />
    <glyph glyph-name="uni06C7" unicode="&#x6c7;" horiz-adv-x="1026" arabic-form="isolated" 
d="M478 522q-55 0 -104.5 -67.5t-49.5 -142t61 -117.5t149.5 -43t146.5 33q-3 87 -51.5 185t-86 125t-65.5 27zM0 -263q194 -79 368 -79q304 0 315 365q-83 -37 -161 -37q-152 0 -251.5 84t-99.5 223t94 270.5t227.5 131.5t241 -169.5t107.5 -453.5q0 -401 -257 -537
q-91 -48 -246 -48t-338 84v166zM601 1213q0 41 -25.5 59.5t-49.5 18.5q-43 0 -68.5 -19.5t-25.5 -62.5t61 -111q108 36 108 115zM464 1006q-38 -8 -121.5 -8t-179.5 28l18 83q108 -28 198 -28h7q6 0 11 1l1 2q-52 67 -52 120q0 88 53 131.5t122 43.5q109 1 151 -91
q14 -30 14 -72q0 -123 -129 -182l40 -35l-53 -61q-45 34 -80 68z" />
    <glyph glyph-name="uni06C8" unicode="&#x6c8;" horiz-adv-x="1026" arabic-form="isolated" 
d="M478 522q-55 0 -104.5 -67.5t-49.5 -142t61 -117.5t149.5 -43t146.5 33q-3 87 -51.5 185t-86 125t-65.5 27zM0 -263q194 -79 368 -79q304 0 315 365q-83 -37 -161 -37q-152 0 -251.5 84t-99.5 223t94 270.5t227.5 131.5t241 -169.5t107.5 -453.5q0 -401 -257 -537
q-91 -48 -246 -48t-338 84v166zM551 977h-126v392h126v-392z" />
    <glyph glyph-name="uni06C9" unicode="&#x6c9;" horiz-adv-x="1026" arabic-form="isolated" 
d="M478 522q-55 0 -104.5 -67.5t-49.5 -142t61 -117.5t149.5 -43t146.5 33q-3 87 -51.5 185t-86 125t-65.5 27zM0 -263q194 -79 368 -79q304 0 315 365q-83 -37 -161 -37q-152 0 -251.5 84t-99.5 223t94 270.5t227.5 131.5t241 -169.5t107.5 -453.5q0 -401 -257 -537
q-91 -48 -246 -48t-338 84v166zM545 1329l236 -352h-125l-171 255l-168 -255h-121l230 352h119z" />
    <glyph glyph-name="uni06CA.fina" unicode="&#x6ca;" horiz-adv-x="1026" 
d="M324 310q0 -157 259 -157h101q-19 185 -103 301q-49 69 -103.5 68.5t-104 -68t-49.5 -144.5zM363 -342q242 0 299 210q13 48 20 118h-117q-283 0 -367 177q-27 57 -27 126q0 143 94 274.5t227.5 131.5t240.5 -170q90 -145 105 -372h188v-167h-189q-27 -345 -271 -459
q-86 -40 -203 -40q-180 0 -363 84v166q194 -79 363 -79zM723 964h-185v181h185v-181zM401 964h-185v181h185v-181z" />
    <glyph glyph-name="uni06CB" unicode="&#x6cb;" horiz-adv-x="1026" arabic-form="isolated" 
d="M478 522q-55 0 -104.5 -67.5t-49.5 -142t61 -117.5t149.5 -43t146.5 33q-3 87 -51.5 185t-86 125t-65.5 27zM0 -263q194 -79 368 -79q304 0 315 365q-83 -37 -161 -37q-152 0 -251.5 84t-99.5 223t94 270.5t227.5 131.5t241 -169.5t107.5 -453.5q0 -401 -257 -537
q-91 -48 -246 -48t-338 84v166zM562 1244h-185v181h185v-181zM723 964h-185v181h185v-181zM401 964h-185v181h185v-181z" />
    <glyph glyph-name="uni06CC" unicode="&#x6cc;" horiz-adv-x="1539" arabic-form="isolated" 
d="M311 363.5q0 -98.5 16.5 -160t57.5 -107.5t112 -72t180 -26t203.5 23t165 60.5t111 84.5t40.5 90t-25.5 68.5t-63.5 47.5t-82 45q-170 88 -170 248q0 237 338 333q104 30 231 47v-162q-211 -27 -287.5 -62t-104.5 -67.5t-28 -74t25.5 -70t64 -52t83.5 -45.5
q173 -85 173 -217q0 -103 -78 -207q-134 -179 -400 -238q-93 -21 -223 -21q-256 1 -386 145q-110 122 -110 342q0 167 64 368h151q-58 -222 -58 -320.5z" />
    <glyph glyph-name="uni06CD.fina" unicode="&#x6cd;" horiz-adv-x="1880" 
d="M481 263q0 -175 89.5 -261.5t331.5 -86.5q242 -1 316 87q22 26 22.5 56.5t-15.5 52t-35 45.5q-51 64 -51 128q0 115 69.5 181t176.5 66t176 -102q25 -39 47 -87t54 -90q75 -99 218 -99v-167h-22q-174 0 -278 120q-50 58 -82 116t-52 89q-39 59 -76 59q-77 0 -77 -70
q0 -33 16 -55q16 -21 35 -45q51 -63 51 -129.5t-22.5 -112.5t-61.5 -82q-143 -130 -459 -130q-276 0 -410 140q-116 119 -116 336q0 69 8 139l-304 -57v114l483 95q-32 -166 -32 -250z" />
    <glyph glyph-name="uni06CE.init" unicode="&#x6ce;" horiz-adv-x="684" 
d="M153 153q100 0 132.5 28.5t44.5 64.5t12 93v444h156v-451q0 -263 -184 -323q-70 -23 -171 -23h-143q-35 0 -52.5 26t-17.5 58t17.5 57.5t52.5 25.5h153zM359 1018l-236 352h125l171 -255l168 255h121l-230 -352h-119z" />
    <glyph glyph-name="uni06CE.medi" unicode="&#x6ce;" horiz-adv-x="684" 
d="M662 -14q-188 0 -250 123h-4q-91 -123 -265 -123h-143q-35 0 -52.5 26t-17.5 58t17.5 57.5t52.5 25.5h153q121 -1 171 97q18 36 18 89v444h156v-375q0 -144 25.5 -184.5t62.5 -55.5t98 -15v-167h-22zM359 1018l-236 352h125l171 -255l168 255h121l-230 -352h-119z" />
    <glyph glyph-name="uni06CE.fina" unicode="&#x6ce;" horiz-adv-x="1710" 
d="M311 264q0 -173 78 -252q95 -97 340 -97q245 -1 319 87q22 26 22.5 56.5t-15.5 52t-35 45.5q-51 64 -51 128q0 115 69.5 181t176.5 66q130 -1 208 -159q64 -130 124 -174.5t163 -44.5v-167h-22q-174 0 -278 120q-47 54 -79 114q-33 60 -53 91q-39 59 -77 59
q-78 0 -78 -70q0 -33 16 -55q16 -21 35 -45q51 -63 51 -129.5t-22.5 -112.5t-61.5 -82q-143 -131 -461 -130q-280 0 -414 148q-112 122 -112 344q0 113 35 255h154q-32 -147 -32 -229zM716 716l-236 352h125l171 -255l168 255h121l-230 -352h-119z" />
    <glyph glyph-name="uni06CF.fina" unicode="&#x6cf;" horiz-adv-x="1026" 
d="M324 310q0 -157 259 -157h101q-19 185 -103 301q-49 69 -103.5 68.5t-104 -68t-49.5 -144.5zM363 -342q242 0 299 210q13 48 20 118h-117q-283 0 -367 177q-27 57 -27 126q0 143 94 274.5t227.5 131.5t240.5 -170q90 -145 105 -372h188v-167h-189q-27 -345 -271 -459
q-86 -40 -203 -40q-180 0 -363 84v166q194 -79 363 -79zM562 964h-185v181h185v-181z" />
    <glyph glyph-name="uni06D0" unicode="&#x6d0;" horiz-adv-x="1539" arabic-form="isolated" 
d="M311 512.5q0 -98.5 16.5 -160t57.5 -107.5t112 -72t180 -26t203.5 23t165 60.5t111 84.5t40.5 90t-25.5 68.5t-63.5 47.5t-82 45q-170 88 -170 248q0 236 338 332q104 30 231 48v-162q-211 -27 -287.5 -62t-104.5 -67.5t-28 -74t25.5 -70t64 -52t83.5 -45.5
q173 -85 173 -217q0 -103 -78 -207q-134 -179 -400 -238q-93 -21 -223 -21q-256 0 -386 144q-110 122 -110 343q0 167 64 368h151q-58 -222 -58 -320.5zM862 -287h-185v181h185v-181zM862 -567h-185v181h185v-181z" />
    <glyph glyph-name="uni06D1.init" unicode="&#x6d1;" horiz-adv-x="684" 
d="M153 153q100 0 132.5 28.5t44.5 64.5t12 93v444h156v-451q0 -263 -184 -323q-70 -23 -171 -23h-143q-35 0 -52.5 26t-17.5 58t17.5 57.5t52.5 25.5h153zM480 -567h-185v181h185v-181zM641 -287h-185v181h185v-181zM319 -287h-185v181h185v-181z" />
    <glyph glyph-name="uni06D1.medi" unicode="&#x6d1;" horiz-adv-x="684" 
d="M662 -14q-188 0 -250 123h-4q-91 -123 -265 -123h-143q-35 0 -52.5 26t-17.5 58t17.5 57.5t52.5 25.5h153q121 -1 171 97q18 36 18 89v444h156v-375q0 -144 25.5 -184.5t62.5 -55.5t98 -15v-167h-22zM480 -567h-185v181h185v-181zM641 -287h-185v181h185v-181zM319 -287
h-185v181h185v-181z" />
    <glyph glyph-name="uni06D1.fina" unicode="&#x6d1;" horiz-adv-x="1710" 
d="M1029 244q0 25 -25.5 82.5t-25.5 98.5q0 80 62 135q64 55 138 55q74 -1 124 -33q71 -46 129 -186t118 -191.5t161 -51.5v-167h-22q-171 0 -270 130q-51 67 -83 136.5t-55 113.5t-44.5 67t-50 23t-44 -18t-15.5 -38t28.5 -81.5t28.5 -108t-20.5 -83.5t-56.5 -65
q-136 -107 -432 -108q-274 0 -408 148q-112 122 -112 344q0 113 35 255h154q-32 -146 -32 -229q0 -173 78 -252q95 -97 335 -97q305 0 305 121zM805 -572h-185v181h185v-181zM966 -292h-185v181h185v-181zM644 -292h-185v181h185v-181z" />
    <glyph glyph-name="uni06D2" unicode="&#x6d2;" horiz-adv-x="1881" arabic-form="isolated" 
d="M1765 26q-456 -48 -825 -48t-493.5 27t-180.5 53q-152 72 -152 224t152 262q68 49 155.5 99t169.5 99.5t157 116.5l95 -136q-136 -113 -313.5 -209t-218.5 -132t-41 -81q0 -88 137.5 -121t537.5 -33t820 44v-165z" />
    <glyph glyph-name="uni06D3" unicode="&#x6d3;" horiz-adv-x="1881" arabic-form="isolated" 
d="M1765 26q-456 -48 -825 -48t-493.5 27t-180.5 53q-152 72 -152 224t152 262q68 49 155.5 99t169.5 99.5t157 116.5l95 -136q-136 -113 -313.5 -209t-218.5 -132t-41 -81q0 -88 137.5 -121t537.5 -33t820 44v-165zM484 1242q-107 0 -107 -80q0 -88 142 -88h70v-97h-345v91
h85l1 5q-45 51 -45 99q0 82 53.5 126t139.5 44q31 0 64 -6v-101q-30 7 -58 7z" />
    <glyph glyph-name="uni06D5.fina" unicode="&#x6d5;" horiz-adv-x="1026" 
d="M552 338q68 0 132 21v374q-258 -47 -344 -167q-30 -40 -29 -84q0 -44 18 -70t47 -44q28 -16 68 -23t108 -7zM533 175q-171 0 -271 71q-101 71 -101 215q0 177 151 285q151 107 372 140v97h156v-587q0 -132 38 -188q38 -55 148 -55v-167h-22q-181 0 -265 119
q-29 41 -43 99q-74 -29 -163 -29z" />
    <glyph glyph-name="uni06EE.fina" unicode="&#x6ee;" horiz-adv-x="1026" 
d="M412 147q136 0 199.5 35.5t63.5 113.5q0 134 -109 466q-32 98 -68 192h166q94 -281 162 -580q20 -93 48 -135q58 -86 152 -86v-167h-22q-157 0 -212 149h-5q-91 -157 -386 -157q-122 0 -287 22l-32 169q194 -22 330 -22zM601 1541l236 -352h-125l-171 255l-168 -255h-121
l230 352h119z" />
    <glyph glyph-name="uni06EF.fina" unicode="&#x6ef;" horiz-adv-x="855" 
d="M513 59q0 223 -113 547h161q59 -151 87 -316q18 -107 118 -129q36 -8 89 -8v-167h-22q-110 0 -162 69l-5 -1q0 -273 -124 -420t-326 -147q-104 0 -216 45v165q124 -39 213 -39q300 0 300 401zM470 1199l236 -352h-125l-171 255l-168 -255h-121l230 352h119z" />
    <glyph glyph-name="uni06FA.init" unicode="&#x6fa;" horiz-adv-x="1710" 
d="M670 153q185 0 185 186v267h156v-198q0 -146 25 -185.5t61 -54.5t86 -15q98 0 141.5 40t43.5 146v444h156v-457q0 -196 -104 -278q-78 -62 -228 -62q-196 0 -259 123h-4q-91 -123 -273 -123t-244 123h-4q-91 -123 -265 -123h-143q-35 0 -52.5 26t-17.5 58t17.5 57.5
t52.5 25.5h153q121 -1 171 97q18 36 18 89v267h156v-201q0 -141 23.5 -181.5t57.5 -55.5t91 -15zM1025 1130h-185v181h185v-181zM1186 850h-185v181h185v-181zM864 850h-185v181h185v-181zM1025 -346h-185v181h185v-181z" />
    <glyph glyph-name="uni06FA.medi" unicode="&#x6fa;" horiz-adv-x="1710" 
d="M670 153q185 0 185 186v267h156v-198q0 -146 25 -185.5t61 -54.5t86 -15q98 0 141.5 40t43.5 146v444h156v-369q0 -145 25.5 -187.5t62 -58t98.5 -15.5v-167h-22q-176 0 -236 111h-6q-77 -111 -263.5 -111t-249.5 123h-4q-91 -123 -273 -123t-244 123h-4
q-91 -123 -265 -123h-143q-35 0 -52.5 26t-17.5 58t17.5 57.5t52.5 25.5h153q121 -1 171 97q18 36 18 89v267h156v-201q0 -141 23.5 -181.5t57.5 -55.5t91 -15zM1025 1130h-185v181h185v-181zM1186 850h-185v181h185v-181zM864 850h-185v181h185v-181zM1025 -346h-185v181
h185v-181z" />
    <glyph glyph-name="uni06FA.fina" unicode="&#x6fa;" horiz-adv-x="2394" 
d="M1365 153q174 0 174 186v267h156v-198q0 -146 25 -185.5t61 -54.5t86 -15q98 0 141.5 40t43.5 146v444h156v-369q0 -145 25.5 -187.5t62 -58t98.5 -15.5v-167h-22q-176 0 -236 111h-6q-77 -111 -263.5 -111t-249.5 123h-4q-88 -123 -257 -123q-118 0 -173 70l-5 -1
q-6 -277 -133 -422.5t-408 -145.5q-385 -1 -459 287q-24 92 -23.5 207.5t29.5 277.5h151q-23 -157 -23 -255q0 -194 75 -271t271 -77t284.5 105t88.5 362q0 135 -34 390h155q15 -116 25 -231q6 -66 50 -97.5t138 -31.5zM1709 1130h-185v181h185v-181zM1870 850h-185v181h185
v-181zM1548 850h-185v181h185v-181zM1709 -346h-185v181h185v-181z" />
    <glyph glyph-name="uni06FB.init" unicode="&#x6fb;" horiz-adv-x="2052" 
d="M1156 147q228 0 309 5q81 4 135 24q110 39 110 168q0 315 -330 315q-203 0 -361.5 -153.5t-228.5 -355.5q138 -3 366 -3zM334 324.5q0 57.5 -28 188.5h154q11 -63 17.5 -120t12.5 -97q10 -70 42 -103.5t107 -37.5q89 241 267 433q222 240 510 240q219 0 335 -132.5
t116 -337.5q1 -254 -183 -330q-102 -42 -224 -46q-124 -4 -254 -4q-357 0 -500 5t-185.5 23.5t-65.5 43t-43 59.5h-4q-91 -123 -265 -123h-143q-35 0 -52.5 26t-17.5 58t17.5 57.5t52.5 25.5h153q75 -1 129 43q24 20 38 45.5t14 83zM1147 1021h-185v181h185v-181zM1261 -346
h-185v181h185v-181z" />
    <glyph glyph-name="uni06FB.medi" unicode="&#x6fb;" horiz-adv-x="2052" 
d="M1156 147q228 0 309 5q81 4 135 24q110 39 110 168q0 315 -330 315q-203 0 -361.5 -153.5t-228.5 -355.5q138 -3 366 -3zM334 324.5q0 57.5 -28 188.5h154q11 -63 17.5 -120t12.5 -97q10 -70 42 -103.5t107 -37.5q89 241 267 433q222 240 510 240q217 0 332 -128.5
t119 -324.5q2 -121 40.5 -171.5t144.5 -50.5v-167h-22q-94 0 -152 29t-89 98h-6q-93 -122 -365 -132q-78 -3 -210 -3q-358 0 -501.5 5t-186 23.5t-65.5 43t-43 59.5h-4q-91 -123 -265 -123h-143q-35 0 -52.5 26t-17.5 58t17.5 57.5t52.5 25.5h153q75 -1 129 43
q24 20 38 45.5t14 83zM1147 1021h-185v181h185v-181zM1261 -346h-185v181h185v-181z" />
    <glyph glyph-name="uni06FB.fina" unicode="&#x6fb;" horiz-adv-x="2737" 
d="M1840 147q228 0 309 5q81 4 135 24q110 39 110 168q0 315 -330 315q-269 -1 -465 -271q-80 -111 -125 -238q138 -3 366 -3zM1031 155.5q0 161.5 -41 357.5h154q11 -63 17.5 -120t12.5 -97q10 -70 42 -103.5t107 -37.5q89 241 267 433q222 240 510 240q217 0 332 -128.5
t119 -324.5q2 -121 40.5 -171.5t144.5 -50.5v-167h-22q-94 0 -152 29t-89 98h-6q-93 -122 -365 -132q-78 -3 -202 -3q-563 0 -621 17t-96 61l-5 -1q-6 -277 -133.5 -422.5t-412.5 -145.5q-380 -1 -454 287q-24 92 -23.5 207.5t29.5 277.5h151q-23 -157 -23 -255
q0 -194 75 -271t271 -77t284 104q46 55 67.5 144.5t21.5 251zM1831 1021h-185v181h185v-181zM1945 -346h-185v181h185v-181z" />
    <glyph glyph-name="uni06FC.init" unicode="&#x6fc;" horiz-adv-x="1198" 
d="M655 738q-328 0 -328 -232q0 -172 239 -327q249 49 517 175l1 -183q-328 -151 -632 -177q-98 -8 -202 -8h-250q-35 0 -52.5 26t-17.5 58t17.5 57.5t52.5 25.5h369l1 6q-199 164 -199 356q0 164 138 278q138 113 368 113q86 0 177 -17v-170q-109 19 -199 19zM634 1071
h-185v181h185v-181zM634 -346h-185v181h185v-181z" />
    <glyph glyph-name="uni06FC.medi" unicode="&#x6fc;" horiz-adv-x="1197" 
d="M855 612q0 93 -224 93q-97 0 -307 -23v-11q142 -219 341 -355q140 110 180 243q10 33 10 53zM652 862q360 0 360 -203q0 -141 -119 -309q-41 -58 -98 -112q184 -85 402 -85v-167h-62q-257 0 -483 143q-230 -143 -549 -143h-103q-35 0 -52.5 26t-17.5 58t17.5 57.5
t52.5 25.5h113q232 0 406 77q-198 164 -348 408v173q328 51 481 51zM691 1021h-185v181h185v-181zM691 -346h-185v181h185v-181z" />
    <glyph glyph-name="uni06FC.fina" unicode="&#x6fc;" horiz-adv-x="1197" 
d="M632 760q-98 0 -308 -23v-13q113 -176 248 -305q150 67 216.5 138t66.5 115q0 88 -223 88zM1197 153v-167h-62q-321 0 -606 263q-272 -113 -272 -295q0 -217 224 -288q79 -25 192 -25q187 0 396 73v-154q-209 -73 -381 -73q-306 0 -446.5 126t-140.5 315.5t163 323.5
q63 52 161 102q-89 95 -160.5 202t-93.5 145v165q328 51 482 51q359 0 359 -196q0 -151 -163 -293q-64 -56 -166 -104q234 -171 493 -171h21zM691 1141h-185v181h185v-181zM691 -174h-185v181h185v-181z" />
    <glyph glyph-name="uni06FF.init" unicode="&#x6ff;" horiz-adv-x="1368" 
d="M758 471q0 -174 -87 -278q131 -51 296 -64q29 45 29 93q0 84 -66.5 177t-183.5 202l-5 -5q17 -60 17 -125zM631 483q0 85 -48 153t-101.5 68t-107 -73.5t-53.5 -140.5t33 -108q62 -76 193 -143q84 104 84 244zM0 -14q-35 0 -52.5 26t-17.5 58t17.5 57.5t52.5 25.5l230 -2
q132 0 188 3l1 4q-203 82 -237 218q-10 42 -10 93q0 112 72.5 229.5t179.5 149.5l1 6l-83 54v199q376 -211 610 -475q102 -116 154.5 -215t52.5 -155q0 -114 -50 -195t-136 -81q-123 0 -286 47q-59 17 -116 43q-118 -90 -413 -90h-158zM658 1600l236 -352h-125l-171 255
l-168 -255h-121l230 352h119z" />
    <glyph glyph-name="uni06FF.medi" unicode="&#x6ff;" horiz-adv-x="1026" 
d="M654.5 -309q29.5 36 29.5 79q0 87 -66 151.5t-171 64.5h-124q7 -164 79.5 -247.5t147.5 -83.5t104.5 36zM464 153q94 0 157.5 90.5t63.5 189.5q1 99 -23 153q-43 99 -85 99q-26 0 -61.5 -35.5t-71.5 -103.5q-85 -163 -110 -393h130zM841 -249q0 -107 -78.5 -185.5
t-206.5 -78.5q-128 -1 -237 103q-137 128 -148 396h-171q-35 0 -52.5 26t-17.5 58t17.5 57.5t52.5 25.5h180q72 457 290 637q77 64 132 64q99 0 169 -121t70 -259q0 -192 -142 -314l2 -7h325v-167h-320l-1 -6q136 -85 136 -229zM601 1450l236 -352h-125l-171 255l-168 -255
h-121l230 352h119z" />
    <glyph glyph-name="uni06FF.fina" unicode="&#x6ff;" horiz-adv-x="1368" 
d="M996.5 -309q29.5 36 29.5 79q0 87 -66 151.5t-171 64.5h-124q7 -164 79.5 -247.5t147.5 -83.5t104.5 36zM806 153q94 0 157.5 90.5t63.5 188.5q1 98 -23 154q-42 99 -84 99q-26 0 -62 -35.5t-72 -103.5q-84 -157 -110 -393h130zM945 854q99 0 168.5 -122t69.5 -260
q0 -185 -142 -312l2 -7h325v-167h-320l-1 -6q136 -85 136 -227q0 -107 -77.5 -186.5t-205.5 -79.5q-128 -1 -239 103q-137 128 -148 396q-277 0 -378 16l-32 169q158 -18 419 -18q73 459 290 637q78 64 133 64zM943 1450l236 -352h-125l-171 255l-168 -255h-121l230 352h119
z" />
    <glyph glyph-name="uniFB51" unicode="&#x671;" horiz-adv-x="513" arabic-form="final" 
d="M513 -14h-20q-187 0 -263 113q-58 86 -59 250v1167h156v-1108q0 -145 24 -185t61 -55t101 -15v-167zM369.5 1785.5q32.5 32.5 32.5 69.5t-22 56.5t-57 19.5t-74 -35t-71 -118q65 -25 112 -25t79.5 32.5zM58 1806q26 0 44 -5q72 223 232 223q74 0 118 -48t44 -102
q0 -95 -61.5 -154t-145.5 -59q-48 0 -123 26t-119.5 26t-104.5 -46l-47 74q95 65 163 65z" />
    <glyph glyph-name="uniFB53" unicode="&#x67b;" horiz-adv-x="1881" arabic-form="final" 
d="M328 416q0 -67 15.5 -116.5t53.5 -77.5q66 -48 195.5 -61.5t347 -13.5t313.5 5q95 6 159 26q126 41 127 175v430h156v-375q0 -144 25.5 -184.5t62 -55.5t98.5 -15v-167h-22q-97 0 -153 29t-88 93h-4q-111 -120 -419 -128q-90 -2 -206 -2q-307 0 -463.5 18t-231.5 82.5
t-99 140.5t-24 165t29 223h154q-26 -124 -26 -191zM1034 -287h-185v181h185v-181zM1034 -567h-185v181h185v-181z" />
    <glyph glyph-name="uniFB54" unicode="&#x67b;" horiz-adv-x="684" arabic-form="initial" 
d="M153 153q100 0 132.5 28.5t44.5 64.5t12 93v444h156v-451q0 -263 -184 -323q-70 -23 -171 -23h-143q-35 0 -52.5 26t-17.5 58t17.5 57.5t52.5 25.5h153zM480 -287h-185v181h185v-181zM480 -567h-185v181h185v-181z" />
    <glyph glyph-name="uniFB55" unicode="&#x67b;" horiz-adv-x="684" arabic-form="medial" 
d="M662 -14q-188 0 -250 123h-4q-91 -123 -265 -123h-143q-35 0 -52.5 26t-17.5 58t17.5 57.5t52.5 25.5h153q121 -1 171 97q18 36 18 89v444h156v-375q0 -144 25.5 -184.5t62.5 -55.5t98 -15v-167h-22zM480 -287h-185v181h185v-181zM480 -567h-185v181h185v-181z" />
    <glyph glyph-name="uniFB57" unicode="&#x67e;" horiz-adv-x="1881" arabic-form="final" 
d="M328 416q0 -67 15.5 -116.5t53.5 -77.5q66 -48 195.5 -61.5t347 -13.5t313.5 5q95 6 159 26q126 41 127 175v430h156v-375q0 -144 25.5 -184.5t62 -55.5t98.5 -15v-167h-22q-97 0 -153 29t-88 93h-4q-111 -120 -419 -128q-90 -2 -206 -2q-307 0 -463.5 18t-231.5 82.5
t-99 140.5t-24 165t29 223h154q-26 -124 -26 -191zM1034 -567h-185v181h185v-181zM1195 -287h-185v181h185v-181zM873 -287h-185v181h185v-181z" />
    <glyph glyph-name="uniFB58" unicode="&#x67e;" horiz-adv-x="684" arabic-form="initial" 
d="M153 153q100 0 132.5 28.5t44.5 64.5t12 93v444h156v-451q0 -263 -184 -323q-70 -23 -171 -23h-143q-35 0 -52.5 26t-17.5 58t17.5 57.5t52.5 25.5h153zM480 -567h-185v181h185v-181zM641 -287h-185v181h185v-181zM319 -287h-185v181h185v-181z" />
    <glyph glyph-name="uniFB59" unicode="&#x67e;" horiz-adv-x="684" arabic-form="medial" 
d="M662 -14q-188 0 -250 123h-4q-91 -123 -265 -123h-143q-35 0 -52.5 26t-17.5 58t17.5 57.5t52.5 25.5h153q121 -1 171 97q18 36 18 89v444h156v-375q0 -144 25.5 -184.5t62.5 -55.5t98 -15v-167h-22zM480 -567h-185v181h185v-181zM641 -287h-185v181h185v-181zM319 -287
h-185v181h185v-181z" />
    <glyph glyph-name="uniFB5B" unicode="&#x680;" horiz-adv-x="1881" arabic-form="final" 
d="M328 416q0 -67 15.5 -116.5t53.5 -77.5q66 -48 195.5 -61.5t347 -13.5t313.5 5q95 6 159 26q126 41 127 175v430h156v-375q0 -144 25.5 -184.5t62 -55.5t98.5 -15v-167h-22q-97 0 -153 29t-88 93h-4q-111 -120 -419 -128q-90 -2 -206 -2q-307 0 -463.5 18t-231.5 82.5
t-99 140.5t-24 165t29 223h154q-26 -124 -26 -191zM1195 -287h-185v181h185v-181zM873 -287h-185v181h185v-181zM1195 -567h-185v181h185v-181zM873 -567h-185v181h185v-181z" />
    <glyph glyph-name="uniFB5C" unicode="&#x680;" horiz-adv-x="684" arabic-form="initial" 
d="M153 153q100 0 132.5 28.5t44.5 64.5t12 93v444h156v-451q0 -263 -184 -323q-70 -23 -171 -23h-143q-35 0 -52.5 26t-17.5 58t17.5 57.5t52.5 25.5h153zM641 -287h-185v181h185v-181zM319 -287h-185v181h185v-181zM641 -567h-185v181h185v-181zM319 -567h-185v181h185
v-181z" />
    <glyph glyph-name="uniFB5D" unicode="&#x680;" horiz-adv-x="684" arabic-form="medial" 
d="M662 -14q-188 0 -250 123h-4q-91 -123 -265 -123h-143q-35 0 -52.5 26t-17.5 58t17.5 57.5t52.5 25.5h153q121 -1 171 97q18 36 18 89v444h156v-375q0 -144 25.5 -184.5t62.5 -55.5t98 -15v-167h-22zM641 -287h-185v181h185v-181zM319 -287h-185v181h185v-181zM641 -567
h-185v181h185v-181zM319 -567h-185v181h185v-181z" />
    <glyph glyph-name="uniFB5F" unicode="&#x67a;" horiz-adv-x="1881" arabic-form="final" 
d="M328 416q0 -67 15.5 -116.5t53.5 -77.5q66 -48 195.5 -61.5t347 -13.5t313.5 5q95 6 159 26q126 41 127 175v430h156v-375q0 -144 25.5 -184.5t62 -55.5t98.5 -15v-167h-22q-97 0 -153 29t-88 93h-4q-111 -120 -419 -128q-90 -2 -206 -2q-307 0 -463.5 18t-231.5 82.5
t-99 140.5t-24 165t29 223h154q-26 -124 -26 -191zM1034 1301h-185v181h185v-181zM1034 1021h-185v181h185v-181z" />
    <glyph glyph-name="uniFB60" unicode="&#x67a;" horiz-adv-x="684" arabic-form="initial" 
d="M153 153q100 0 132.5 28.5t44.5 64.5t12 93v444h156v-451q0 -263 -184 -323q-70 -23 -171 -23h-143q-35 0 -52.5 26t-17.5 58t17.5 57.5t52.5 25.5h153zM505 1301h-185v181h185v-181zM505 1021h-185v181h185v-181z" />
    <glyph glyph-name="uniFB61" unicode="&#x67a;" horiz-adv-x="684" arabic-form="medial" 
d="M662 -14q-188 0 -250 123h-4q-91 -123 -265 -123h-143q-35 0 -52.5 26t-17.5 58t17.5 57.5t52.5 25.5h153q121 -1 171 97q18 36 18 89v444h156v-375q0 -144 25.5 -184.5t62.5 -55.5t98 -15v-167h-22zM505 1301h-185v181h185v-181zM505 1021h-185v181h185v-181z" />
    <glyph glyph-name="uniFB63" unicode="&#x67f;" horiz-adv-x="1881" arabic-form="final" 
d="M328 416q0 -67 15.5 -116.5t53.5 -77.5q66 -48 195.5 -61.5t347 -13.5t313.5 5q95 6 159 26q126 41 127 175v430h156v-375q0 -144 25.5 -184.5t62 -55.5t98.5 -15v-167h-22q-97 0 -153 29t-88 93h-4q-111 -120 -419 -128q-90 -2 -206 -2q-307 0 -463.5 18t-231.5 82.5
t-99 140.5t-24 165t29 223h154q-26 -124 -26 -191zM1195 1301h-185v181h185v-181zM873 1301h-185v181h185v-181zM1195 1021h-185v181h185v-181zM873 1021h-185v181h185v-181z" />
    <glyph glyph-name="uniFB64" unicode="&#x67f;" horiz-adv-x="684" arabic-form="initial" 
d="M153 153q100 0 132.5 28.5t44.5 64.5t12 93v444h156v-451q0 -263 -184 -323q-70 -23 -171 -23h-143q-35 0 -52.5 26t-17.5 58t17.5 57.5t52.5 25.5h153zM666 1301h-185v181h185v-181zM344 1301h-185v181h185v-181zM666 1021h-185v181h185v-181zM344 1021h-185v181h185
v-181z" />
    <glyph glyph-name="uniFB65" unicode="&#x67f;" horiz-adv-x="684" arabic-form="medial" 
d="M662 -14q-188 0 -250 123h-4q-91 -123 -265 -123h-143q-35 0 -52.5 26t-17.5 58t17.5 57.5t52.5 25.5h153q121 -1 171 97q18 36 18 89v444h156v-375q0 -144 25.5 -184.5t62.5 -55.5t98 -15v-167h-22zM666 1301h-185v181h185v-181zM344 1301h-185v181h185v-181zM666 1021
h-185v181h185v-181zM344 1021h-185v181h185v-181z" />
    <glyph glyph-name="uniFB67" unicode="&#x679;" horiz-adv-x="1881" arabic-form="final" 
d="M328 416q0 -67 15.5 -116.5t53.5 -77.5q66 -48 195.5 -61.5t347 -13.5t313.5 5q95 6 159 26q126 41 127 175v430h156v-375q0 -144 25.5 -184.5t62 -55.5t98.5 -15v-167h-22q-97 0 -153 29t-88 93h-4q-111 -120 -419 -128q-90 -2 -206 -2q-307 0 -463.5 18t-231.5 82.5
t-99 140.5t-24 165t29 223h154q-26 -124 -26 -191zM975 960q118 0 142 8q42 14 42 67.5t-32.5 81.5t-72.5 28q-71 0 -126 -52.5t-88 -132.5h135zM754 1465h89v-347l3 -1q81 132 213 132q91 0 136.5 -63t45.5 -142.5t-19.5 -114.5t-60.5 -54.5t-143 -19.5q-290 0 -378 11
l-13 103q21 -2 127 -7v503z" />
    <glyph glyph-name="uniFB68" unicode="&#x679;" horiz-adv-x="684" arabic-form="initial" 
d="M153 153q100 0 132.5 28.5t44.5 64.5t12 93v444h156v-451q0 -263 -184 -323q-70 -23 -171 -23h-143q-35 0 -52.5 26t-17.5 58t17.5 57.5t52.5 25.5h153zM404 1081q118 0 142 8q42 14 42 67.5t-32 81.5q-34 28 -74 28q-71 0 -125.5 -52.5t-87.5 -132.5h135zM183 1586h89
v-347l3 -1q81 132 213 132q91 0 136.5 -63t45.5 -142.5t-19.5 -114.5t-60.5 -54.5t-143 -19.5q-290 0 -378 11l-13 103q21 -2 127 -7v503z" />
    <glyph glyph-name="uniFB69" unicode="&#x679;" horiz-adv-x="684" arabic-form="medial" 
d="M662 -14q-188 0 -250 123h-4q-91 -123 -265 -123h-143q-35 0 -52.5 26t-17.5 58t17.5 57.5t52.5 25.5h153q121 -1 171 97q18 36 18 89v444h156v-375q0 -144 25.5 -184.5t62.5 -55.5t98 -15v-167h-22zM404 1081q118 0 142 8q42 14 42 67.5t-32 81.5q-34 28 -74 28
q-71 0 -125.5 -52.5t-87.5 -132.5h135zM183 1586h89v-347l3 -1q81 132 213 132q91 0 136.5 -63t45.5 -142.5t-19.5 -114.5t-60.5 -54.5t-143 -19.5q-290 0 -378 11l-13 103q21 -2 127 -7v503z" />
    <glyph glyph-name="uniFB6B" unicode="&#x6a4;" horiz-adv-x="2052" arabic-form="final" 
d="M1648 204q62 43 62 149.5t-64 223t-130 116.5t-114.5 -68t-48.5 -144q-1 -102 147 -197q58 -37 148 -80zM328 416q0 -147 73 -197.5t214 -61t436.5 -10.5t393.5 5l2 6q-203 82 -237 218q-10 42 -10 97.5t24 126t66 130.5q98 136 227 136q165 0 285 -239
q64 -129 64.5 -255t-51.5 -207q75 -12 237 -12v-167h-22q-214 0 -365 58q-126 -58 -369 -64q-69 -2 -138 -2h-185q-308 0 -413 13q-192 24 -266.5 87.5t-98.5 140t-24 165.5t29 223h154q-26 -124 -26 -191zM1588 1415h-185v181h185v-181zM1749 1135h-185v181h185v-181z
M1427 1135h-185v181h185v-181z" />
    <glyph glyph-name="uniFB6C" unicode="&#x6a4;" horiz-adv-x="1026" arabic-form="initial" 
d="M622 204q62 45 62 151q0 105 -64 221q-64 117 -138 117q-56 0 -106 -67q-49 -67 -49 -141q0 -73 64 -138q63 -65 231 -143zM200 153q111 0 219 -2l2 7q-203 82 -237 218q-10 42 -10 97.5t24 126t66 130.5q98 136 233 136t239 -172q105 -172 105 -325q-1 -257 -219 -335
q-116 -42 -238 -45t-193 -3h-191q-35 0 -52.5 26t-17.5 58t17.5 57.5t52.5 25.5h200zM562 1415h-185v181h185v-181zM723 1135h-185v181h185v-181zM401 1135h-185v181h185v-181z" />
    <glyph glyph-name="uniFB6D" unicode="&#x6a4;" horiz-adv-x="1026" arabic-form="medial" 
d="M626 202q58 42 58 150t-64 224q-64 117 -130 117t-114 -68q-49 -68 -49 -144q0 -103 150 -199q58 -37 149 -80zM200 153q111 0 219 -2l2 7q-203 82 -237 218q-10 42 -10 97.5t24 126t66 130.5q98 136 227 136q165 0 285 -239q64 -129 64.5 -256t-51.5 -206
q75 -12 237 -12v-167h-22q-215 0 -366 58q-121 -53 -337 -57q-58 -1 -110 -1h-191q-35 0 -52.5 26t-17.5 58t17.5 57.5t52.5 25.5h200zM562 1415h-185v181h185v-181zM723 1135h-185v181h185v-181zM401 1135h-185v181h185v-181z" />
    <glyph glyph-name="uniFB6F" unicode="&#x6a6;" horiz-adv-x="2052" arabic-form="final" 
d="M1648 204q62 43 62 149.5t-64 223t-130 116.5t-114.5 -68t-48.5 -144q-1 -102 147 -197q58 -37 148 -80zM328 416q0 -147 73 -197.5t214 -61t436.5 -10.5t393.5 5l2 6q-203 82 -237 218q-10 42 -10 97.5t24 126t66 130.5q98 136 227 136q165 0 285 -239
q64 -129 64.5 -255t-51.5 -207q75 -12 237 -12v-167h-22q-214 0 -365 58q-126 -58 -369 -64q-69 -2 -138 -2h-185q-308 0 -413 13q-192 24 -266.5 87.5t-98.5 140t-24 165.5t29 223h154q-26 -124 -26 -191zM1749 1415h-185v181h185v-181zM1427 1415h-185v181h185v-181z
M1749 1135h-185v181h185v-181zM1427 1135h-185v181h185v-181z" />
    <glyph glyph-name="uniFB70" unicode="&#x6a6;" horiz-adv-x="1026" arabic-form="initial" 
d="M622 204q62 45 62 151q0 105 -64 221q-64 117 -138 117q-56 0 -106 -67q-49 -67 -49 -141q0 -73 64 -138q63 -65 231 -143zM200 153q111 0 219 -2l2 7q-203 82 -237 218q-10 42 -10 97.5t24 126t66 130.5q98 136 233 136t239 -172q105 -172 105 -325q-1 -257 -219 -335
q-116 -42 -238 -45t-193 -3h-191q-35 0 -52.5 26t-17.5 58t17.5 57.5t52.5 25.5h200zM723 1415h-185v181h185v-181zM401 1415h-185v181h185v-181zM723 1135h-185v181h185v-181zM401 1135h-185v181h185v-181z" />
    <glyph glyph-name="uniFB71" unicode="&#x6a6;" horiz-adv-x="1026" arabic-form="medial" 
d="M626 202q58 42 58 150t-64 224q-64 117 -130 117t-114 -68q-49 -68 -49 -144q0 -103 150 -199q58 -37 149 -80zM200 153q111 0 219 -2l2 7q-203 82 -237 218q-10 42 -10 97.5t24 126t66 130.5q98 136 227 136q165 0 285 -239q64 -129 64.5 -256t-51.5 -206
q75 -12 237 -12v-167h-22q-215 0 -366 58q-121 -53 -337 -57q-58 -1 -110 -1h-191q-35 0 -52.5 26t-17.5 58t17.5 57.5t52.5 25.5h200zM723 1415h-185v181h185v-181zM401 1415h-185v181h185v-181zM723 1135h-185v181h185v-181zM401 1135h-185v181h185v-181z" />
    <glyph glyph-name="uniFB73" unicode="&#x684;" horiz-adv-x="1197" arabic-form="final" 
d="M402.5 852q106.5 0 161 -11t101 -27.5t88 -36t118.5 -47.5t197 -30l-32 -187q-68 -18 -128 -36q10 -187 75.5 -255.5t213.5 -68.5v-167h-24q-369 0 -391 449q-397 -143 -475 -344q-25 -63 -25 -131q0 -144 101.5 -231.5t299 -87.5t406.5 73v-154q-209 -73 -379 -73
q-305 0 -444.5 126t-139.5 324q0 353 440 565q102 50 237 92v8q-50 16 -88.5 32t-103.5 36t-193.5 20t-246.5 -36v157q125 41 231.5 41zM750 39h-185v181h185v-181zM750 -241h-185v181h185v-181z" />
    <glyph glyph-name="uniFB74" unicode="&#x684;" horiz-adv-x="1197" arabic-form="initial" 
d="M406 783q110 0 172 -14.5t115 -36t101 -46.5q190 -98 354 -100l-32 -200q-43 -10 -100.5 -43t-130.5 -77q-203 -124 -354 -184q-239 -96 -481 -96h-50q-35 0 -52.5 26t-17.5 58t17.5 57.5t52.5 25.5h59q307 0 649 200q96 56 186 113v5q-57 27 -105 53q-175 96 -339 96.5
t-279 -35.5v157q125 41 235 41zM691 -287h-185v181h185v-181zM691 -567h-185v181h185v-181z" />
    <glyph glyph-name="uniFB75" unicode="&#x684;" horiz-adv-x="1197" arabic-form="medial" 
d="M406 783q110 0 172 -14.5t115 -36t101 -46.5q190 -98 354 -100l-32 -200q-51 -13 -161 -78q2 -89 49.5 -122t192.5 -33v-167h-20q-261 0 -312 158q-15 46 -17 99q-193 -115 -318 -162q-253 -95 -480 -95h-50q-35 0 -52.5 26t-17.5 58t17.5 57.5t52.5 25.5h59
q307 0 649 200q96 56 186 113v5q-57 27 -105 53q-175 96 -339 96.5t-279 -35.5v157q125 41 235 41zM691 -287h-185v181h185v-181zM691 -567h-185v181h185v-181z" />
    <glyph glyph-name="uniFB77" unicode="&#x683;" horiz-adv-x="1197" arabic-form="final" 
d="M402.5 852q106.5 0 161 -11t101 -27.5t88 -36t118.5 -47.5t197 -30l-32 -187q-68 -18 -128 -36q10 -187 75.5 -255.5t213.5 -68.5v-167h-24q-369 0 -391 449q-397 -143 -475 -344q-25 -63 -25 -131q0 -144 101.5 -231.5t299 -87.5t406.5 73v-154q-209 -73 -379 -73
q-305 0 -444.5 126t-139.5 324q0 353 440 565q102 50 237 92v8q-50 16 -88.5 32t-103.5 36t-193.5 20t-246.5 -36v157q125 41 231.5 41zM916 -144h-185v181h185v-181zM594 -144h-185v181h185v-181z" />
    <glyph glyph-name="uniFB78" unicode="&#x683;" horiz-adv-x="1197" arabic-form="initial" 
d="M406 783q110 0 172 -14.5t115 -36t101 -46.5q190 -98 354 -100l-32 -200q-43 -10 -100.5 -43t-130.5 -77q-203 -124 -354 -184q-239 -96 -481 -96h-50q-35 0 -52.5 26t-17.5 58t17.5 57.5t52.5 25.5h59q307 0 649 200q96 56 186 113v5q-57 27 -105 53q-175 96 -339 96.5
t-279 -35.5v157q125 41 235 41zM852 -346h-185v181h185v-181zM530 -346h-185v181h185v-181z" />
    <glyph glyph-name="uniFB79" unicode="&#x683;" horiz-adv-x="1197" arabic-form="medial" 
d="M406 783q110 0 172 -14.5t115 -36t101 -46.5q190 -98 354 -100l-32 -200q-51 -13 -161 -78q2 -89 49.5 -122t192.5 -33v-167h-20q-261 0 -312 158q-15 46 -17 99q-193 -115 -318 -162q-253 -95 -480 -95h-50q-35 0 -52.5 26t-17.5 58t17.5 57.5t52.5 25.5h59
q307 0 649 200q96 56 186 113v5q-57 27 -105 53q-175 96 -339 96.5t-279 -35.5v157q125 41 235 41zM852 -346h-185v181h185v-181zM530 -346h-185v181h185v-181z" />
    <glyph glyph-name="uniFB7B" unicode="&#x686;" horiz-adv-x="1368" arabic-form="final" 
d="M1337 153h31v-167h-55q-152 0 -236 88t-92 230q62 22 126 38q6 -104 64 -146.5t162 -42.5zM402.5 852q106.5 0 161 -11t101 -27.5t88 -36t118.5 -47.5t197 -30l-32 -187q-604 -159 -718 -397q-36 -76 -36 -150q0 -150 101.5 -237.5t299 -87.5t406.5 73v-154
q-209 -73 -379 -73q-305 0 -444.5 126t-139.5 324q0 353 440 565q102 50 237 92v8q-50 16 -88.5 32t-103.5 36t-193.5 20t-246.5 -36v157q125 41 231.5 41zM783 -258h-181v179h181v-179zM934 2h-181v179h181v-179zM632 2h-181v179h181v-179z" />
    <glyph glyph-name="uniFB7C" unicode="&#x686;" horiz-adv-x="1197" arabic-form="initial" 
d="M406 783q110 0 172 -14.5t115 -36t101 -46.5q190 -98 354 -100l-32 -200q-43 -10 -100.5 -43t-130.5 -77q-203 -124 -354 -184q-239 -96 -481 -96h-50q-35 0 -52.5 26t-17.5 58t17.5 57.5t52.5 25.5h59q307 0 649 200q96 56 186 113v5q-57 27 -105 53q-175 96 -339 96.5
t-279 -35.5v157q125 41 235 41zM691 -567h-185v181h185v-181zM852 -287h-185v181h185v-181zM530 -287h-185v181h185v-181z" />
    <glyph glyph-name="uniFB7D" unicode="&#x686;" horiz-adv-x="1197" arabic-form="medial" 
d="M406 783q110 0 172 -14.5t115 -36t101 -46.5q190 -98 354 -100l-32 -200q-51 -13 -161 -78q2 -89 49.5 -122t192.5 -33v-167h-20q-261 0 -312 158q-15 46 -17 99q-193 -115 -318 -162q-253 -95 -480 -95h-50q-35 0 -52.5 26t-17.5 58t17.5 57.5t52.5 25.5h59
q307 0 649 200q96 56 186 113v5q-57 27 -105 53q-175 96 -339 96.5t-279 -35.5v157q125 41 235 41zM691 -567h-185v181h185v-181zM852 -287h-185v181h185v-181zM530 -287h-185v181h185v-181z" />
    <glyph glyph-name="uniFB7F" unicode="&#x687;" horiz-adv-x="1368" arabic-form="final" 
d="M662 52h-181v179h181v-179zM662 -228h-181v179h181v-179zM934 -228h-181v179h181v-179zM1321 -14q-249 0 -387 224v-158h-181v179h169q-54 92 -86 223q-440 -149 -526 -357q-28 -67 -28 -136q0 -145 101.5 -232.5t299 -87.5t406.5 73v-154q-209 -73 -379 -73
q-305 0 -444.5 126t-139.5 324q0 353 440 565q102 50 237 92v8q-50 16 -88.5 32t-103.5 36t-193.5 20t-246.5 -36v157q125 41 231.5 41t161 -11t101 -27.5t88 -36t118.5 -47.5t197 -30l-32 -187l-75 -21q36 -159 132.5 -249t249.5 -90h25v-167h-47z" />
    <glyph glyph-name="uniFB80" unicode="&#x687;" horiz-adv-x="1197" arabic-form="initial" 
d="M406 783q110 0 172 -14.5t115 -36t101 -46.5q190 -98 354 -100l-32 -200q-43 -10 -100.5 -43t-130.5 -77q-203 -124 -354 -184q-239 -96 -481 -96h-50q-35 0 -52.5 26t-17.5 58t17.5 57.5t52.5 25.5h59q307 0 649 200q96 56 186 113v5q-57 27 -105 53q-175 96 -339 96.5
t-279 -35.5v157q125 41 235 41zM852 -287h-185v181h185v-181zM530 -287h-185v181h185v-181zM852 -567h-185v181h185v-181zM530 -567h-185v181h185v-181z" />
    <glyph glyph-name="uniFB81" unicode="&#x687;" horiz-adv-x="1197" arabic-form="medial" 
d="M406 783q110 0 172 -14.5t115 -36t101 -46.5q190 -98 354 -100l-32 -200q-51 -13 -161 -78q2 -89 49.5 -122t192.5 -33v-167h-20q-261 0 -312 158q-15 46 -17 99q-193 -115 -318 -162q-253 -95 -480 -95h-50q-35 0 -52.5 26t-17.5 58t17.5 57.5t52.5 25.5h59
q307 0 649 200q96 56 186 113v5q-57 27 -105 53q-175 96 -339 96.5t-279 -35.5v157q125 41 235 41zM852 -287h-185v181h185v-181zM530 -287h-185v181h185v-181zM852 -567h-185v181h185v-181zM530 -567h-185v181h185v-181z" />
    <glyph glyph-name="uniFB83" unicode="&#x68d;" horiz-adv-x="1026" arabic-form="final" 
d="M412 147q136 0 199.5 35.5t63.5 113.5q0 134 -109 466q-32 98 -68 192h166q94 -281 162 -580q20 -93 48 -135q58 -86 152 -86v-167h-22q-157 0 -212 149h-5q-91 -157 -386 -157q-122 0 -287 22l-32 169q194 -22 330 -22zM681 -346h-185v181h185v-181zM359 -346h-185v181
h185v-181z" />
    <glyph glyph-name="uniFB85" unicode="&#x68c;" horiz-adv-x="1026" arabic-form="final" 
d="M412 147q136 0 199.5 35.5t63.5 113.5q0 134 -109 466q-32 98 -68 192h166q94 -281 162 -580q20 -93 48 -135q58 -86 152 -86v-167h-22q-157 0 -212 149h-5q-91 -157 -386 -157q-122 0 -287 22l-32 169q194 -22 330 -22zM795 1192h-185v181h185v-181zM473 1192h-185v181
h185v-181z" />
    <glyph glyph-name="uniFB87" unicode="&#x68e;" horiz-adv-x="1026" arabic-form="final" 
d="M412 147q136 0 199.5 35.5t63.5 113.5q0 134 -109 466q-32 98 -68 192h166q94 -281 162 -580q20 -93 48 -135q58 -86 152 -86v-167h-22q-157 0 -212 149h-5q-91 -157 -386 -157q-122 0 -287 22l-32 169q194 -22 330 -22zM634 1472h-185v181h185v-181zM795 1192h-185v181
h185v-181zM473 1192h-185v181h185v-181z" />
    <glyph glyph-name="uniFB89" unicode="&#x688;" horiz-adv-x="1026" arabic-form="final" 
d="M412 147q136 0 199.5 35.5t63.5 113.5q0 134 -109 466q-32 98 -68 192h166q94 -281 162 -580q20 -93 48 -135q58 -86 152 -86v-167h-22q-157 0 -212 149h-5q-91 -157 -386 -157q-122 0 -287 22l-32 169q194 -22 330 -22zM575 1302q118 0 142 8q42 14 42 67.5t-32.5 81.5
t-72.5 28q-71 0 -126 -52.5t-88 -132.5h135zM354 1807h89v-347l3 -1q81 132 213 132q91 0 136.5 -63t45.5 -142.5t-19.5 -114.5t-60.5 -54.5t-143 -19.5q-290 0 -378 11l-13 103q21 -2 127 -7v503z" />
    <glyph glyph-name="uniFB8B" unicode="&#x698;" horiz-adv-x="855" arabic-form="final" 
d="M513 59q0 223 -113 547h161q59 -151 87 -316q18 -107 118 -129q36 -8 89 -8v-167h-22q-110 0 -162 69l-5 -1q0 -273 -124 -420t-326 -147q-104 0 -216 45v165q124 -39 213 -39q300 0 300 401zM503 1130h-185v181h185v-181zM664 850h-185v181h185v-181zM342 850h-185v181
h185v-181z" />
    <glyph glyph-name="uniFB8D" unicode="&#x691;" horiz-adv-x="855" arabic-form="final" 
d="M513 59q0 223 -113 547h161q59 -151 87 -316q18 -107 118 -129q36 -8 89 -8v-167h-22q-110 0 -162 69l-5 -1q0 -273 -124.5 -420t-325.5 -147q-104 0 -216 45v165q124 -39 213 -39q300 0 300 401zM444 960q118 0 142 8q42 14 42 67.5t-32 81.5q-34 28 -74 28
q-71 0 -125.5 -52.5t-87.5 -132.5h135zM223 1465h89v-347l3 -1q81 132 213 132q91 0 136.5 -63t45.5 -142.5t-19.5 -114.5t-60.5 -54.5t-143 -19.5q-290 0 -378 11l-13 103q21 -2 127 -7v503z" />
    <glyph glyph-name="uniFB8F" unicode="&#x6a9;" horiz-adv-x="1881" arabic-form="final" 
d="M328 416q0 -66 16 -116t52 -77q62 -46 177 -61t278 -15q250 1 342 5q212 10 263 79q26 35 26 101q0 133 -157.5 261.5t-469.5 280.5v118l843 546v-176l-666 -417q457 -217 559 -436q32 -69 41.5 -113.5t15 -66t15.5 -45.5q55 -131 218 -131v-167h-22q-192 0 -274 159h-5
q-86 -115 -270 -147q-116 -20 -316 -20q-351 0 -491 20t-212 82.5t-96 138.5t-24 165t29 223h154q-26 -124 -26 -191z" />
    <glyph glyph-name="uniFB90" unicode="&#x6a9;" horiz-adv-x="1026" arabic-form="initial" 
d="M0 -14q-35 0 -52.5 26t-17.5 58t17.5 57.5t52.5 25.5h296q271 -1 316 95q15 32 15 90.5t-44 128.5t-126 137q-145 118 -457 270v118l843 546v-176l-666 -417q299 -142 454 -290q154 -148 154 -324q0 -264 -301 -328q-80 -17 -191 -17h-293z" />
    <glyph glyph-name="uniFB91" unicode="&#x6a9;" horiz-adv-x="1026" arabic-form="medial" 
d="M0 -14q-35 0 -52.5 26t-17.5 58t17.5 57.5t52.5 25.5h296q271 -1 316 95q15 32 15 90.5t-44 128.5t-126 137q-145 118 -457 270v118l843 546v-176l-666 -417q457 -217 559 -436q32 -69 41.5 -113.5t15 -66t15.5 -45.5q55 -131 218 -131v-167h-22q-192 0 -274 159h-5
q-108 -159 -432 -159h-293z" />
    <glyph glyph-name="uniFB93" unicode="&#x6af;" horiz-adv-x="1881" arabic-form="final" 
d="M328 416q0 -66 16 -116t52 -77q62 -46 177 -61t278 -15q250 1 342 5q212 10 263 79q26 35 26 101q0 133 -157.5 261.5t-469.5 280.5v118l843 546v-176l-666 -417q457 -217 559 -436q32 -69 41.5 -113.5t15 -66t15.5 -45.5q55 -131 218 -131v-167h-22q-192 0 -274 159h-5
q-86 -115 -270 -147q-116 -20 -316 -20q-351 0 -491 20t-212 82.5t-96 138.5t-24 165t29 223h154q-26 -124 -26 -191zM855 1154v148l843 546v-148z" />
    <glyph glyph-name="uniFB94" unicode="&#x6af;" horiz-adv-x="1026" arabic-form="initial" 
d="M0 -14q-35 0 -52.5 26t-17.5 58t17.5 57.5t52.5 25.5h296q271 -1 316 95q15 32 15 90.5t-44 128.5t-126 137q-145 118 -457 270v118l843 546v-176l-666 -417q299 -142 454 -290q154 -148 154 -324q0 -264 -301 -328q-80 -17 -191 -17h-293zM0 1154v148l843 546v-148z" />
    <glyph glyph-name="uniFB95" unicode="&#x6af;" horiz-adv-x="1026" arabic-form="medial" 
d="M0 -14q-35 0 -52.5 26t-17.5 58t17.5 57.5t52.5 25.5h296q271 -1 316 95q15 32 15 90.5t-44 128.5t-126 137q-145 118 -457 270v118l843 546v-176l-666 -417q457 -217 559 -436q32 -69 41.5 -113.5t15 -66t15.5 -45.5q55 -131 218 -131v-167h-22q-192 0 -274 159h-5
q-108 -159 -432 -159h-293zM0 1154v148l843 546v-148z" />
    <glyph glyph-name="uniFB97" unicode="&#x6b3;" horiz-adv-x="1881" arabic-form="final" 
d="M328 416q0 -66 16 -116t52 -77q62 -46 177 -61t278 -15q250 1 342 5q212 10 263 79q26 35 26 101q0 133 -157.5 261.5t-469.5 280.5v118l843 546v-176l-666 -417q457 -217 559 -436q32 -69 41.5 -113.5t15 -66t15.5 -45.5q55 -131 218 -131v-167h-22q-192 0 -274 159h-5
q-86 -115 -270 -147q-116 -20 -316 -20q-351 0 -491 20t-212 82.5t-96 138.5t-24 165t29 223h154q-26 -124 -26 -191zM1034 -287h-185v181h185v-181zM1034 -567h-185v181h185v-181zM855 1154v148l843 546v-148z" />
    <glyph glyph-name="uniFB98" unicode="&#x6b3;" horiz-adv-x="1026" arabic-form="initial" 
d="M0 -14q-35 0 -52.5 26t-17.5 58t17.5 57.5t52.5 25.5h296q271 -1 316 95q15 32 15 90.5t-44 128.5t-126 137q-145 118 -457 270v118l843 546v-176l-666 -417q299 -142 454 -290q154 -148 154 -324q0 -264 -301 -328q-80 -17 -191 -17h-293zM520 -287h-185v181h185v-181z
M520 -567h-185v181h185v-181zM0 1154v148l843 546v-148z" />
    <glyph glyph-name="uniFB99" unicode="&#x6b3;" horiz-adv-x="1026" arabic-form="medial" 
d="M0 -14q-35 0 -52.5 26t-17.5 58t17.5 57.5t52.5 25.5h296q271 -1 316 95q15 32 15 90.5t-44 128.5t-126 137q-145 118 -457 270v118l843 546v-176l-666 -417q457 -217 559 -436q32 -69 41.5 -113.5t15 -66t15.5 -45.5q55 -131 218 -131v-167h-22q-192 0 -274 159h-5
q-108 -159 -432 -159h-293zM520 -287h-185v181h185v-181zM520 -567h-185v181h185v-181zM0 1154v148l843 546v-148z" />
    <glyph glyph-name="uniFB9B" unicode="&#x6b1;" horiz-adv-x="1881" arabic-form="final" 
d="M328 416q0 -66 16 -116t52 -77q62 -46 177 -61t278 -15q250 1 342 5q212 10 263 79q26 35 26 101q0 133 -157.5 261.5t-469.5 280.5v118l843 546v-176l-666 -417q457 -217 559 -436q32 -69 41.5 -113.5t15 -66t15.5 -45.5q55 -131 218 -131v-167h-22q-192 0 -274 159h-5
q-86 -115 -270 -147q-116 -20 -316 -20q-351 0 -491 20t-212 82.5t-96 138.5t-24 165t29 223h154q-26 -124 -26 -191zM855 1154v148l843 546v-148zM1422 1806h-185v181h185v-181zM1100 1806h-185v181h185v-181z" />
    <glyph glyph-name="uniFB9C" unicode="&#x6b1;" horiz-adv-x="1026" arabic-form="initial" 
d="M0 -14q-35 0 -52.5 26t-17.5 58t17.5 57.5t52.5 25.5h296q271 -1 316 95q15 32 15 90.5t-44 128.5t-126 137q-145 118 -457 270v118l843 546v-176l-666 -417q299 -142 454 -290q154 -148 154 -324q0 -264 -301 -328q-80 -17 -191 -17h-293zM0 1154v148l843 546v-148z
M567 1806h-185v181h185v-181zM245 1806h-185v181h185v-181z" />
    <glyph glyph-name="uniFB9D" unicode="&#x6b1;" horiz-adv-x="1026" arabic-form="medial" 
d="M0 -14q-35 0 -52.5 26t-17.5 58t17.5 57.5t52.5 25.5h296q271 -1 316 95q15 32 15 90.5t-44 128.5t-126 137q-145 118 -457 270v118l843 546v-176l-666 -417q457 -217 559 -436q32 -69 41.5 -113.5t15 -66t15.5 -45.5q55 -131 218 -131v-167h-22q-192 0 -274 159h-5
q-108 -159 -432 -159h-293zM0 1154v148l843 546v-148zM567 1806h-185v181h185v-181zM245 1806h-185v181h185v-181z" />
    <glyph glyph-name="uniFB9F" unicode="&#x6ba;" horiz-adv-x="1368" arabic-form="final" 
d="M1033 118q0 124 -33 331h156q8 -45 12 -87t12 -94q16 -115 188 -115v-167h-22q-110 0 -160 70l-5 -1q-6 -279 -134 -423.5t-415 -144.5q-380 -1 -454 287q-24 92 -23.5 207.5t29.5 277.5h151q-23 -157 -23 -255q0 -194 75 -271t271 -77t285.5 104.5t89.5 357.5z" />
    <glyph glyph-name="uniFBA1" unicode="&#x6bb;" horiz-adv-x="1368" arabic-form="final" 
d="M1033 118q0 124 -33 331h156q8 -45 12 -87t12 -94q16 -115 188 -115v-167h-22q-110 0 -160 70l-5 -1q-6 -279 -134 -423.5t-415 -144.5q-380 -1 -454 287q-24 92 -23.5 207.5t29.5 277.5h151q-23 -157 -23 -255q0 -194 75 -271t271 -77t285.5 104.5t89.5 357.5zM705 789
q118 0 142 8q42 14 42 67.5t-32.5 81.5t-72.5 28q-71 0 -126 -52.5t-88 -132.5h135zM484 1294h89v-347l3 -1q81 132 213 132q91 0 136.5 -63t45.5 -142.5t-19.5 -114.5t-60.5 -54.5t-143 -19.5q-290 0 -378 11l-13 103q21 -2 127 -7v503z" />
    <glyph glyph-name="uniFBA2" unicode="&#x6bb;" horiz-adv-x="684" arabic-form="initial" 
d="M153 153q100 0 132.5 28.5t44.5 64.5t12 93v444h156v-451q0 -263 -184 -323q-70 -23 -171 -23h-143q-35 0 -52.5 26t-17.5 58t17.5 57.5t52.5 25.5h153zM404 1081q118 0 142 8q42 14 42 67.5t-32 81.5q-34 28 -74 28q-71 0 -125.5 -52.5t-87.5 -132.5h135zM183 1586h89
v-347l3 -1q81 132 213 132q91 0 136.5 -63t45.5 -142.5t-19.5 -114.5t-60.5 -54.5t-143 -19.5q-290 0 -378 11l-13 103q21 -2 127 -7v503z" />
    <glyph glyph-name="uniFBA3" unicode="&#x6bb;" horiz-adv-x="684" arabic-form="medial" 
d="M662 -14q-188 0 -250 123h-4q-91 -123 -265 -123h-143q-35 0 -52.5 26t-17.5 58t17.5 57.5t52.5 25.5h153q121 -1 171 97q18 36 18 89v444h156v-375q0 -144 25.5 -184.5t62.5 -55.5t98 -15v-167h-22zM404 1081q118 0 142 8q42 14 42 67.5t-32 81.5q-34 28 -74 28
q-71 0 -125.5 -52.5t-87.5 -132.5h135zM183 1586h89v-347l3 -1q81 132 213 132q91 0 136.5 -63t45.5 -142.5t-19.5 -114.5t-60.5 -54.5t-143 -19.5q-290 0 -378 11l-13 103q21 -2 127 -7v503z" />
    <glyph glyph-name="uniFBA5" unicode="&#x6c0;" horiz-adv-x="1026" arabic-form="final" 
d="M551.5 338q67.5 0 132.5 21v374q-258 -47 -344 -167q-30 -41 -29.5 -84.5t18.5 -70t47 -43t68.5 -23.5t107 -7zM533 175q-171 0 -271.5 71t-100.5 215q0 177 151 284.5t372 140.5v97h156v-587q0 -132 38 -187.5t148 -55.5v-167h-22q-181 0 -265 119q-29 41 -43 99
q-74 -29 -163 -29zM631 1461q-107 0 -107 -80q0 -88 142 -88h70v-97h-345v91h85l1 5q-45 51 -45 99q0 82 53.5 126t139.5 44q31 0 64 -6v-101q-30 7 -58 7z" />
    <glyph glyph-name="uniFBA7" unicode="&#x6c1;" horiz-adv-x="1026" arabic-form="final" 
d="M87 -24q0 234 109.5 350.5t252 116.5t310.5 -145q103 -89 160.5 -117t106.5 -28v-167h-12q-149 0 -313 145q-100 88 -158 116.5t-104 28.5q-97 0 -157 -79.5t-60 -245.5v-32h-131q-4 29 -4 57z" />
    <glyph glyph-name="uniFBA8" unicode="&#x6c1;" horiz-adv-x="684" arabic-form="initial" 
d="M153 153q100 0 132.5 28.5t44.5 64.5t12 93v444h156v-451q0 -263 -184 -323q-70 -23 -171 -23h-143q-35 0 -52.5 26t-17.5 58t17.5 57.5t52.5 25.5h153zM298 -268q23 0 43.5 -10t34 -26t20.5 -36.5t7 -42.5q0 -48 -31 -83.5t-78 -35.5q-83 0 -120 59.5t-37 127.5
q0 117 43 192t135 117l34 -64q-54 -23 -83 -66.5t-29 -80.5t6 -59q32 8 55 8z" />
    <glyph glyph-name="uniFBA9" unicode="&#x6c1;" horiz-adv-x="1026" arabic-form="medial" 
d="M0 -14q-35 0 -52.5 26t-17.5 58t17.5 57.5t52.5 25.5h155q99 0 123 24q12 12 53.5 123.5t84.5 212.5h151q-171 -375 -171 -558.5t115 -239.5q31 -15 61 -24q15 202 134.5 332t319.5 130v-167q-255 0 -321 -266q-21 -84 -21 -190v-48q-352 68 -420 252q-22 62 -22 128.5
t13 146.5l-4 2q-54 -25 -135 -25h-116z" />
    <glyph glyph-name="uniFBAB" unicode="&#x6be;" horiz-adv-x="1368" arabic-form="final" 
d="M996.5 -309q29.5 36 29.5 79q0 87 -66 151.5t-171 64.5h-124q7 -164 79.5 -247.5t147.5 -83.5t104.5 36zM806 153q94 0 157.5 90.5t63.5 188.5q1 98 -23 154q-42 99 -84 99q-26 0 -62 -35.5t-72 -103.5q-84 -157 -110 -393h130zM945 854q99 0 168.5 -122t69.5 -260
q0 -185 -142 -312l2 -7h325v-167h-320l-1 -6q136 -85 136 -227q0 -107 -77.5 -186.5t-205.5 -79.5q-128 -1 -239 103q-137 128 -148 396q-277 0 -378 16l-32 169q158 -18 419 -18q73 459 290 637q78 64 133 64z" />
    <glyph glyph-name="uniFBAC" unicode="&#x6be;" horiz-adv-x="1368" arabic-form="initial" 
d="M758 471q0 -174 -87 -278q131 -51 296 -64q29 45 29 93q0 84 -66.5 177t-183.5 202l-5 -5q17 -60 17 -125zM631 483q0 85 -48 153t-101.5 68t-107 -73.5t-53.5 -140.5t33 -108q62 -76 193 -143q84 104 84 244zM0 -14q-35 0 -52.5 26t-17.5 58t17.5 57.5t52.5 25.5l230 -2
q132 0 188 3l1 4q-203 82 -237 218q-10 42 -10 93q0 112 72.5 229.5t179.5 149.5l1 6l-83 54v199q376 -211 610 -475q102 -116 154.5 -215t52.5 -155q0 -114 -50 -195t-136 -81q-123 0 -286 47q-59 17 -116 43q-118 -90 -413 -90h-158z" />
    <glyph glyph-name="uniFBAD" unicode="&#x6be;" horiz-adv-x="1026" arabic-form="medial" 
d="M654.5 -309q29.5 36 29.5 79q0 87 -66 151.5t-171 64.5h-124q7 -164 79.5 -247.5t147.5 -83.5t104.5 36zM464 153q94 0 157.5 90.5t63.5 189.5q1 99 -23 153q-43 99 -85 99q-26 0 -61.5 -35.5t-71.5 -103.5q-85 -163 -110 -393h130zM841 -249q0 -107 -78.5 -185.5
t-206.5 -78.5q-128 -1 -237 103q-137 128 -148 396h-171q-35 0 -52.5 26t-17.5 58t17.5 57.5t52.5 25.5h180q72 457 290 637q77 64 132 64q99 0 169 -121t70 -259q0 -192 -142 -314l2 -7h325v-167h-320l-1 -6q136 -85 136 -229z" />
    <glyph glyph-name="uniFBAF" unicode="&#x6d2;" horiz-adv-x="684" arabic-form="final" 
d="M1765 -424q-456 -48 -825 -48t-493.5 27t-180.5 53q-152 72 -152 215q0 212 222 284q143 46 340 46h8v-167h-13q-190 0 -258 -14.5t-105.5 -42t-37.5 -75.5t34 -78t108 -48q132 -32 532.5 -31.5t820.5 44.5v-165z" />
    <glyph glyph-name="uniFBB1" unicode="&#x6d3;" horiz-adv-x="684" arabic-form="final" 
d="M1765 -424q-456 -48 -825 -48t-493.5 27t-180.5 53q-152 72 -152 215q0 212 222 284q143 46 340 46h8v-167h-13q-190 0 -258 -14.5t-105.5 -42t-37.5 -75.5t34 -78t108 -48q132 -32 532.5 -31.5t820.5 44.5v-165zM484 729q-107 0 -107 -80q0 -88 142 -88h70v-97h-345v91
h85l1 5q-45 51 -45 99q0 82 53.5 126t139.5 44q31 0 64 -6v-101q-30 7 -58 7z" />
    <glyph glyph-name="uniFBD4" unicode="&#x6ad;" horiz-adv-x="1710" arabic-form="final" 
d="M847 951q1 -20 17 -32q16 -11 35 -21q47 -24 70 -47t23 -61q0 -75 -80 -128.5t-228 -60.5v93q197 11 197 82q0 18 -15.5 29t-33.5 21q-44 23 -70 48q-26 24 -26 68q0 78 80.5 126.5t208.5 65.5v-93q-178 -23 -178 -90zM328 416q0 -66 16 -116t52 -77q63 -46 177 -61
t292.5 -15t259.5 5q81 6 135 26q108 41 108 175v1163h156v-1108q0 -144 25.5 -184.5t62 -55.5t98.5 -15v-167h-22q-100 0 -158.5 29t-90.5 93h-4q-95 -120 -361 -128q-78 -2 -178 -2q-252 0 -392.5 20t-212.5 82.5t-96 138.5t-24 165t29 223h154q-26 -124 -26 -191z
M976 1814h-185v181h185v-181zM1137 1534h-185v181h185v-181zM815 1534h-185v181h185v-181z" />
    <glyph glyph-name="uniFBD5" unicode="&#x6ad;" horiz-adv-x="1026" arabic-form="initial" 
d="M0 -14q-35 0 -52.5 26t-17.5 58t17.5 57.5t52.5 25.5h296q271 -1 316 95q15 32 15 90.5t-44 128.5t-126 137q-145 118 -457 270v118l843 546v-176l-666 -417q299 -142 454 -290q154 -148 154 -324q0 -264 -301 -328q-80 -17 -191 -17h-293zM406 1814h-185v181h185v-181z
M567 1534h-185v181h185v-181zM245 1534h-185v181h185v-181z" />
    <glyph glyph-name="uniFBD6" unicode="&#x6ad;" horiz-adv-x="1026" arabic-form="medial" 
d="M0 -14q-35 0 -52.5 26t-17.5 58t17.5 57.5t52.5 25.5h296q271 -1 316 95q15 32 15 90.5t-44 128.5t-126 137q-145 118 -457 270v118l843 546v-176l-666 -417q457 -217 559 -436q32 -69 41.5 -113.5t15 -66t15.5 -45.5q55 -131 218 -131v-167h-22q-192 0 -274 159h-5
q-108 -159 -432 -159h-293zM406 1814h-185v181h185v-181zM567 1534h-185v181h185v-181zM245 1534h-185v181h185v-181z" />
    <glyph glyph-name="uniFBD8" unicode="&#x6c7;" horiz-adv-x="1026" arabic-form="final" 
d="M324 310q0 -157 259 -157h101q-19 185 -103 301q-49 69 -103.5 68.5t-104 -68t-49.5 -144.5zM363 -342q242 0 299 210q13 48 20 118h-117q-283 0 -367 177q-27 57 -27 126q0 143 94 274.5t227.5 131.5t240.5 -170q90 -145 105 -372h188v-167h-189q-27 -345 -271 -459
q-86 -40 -203 -40q-180 0 -363 84v166q194 -79 363 -79zM601 1213q0 41 -25.5 59.5t-49.5 18.5q-43 0 -68.5 -19.5t-25.5 -62.5t61 -111q108 36 108 115zM464 1006q-38 -8 -121.5 -8t-179.5 28l18 83q108 -28 198 -28h7q6 0 11 1l1 2q-52 67 -52 120q0 88 53 131.5t122 43.5
q109 1 151 -91q14 -30 14 -72q0 -123 -129 -182l40 -35l-53 -61q-45 34 -80 68z" />
    <glyph glyph-name="uniFBDA" unicode="&#x6c6;" horiz-adv-x="1026" arabic-form="final" 
d="M324 310q0 -157 259 -157h101q-19 185 -103 301q-49 69 -103.5 68.5t-104 -68t-49.5 -144.5zM363 -342q242 0 299 210q13 48 20 118h-117q-283 0 -367 177q-27 57 -27 126q0 143 94 274.5t227.5 131.5t240.5 -170q90 -145 105 -372h188v-167h-189q-27 -345 -271 -459
q-86 -40 -203 -40q-180 0 -363 84v166q194 -79 363 -79zM432 977l-236 352h125l171 -255l168 255h121l-230 -352h-119z" />
    <glyph glyph-name="uniFBDC" unicode="&#x6c8;" horiz-adv-x="1026" arabic-form="final" 
d="M324 310q0 -157 259 -157h101q-19 185 -103 301q-49 69 -103.5 68.5t-104 -68t-49.5 -144.5zM363 -342q242 0 299 210q13 48 20 118h-117q-283 0 -367 177q-27 57 -27 126q0 143 94 274.5t227.5 131.5t240.5 -170q90 -145 105 -372h188v-167h-189q-27 -345 -271 -459
q-86 -40 -203 -40q-180 0 -363 84v166q194 -79 363 -79zM551 977h-126v392h126v-392z" />
    <glyph glyph-name="uniFBDF" unicode="&#x6cb;" horiz-adv-x="1026" arabic-form="final" 
d="M324 310q0 -157 259 -157h101q-19 185 -103 301q-49 69 -103.5 68.5t-104 -68t-49.5 -144.5zM363 -342q242 0 299 210q13 48 20 118h-117q-283 0 -367 177q-27 57 -27 126q0 143 94 274.5t227.5 131.5t240.5 -170q90 -145 105 -372h188v-167h-189q-27 -345 -271 -459
q-86 -40 -203 -40q-180 0 -363 84v166q194 -79 363 -79zM562 1244h-185v181h185v-181zM723 964h-185v181h185v-181zM401 964h-185v181h185v-181z" />
    <glyph glyph-name="uniFBE1" unicode="&#x6c5;" horiz-adv-x="1026" arabic-form="final" 
d="M554 253q62 0 129 32q-7 104 -42 173q-81 165 -163 165q-56 0 -105 -68t-49 -123.5t16 -85.5t45 -50.5t68 -31.5t101 -11zM171 394q0 139 94 270.5t231.5 131.5t242 -167t104.5 -467v-9h183v-167h-195q-45 -346 -275 -458q-86 -42 -231 -42t-325 86v166q192 -80 343 -80
q220 0 298 183h-470v109h500q14 74 16 176q-85 -39 -164 -39q-153 0 -252.5 84t-99.5 223z" />
    <glyph glyph-name="uniFBE3" unicode="&#x6c9;" horiz-adv-x="1026" arabic-form="final" 
d="M324 310q0 -157 259 -157h101q-19 185 -103 301q-49 69 -103.5 68.5t-104 -68t-49.5 -144.5zM363 -342q242 0 299 210q13 48 20 118h-117q-283 0 -367 177q-27 57 -27 126q0 143 94 274.5t227.5 131.5t240.5 -170q90 -145 105 -372h188v-167h-189q-27 -345 -271 -459
q-86 -40 -203 -40q-180 0 -363 84v166q194 -79 363 -79zM545 1329l236 -352h-125l-171 255l-168 -255h-121l230 352h119z" />
    <glyph glyph-name="uniFBE5" unicode="&#x6d0;" horiz-adv-x="1710" arabic-form="final" 
d="M1029 244q0 25 -25.5 82.5t-25.5 98.5q0 80 62 135q64 55 138 55q74 -1 124 -33q71 -46 129 -186t118 -191.5t161 -51.5v-167h-22q-171 0 -270 130q-51 67 -83 136.5t-55 113.5t-44.5 67t-50 23t-44 -18t-15.5 -38t28.5 -81.5t28.5 -108t-20.5 -83.5t-56.5 -65
q-136 -107 -432 -108q-274 0 -408 148q-112 122 -112 344q0 113 35 255h154q-32 -146 -32 -229q0 -173 78 -252q95 -97 335 -97q305 0 305 121zM805 -292h-185v181h185v-181zM805 -572h-185v181h185v-181z" />
    <glyph glyph-name="uniFBE6" unicode="&#x6d0;" horiz-adv-x="684" arabic-form="initial" 
d="M153 153q100 0 132.5 28.5t44.5 64.5t12 93v444h156v-451q0 -263 -184 -323q-70 -23 -171 -23h-143q-35 0 -52.5 26t-17.5 58t17.5 57.5t52.5 25.5h153zM480 -287h-185v181h185v-181zM480 -567h-185v181h185v-181z" />
    <glyph glyph-name="uniFBE7" unicode="&#x6d0;" horiz-adv-x="684" arabic-form="medial" 
d="M662 -14q-188 0 -250 123h-4q-91 -123 -265 -123h-143q-35 0 -52.5 26t-17.5 58t17.5 57.5t52.5 25.5h153q121 -1 171 97q18 36 18 89v444h156v-375q0 -144 25.5 -184.5t62.5 -55.5t98 -15v-167h-22zM480 -287h-185v181h185v-181zM480 -567h-185v181h185v-181z" />
    <glyph glyph-name="uniFBE8" unicode="&#x649;" horiz-adv-x="684" arabic-form="initial" 
d="M153 153q100 0 132.5 28.5t44.5 64.5t12 93v444h156v-451q0 -263 -184 -323q-70 -23 -171 -23h-143q-35 0 -52.5 26t-17.5 58t17.5 57.5t52.5 25.5h153z" />
    <glyph glyph-name="uniFBE9" unicode="&#x649;" horiz-adv-x="684" arabic-form="medial" 
d="M662 -14q-188 0 -250 123h-4q-91 -123 -265 -123h-143q-35 0 -52.5 26t-17.5 58t17.5 57.5t52.5 25.5h153q121 -1 171 97q18 36 18 89v444h156v-375q0 -144 25.5 -184.5t62.5 -55.5t98 -15v-167h-22z" />
    <glyph glyph-name="uniFBEA" unicode="&#xfbea;" horiz-adv-x="1197" arabic-form="isolated" 
d="M666 153q100 1 132 29q33 28 45 64t12 93v444h156v-451q1 -263 -183 -323q-70 -23 -172 -23h-163q-187 0 -263 113q-58 86 -59 250v1167h156v-1108q0 -145 24 -185t61 -55t101 -15h153zM940 1243q-107 0 -107 -80q0 -88 142 -88h70v-97h-345v91h85l1 5q-45 51 -45 99
q-1 82 53 126q53 44 140 44q31 0 64 -6v-101q-30 7 -58 7z" />
    <glyph glyph-name="uniFBEB" unicode="&#xfbeb;" horiz-adv-x="1197" arabic-form="final" 
d="M1175 -14q-188 0 -250 123h-4q-91 -123 -265 -123h-163q-187 0 -263 113q-58 86 -59 250v1167h156v-1108q0 -145 24 -185t61 -55t101 -15h153q120 -1 170 97q18 36 19 89v444h156v-375q-1 -144 25 -184q26 -41 63 -56t98 -15v-167h-22zM940 1243q-107 0 -107 -80
q0 -88 142 -88h70v-97h-345v91h85l1 5q-45 51 -45 99q-1 82 53 126q53 44 140 44q31 0 64 -6v-101q-30 7 -58 7z" />
    <glyph glyph-name="uniFBEC" unicode="&#xfbec;" horiz-adv-x="1710" arabic-form="isolated" 
d="M552 338q68 0 132 21v374q-258 -47 -344 -167q-30 -40 -29 -84q0 -44 18 -70t47 -44q28 -16 68 -23t108 -7zM533 175q-171 0 -271 71q-101 71 -101 215q0 177 151 285q151 107 372 140v97h156v-587q0 -132 38 -188q38 -55 148 -55h153q100 1 132 29q33 28 45 64t12 93
v444h156v-451q0 -263 -184 -323q-70 -23 -171 -23h-165q-181 0 -265 119q-29 41 -43 99q-74 -29 -163 -29zM1453 1243q-107 0 -107 -80q0 -88 142 -88h70v-97h-345v91h85l1 5q-45 51 -45 99q0 82 54 126q53 44 139 44q31 0 64 -6v-101q-30 7 -58 7z" />
    <glyph glyph-name="uniFBED" unicode="&#xfbed;" horiz-adv-x="1710" arabic-form="final" 
d="M552 338q68 0 132 21v374q-258 -47 -344 -167q-30 -40 -29 -84q0 -44 18 -70t47 -44q28 -16 68 -23t108 -7zM533 175q-171 0 -271 71q-101 71 -101 215q0 177 151 285q151 107 372 140v97h156v-587q0 -132 38 -188q38 -55 148 -55h153q121 -1 171 97q18 36 18 89v444h156
v-375q0 -144 26 -184q26 -41 62 -56q37 -15 98 -15v-167h-22q-188 0 -250 123h-4q-91 -123 -265 -123h-165q-181 0 -265 119q-29 41 -43 99q-74 -29 -163 -29zM1453 1243q-107 0 -107 -80q0 -88 142 -88h70v-97h-345v91h85l1 5q-45 51 -45 99q0 82 54 126q53 44 139 44
q31 0 64 -6v-101q-30 7 -58 7z" />
    <glyph glyph-name="uniFBEE" unicode="&#xfbee;" horiz-adv-x="1710" arabic-form="isolated" 
d="M324 310q0 -157 259 -157h101q-19 185 -103 301q-49 69 -104 68q-54 0 -104 -67q-49 -68 -49 -145zM363 -342q242 0 299 210q13 48 20 118h-117q-283 0 -367 177q-27 57 -27 126q0 143 94 274q94 132 228 132t240 -170q90 -145 105 -372h341q100 1 132 29q33 28 45 64
t12 93v444h156v-451q0 -263 -184 -323q-70 -23 -171 -23h-332q-27 -345 -271 -459q-86 -40 -203 -40q-180 0 -363 84v166q194 -79 363 -79zM1453 1243q-107 0 -107 -80q0 -88 142 -88h70v-97h-345v91h85l1 5q-45 51 -45 99q0 82 54 126q53 44 139 44q31 0 64 -6v-101
q-30 7 -58 7z" />
    <glyph glyph-name="uniFBEF" unicode="&#xfbef;" horiz-adv-x="1710" arabic-form="final" 
d="M324 310q0 -157 259 -157h101q-19 185 -103 301q-49 69 -104 68q-54 0 -104 -67q-49 -68 -49 -145zM363 -342q242 0 299 210q13 48 20 118h-117q-283 0 -367 177q-27 57 -27 126q0 143 94 274q94 132 228 132t240 -170q90 -145 105 -372h341q121 -1 171 97q18 36 18 89
v444h156v-375q0 -144 26 -184q26 -41 62 -56q37 -15 98 -15v-167h-22q-188 0 -250 123h-4q-91 -123 -265 -123h-332q-27 -345 -271 -459q-86 -40 -203 -40q-180 0 -363 84v166q194 -79 363 -79zM1453 1243q-107 0 -107 -80q0 -88 142 -88h70v-97h-345v91h85l1 5
q-45 51 -45 99q0 82 54 126q53 44 139 44q31 0 64 -6v-101q-30 7 -58 7z" />
    <glyph glyph-name="uniFBF0" unicode="&#xfbf0;" horiz-adv-x="1710" arabic-form="isolated" 
d="M324 310q0 -157 259 -157h101q-19 185 -103 301q-49 69 -104 68q-54 0 -104 -67q-49 -68 -49 -145zM363 -342q242 0 299 210q13 48 20 118h-117q-283 0 -367 177q-27 57 -27 126q0 143 94 274q94 132 228 132t240 -170q90 -145 105 -372h341q100 1 132 29q33 28 45 64
t12 93v444h156v-451q0 -263 -184 -323q-70 -23 -171 -23h-332q-27 -345 -271 -459q-86 -40 -203 -40q-180 0 -363 84v166q194 -79 363 -79zM601 1214q1 42 -25 60t-50 18q-43 0 -68 -20q-26 -20 -26 -62q0 -43 61 -111q108 36 108 115zM464 1007q-38 -8 -122 -8
q-83 0 -179 28l18 83q108 -28 198 -28h7q6 0 11 1l1 2q-52 67 -52 120q0 88 53 132q53 43 122 43q109 0 151 -92q14 -30 14 -71q0 -123 -129 -182l40 -35l-53 -61q-45 34 -80 68zM1453 1243q-107 0 -107 -80q0 -88 142 -88h70v-97h-345v91h85l1 5q-45 51 -45 99q0 82 54 126
q53 44 139 44q31 0 64 -6v-101q-30 7 -58 7z" />
    <glyph glyph-name="uniFBF1" unicode="&#xfbf1;" horiz-adv-x="1710" arabic-form="final" 
d="M324 310q0 -157 259 -157h101q-19 185 -103 301q-49 69 -104 68q-54 0 -104 -67q-49 -68 -49 -145zM363 -342q242 0 299 210q13 48 20 118h-117q-283 0 -367 177q-27 57 -27 126q0 143 94 274q94 132 228 132t240 -170q90 -145 105 -372h341q121 -1 171 97q18 36 18 89
v444h156v-375q0 -144 26 -184q26 -41 62 -56q37 -15 98 -15v-167h-22q-188 0 -250 123h-4q-91 -123 -265 -123h-332q-27 -345 -271 -459q-86 -40 -203 -40q-180 0 -363 84v166q194 -79 363 -79zM601 1214q1 42 -25 60t-50 18q-43 0 -68 -20q-26 -20 -26 -62q0 -43 61 -111
q108 36 108 115zM464 1007q-38 -8 -122 -8q-83 0 -179 28l18 83q108 -28 198 -28h7q6 0 11 1l1 2q-52 67 -52 120q0 88 53 132q53 43 122 43q109 0 151 -92q14 -30 14 -71q0 -123 -129 -182l40 -35l-53 -61q-45 34 -80 68zM1453 1243q-107 0 -107 -80q0 -88 142 -88h70v-97
h-345v91h85l1 5q-45 51 -45 99q0 82 54 126q53 44 139 44q31 0 64 -6v-101q-30 7 -58 7z" />
    <glyph glyph-name="uniFBF2" unicode="&#xfbf2;" horiz-adv-x="1710" arabic-form="isolated" 
d="M324 310q0 -157 259 -157h101q-19 185 -103 301q-49 69 -104 68q-54 0 -104 -67q-49 -68 -49 -145zM363 -342q242 0 299 210q13 48 20 118h-117q-283 0 -367 177q-27 57 -27 126q0 143 94 274q94 132 228 132t240 -170q90 -145 105 -372h341q100 1 132 29q33 28 45 64
t12 93v444h156v-451q0 -263 -184 -323q-70 -23 -171 -23h-332q-27 -345 -271 -459q-86 -40 -203 -40q-180 0 -363 84v166q194 -79 363 -79zM432 978l-236 352h125l171 -255l168 255h121l-230 -352h-119zM1453 1243q-107 0 -107 -80q0 -88 142 -88h70v-97h-345v91h85l1 5
q-45 51 -45 99q0 82 54 126q53 44 139 44q31 0 64 -6v-101q-30 7 -58 7z" />
    <glyph glyph-name="uniFBF3" unicode="&#xfbf3;" horiz-adv-x="1710" arabic-form="final" 
d="M324 310q0 -157 259 -157h101q-19 185 -103 301q-49 69 -104 68q-54 0 -104 -67q-49 -68 -49 -145zM363 -342q242 0 299 210q13 48 20 118h-117q-283 0 -367 177q-27 57 -27 126q0 143 94 274q94 132 228 132t240 -170q90 -145 105 -372h341q121 -1 171 97q18 36 18 89
v444h156v-375q0 -144 26 -184q26 -41 62 -56q37 -15 98 -15v-167h-22q-188 0 -250 123h-4q-91 -123 -265 -123h-332q-27 -345 -271 -459q-86 -40 -203 -40q-180 0 -363 84v166q194 -79 363 -79zM432 978l-236 352h125l171 -255l168 255h121l-230 -352h-119zM1453 1243
q-107 0 -107 -80q0 -88 142 -88h70v-97h-345v91h85l1 5q-45 51 -45 99q0 82 54 126q53 44 139 44q31 0 64 -6v-101q-30 7 -58 7z" />
    <glyph glyph-name="uniFBF4" unicode="&#xfbf4;" horiz-adv-x="1710" arabic-form="isolated" 
d="M324 310q0 -157 259 -157h101q-19 185 -103 301q-49 69 -104 68q-54 0 -104 -67q-49 -68 -49 -145zM363 -342q242 0 299 210q13 48 20 118h-117q-283 0 -367 177q-27 57 -27 126q0 143 94 274q94 132 228 132t240 -170q90 -145 105 -372h341q100 1 132 29q33 28 45 64
t12 93v444h156v-451q0 -263 -184 -323q-70 -23 -171 -23h-332q-27 -345 -271 -459q-86 -40 -203 -40q-180 0 -363 84v166q194 -79 363 -79zM551 978h-126v392h126v-392zM1453 1243q-107 0 -107 -80q0 -88 142 -88h70v-97h-345v91h85l1 5q-45 51 -45 99q0 82 54 126
q53 44 139 44q31 0 64 -6v-101q-30 7 -58 7z" />
    <glyph glyph-name="uniFBF5" unicode="&#xfbf5;" horiz-adv-x="1710" arabic-form="final" 
d="M324 310q0 -157 259 -157h101q-19 185 -103 301q-49 69 -104 68q-54 0 -104 -67q-49 -68 -49 -145zM363 -342q242 0 299 210q13 48 20 118h-117q-283 0 -367 177q-27 57 -27 126q0 143 94 274q94 132 228 132t240 -170q90 -145 105 -372h341q121 -1 171 97q18 36 18 89
v444h156v-375q0 -144 26 -184q26 -41 62 -56q37 -15 98 -15v-167h-22q-188 0 -250 123h-4q-91 -123 -265 -123h-332q-27 -345 -271 -459q-86 -40 -203 -40q-180 0 -363 84v166q194 -79 363 -79zM551 978h-126v392h126v-392zM1453 1243q-107 0 -107 -80q0 -88 142 -88h70v-97
h-345v91h85l1 5q-45 51 -45 99q0 82 54 126q53 44 139 44q31 0 64 -6v-101q-30 7 -58 7z" />
    <glyph glyph-name="uniFBF6" unicode="&#xfbf6;" horiz-adv-x="2394" arabic-form="isolated" 
d="M805 -291h-185v181h185v-181zM805 -571h-185v181h185v-181zM1029 244q1 24 -25 82t-26 99q0 80 63 135t137 55q74 -1 124 -33q71 -46 129 -186t118 -191q60 -52 161 -52h153q100 1 132 29q33 28 45 64t12 93v444h156v-451q0 -263 -184 -323q-70 -23 -171 -23h-165
q-171 0 -270 130q-51 67 -83 137q-32 69 -55 113q-22 44 -44 67t-50 23t-44 -18t-16 -38t28 -82q28 -61 29 -107q-1 -47 -21 -84t-56 -65q-136 -107 -432 -108q-274 0 -408 148q-112 122 -112 344q0 113 35 255h154q-32 -146 -32 -229q0 -173 78 -252q95 -97 335 -97
q305 0 305 121zM2030 1163q0 -88 142 -88h70v-97h-345v91h85l1 5q-45 51 -45 99q0 82 54 126q53 44 139 44q31 0 64 -6v-101q-30 7 -58 7q-107 0 -107 -80z" />
    <glyph glyph-name="uniFBF7" unicode="&#xfbf7;" horiz-adv-x="2394" arabic-form="final" 
d="M805 -291h-185v181h185v-181zM805 -571h-185v181h185v-181zM1029 244q1 24 -25 82t-26 99q0 80 63 135t137 55q74 -1 124 -33q71 -46 129 -186t118 -191q60 -52 161 -52h153q121 -1 171 97q18 36 18 89v444h156v-375q0 -144 26 -184q26 -41 62 -56q37 -15 98 -15v-167
h-22q-188 0 -250 123h-4q-91 -123 -265 -123h-165q-171 0 -270 130q-51 67 -83 137q-32 69 -55 113q-22 44 -44 67t-50 23t-44 -18t-16 -38t28 -82q28 -61 29 -107q-1 -47 -21 -84t-56 -65q-136 -107 -432 -108q-274 0 -408 148q-112 122 -112 344q0 113 35 255h154
q-32 -146 -32 -229q0 -173 78 -252q95 -97 335 -97q305 0 305 121zM2030 1163q0 -88 142 -88h70v-97h-345v91h85l1 5q-45 51 -45 99q0 82 54 126q53 44 139 44q31 0 64 -6v-101q-30 7 -58 7q-107 0 -107 -80z" />
    <glyph glyph-name="uniFBF8" unicode="&#xfbf8;" horiz-adv-x="1368" arabic-form="initial" 
d="M662 -14q-188 0 -250 123h-4q-91 -123 -265 -123h-143q-34 0 -52 26t-18 58t18 58t52 25h153q121 -1 171 97q18 36 18 89v444h156v-375q0 -144 26 -184q26 -41 62 -56q37 -15 98 -15h153q100 1 132 29q33 28 45 64t12 93v444h156v-451q0 -263 -184 -323q-70 -23 -171 -23
h-165zM480 -286h-185v181h185v-181zM480 -566h-185v181h185v-181zM1111 1243q-107 0 -107 -80q0 -88 142 -88h70v-97h-345v91h85l1 5q-45 51 -45 99q0 82 54 126q53 44 139 44q31 0 64 -6v-101q-30 7 -58 7z" />
    <glyph glyph-name="uniFBF9" unicode="&#xfbf9;" horiz-adv-x="2394" arabic-form="isolated" 
d="M311 264q0 -173 78 -252q95 -97 340 -97q245 -1 319 87q22 26 23 57q0 29 -16 51t-35 46q-51 64 -51 128q0 115 69 181t177 66q130 -1 208 -159q64 -130 124 -174q60 -45 163 -45h153q100 1 132 29q33 28 45 64t12 93v444h156v-451q0 -263 -184 -323q-70 -23 -171 -23
h-165q-174 0 -278 120q-47 55 -79 115q-33 59 -53 90q-39 59 -77 59q-78 0 -78 -70q0 -33 16 -55q16 -21 35 -45q51 -63 51 -130q-1 -66 -23 -112t-61 -82q-143 -131 -461 -130q-280 0 -414 148q-112 122 -112 344q0 113 35 255h154q-32 -147 -32 -229zM2030 1163
q0 -88 142 -88h70v-97h-345v91h85l1 5q-45 51 -45 99q0 82 54 126q53 44 139 44q31 0 64 -6v-101q-30 7 -58 7q-107 0 -107 -80z" />
    <glyph glyph-name="uniFBFA" unicode="&#xfbfa;" horiz-adv-x="2394" arabic-form="final" 
d="M311 264q0 -173 78 -252q95 -97 340 -97q245 -1 319 87q22 26 23 57q0 29 -16 51t-35 46q-51 64 -51 128q0 115 69 181t177 66q130 -1 208 -159q64 -130 124 -174q60 -45 163 -45h153q121 -1 171 97q18 36 18 89v444h156v-375q0 -144 26 -184q26 -41 62 -56
q37 -15 98 -15v-167h-22q-188 0 -250 123h-4q-91 -123 -265 -123h-165q-174 0 -278 120q-47 55 -79 115q-33 59 -53 90q-39 59 -77 59q-78 0 -78 -70q0 -33 16 -55q16 -21 35 -45q51 -63 51 -130q-1 -66 -23 -112t-61 -82q-143 -131 -461 -130q-280 0 -414 148
q-112 122 -112 344q0 113 35 255h154q-32 -147 -32 -229zM2030 1163q0 -88 142 -88h70v-97h-345v91h85l1 5q-45 51 -45 99q0 82 54 126q53 44 139 44q31 0 64 -6v-101q-30 7 -58 7q-107 0 -107 -80z" />
    <glyph glyph-name="uniFBFB" unicode="&#xfbfb;" horiz-adv-x="1368" arabic-form="initial" 
d="M662 -14q-188 0 -250 123h-4q-91 -123 -265 -123h-143q-34 0 -52 26t-18 58t18 58t52 25h153q121 -1 171 97q18 36 18 89v444h156v-375q0 -144 26 -184q26 -41 62 -56q37 -15 98 -15h153q100 1 132 29q33 28 45 64t12 93v444h156v-451q0 -263 -184 -323q-70 -23 -171 -23
h-165zM1111 1243q-107 0 -107 -80q0 -88 142 -88h70v-97h-345v91h85l1 5q-45 51 -45 99q0 82 54 126q53 44 139 44q31 0 64 -6v-101q-30 7 -58 7z" />
    <glyph glyph-name="uniFBFD" unicode="&#x6cc;" horiz-adv-x="1710" arabic-form="final" 
d="M311 264q0 -173 78 -252q95 -97 340 -97q245 -1 319 87q22 26 22.5 56.5t-15.5 52t-35 45.5q-51 64 -51 128q0 115 69.5 181t176.5 66q130 -1 208 -159q64 -130 124 -174.5t163 -44.5v-167h-22q-174 0 -278 120q-47 54 -79 114q-33 60 -53 91q-39 59 -77 59
q-78 0 -78 -70q0 -33 16 -55q16 -21 35 -45q51 -63 51 -129.5t-22.5 -112.5t-61.5 -82q-143 -131 -461 -130q-280 0 -414 148q-112 122 -112 344q0 113 35 255h154q-32 -147 -32 -229z" />
    <glyph glyph-name="uniFBFE" unicode="&#x6cc;" horiz-adv-x="684" arabic-form="initial" 
d="M153 153q100 0 132.5 28.5t44.5 64.5t12 93v444h156v-451q0 -263 -184 -323q-70 -23 -171 -23h-143q-35 0 -52.5 26t-17.5 58t17.5 57.5t52.5 25.5h153zM584 -346h-185v181h185v-181zM262 -346h-185v181h185v-181z" />
    <glyph glyph-name="uniFBFF" unicode="&#x6cc;" horiz-adv-x="684" arabic-form="medial" 
d="M662 -14q-188 0 -250 123h-4q-91 -123 -265 -123h-143q-35 0 -52.5 26t-17.5 58t17.5 57.5t52.5 25.5h153q121 -1 171 97q18 36 18 89v444h156v-375q0 -144 25.5 -184.5t62.5 -55.5t98 -15v-167h-22zM584 -346h-185v181h185v-181zM262 -346h-185v181h185v-181z" />
    <glyph glyph-name="uniFC5E" unicode="&#xfc5e;" arabic-form="isolated" 
d="M428 1885q0 38 -25.5 55t-48.5 17q-41 0 -67 -18.5t-26 -57.5t61 -102q106 32 106 106zM200 1674q-114 0 -197 94l-97 -89l-54 59l153 142q100 -122 192 -122q16 0 31 3l1 2q-54 66 -54 116.5t15 78.5t39.5 47.5t56 29.5t63.5 10q68 0 117 -41.5t49 -114.5
q0 -117 -129 -174l40 -35l-53 -61q-46 34 -80 68q-46 -13 -93 -13zM386 1408q82 0 83 100q0 44 -6 82h96q4 -36 4 -66q0 -103 -49.5 -157.5t-134 -54.5t-123.5 63h-6q-41 -63 -133 -63q-161 0 -161 200q0 36 6 78h96q-7 -55 -7 -79q0 -103 83 -103q45 0 62 27.5t17 81.5
l-2 73h97q-2 -26 -2 -76.5t17 -78t63 -27.5z" />
    <glyph glyph-name="uniFC5F" unicode="&#xfc5f;" arabic-form="isolated" 
d="M5 1408h508v-88h-508v88zM5 1583h508v-88h-508v88zM386 1781q82 -1 83 99q0 44 -6 83h96q4 -36 4 -66q0 -103 -49.5 -157.5t-134 -54.5t-123.5 63h-6q-41 -63 -133 -63q-161 0 -161 200q0 36 6 78h96q-7 -55 -7 -79q0 -103 83 -103q45 0 62 27.5t17 81.5l-2 73h97
q-2 -26 -2 -76.5t17 -78t63 -27.5z" />
    <glyph glyph-name="uniFC60" unicode="&#xfc60;" arabic-form="isolated" 
d="M5 1778h508v-88h-508v88zM386 1408q82 0 83 100q0 44 -6 82h96q4 -36 4 -66q0 -103 -49.5 -157.5t-134 -54.5t-123.5 63h-6q-41 -63 -133 -63q-161 0 -161 200q0 36 6 78h96q-7 -55 -7 -79q0 -103 83 -103q45 0 62 27.5t17 81.5l-2 73h97q-2 -26 -2 -76.5t17 -78
t63 -27.5z" />
    <glyph glyph-name="uniFC61" unicode="&#xfc61;" arabic-form="isolated" 
d="M428 1885q0 38 -25.5 55t-48.5 17q-41 0 -67 -18.5t-26 -58.5t61 -101q106 31 106 106zM293 1687q-38 -8 -120.5 -8t-180.5 28l18 83q110 -28 198 -28h6q6 0 12 1l1 2q-52 64 -52 114q0 83 52 124.5t103 41.5q87 0 136 -41.5t49 -114.5q0 -117 -129 -174l40 -35l-53 -61
q-46 34 -80 68zM386 1408q82 0 83 100q0 44 -6 82h96q4 -36 4 -66q0 -103 -49.5 -157.5t-134 -54.5t-123.5 63h-6q-41 -63 -133 -63q-161 0 -161 200q0 36 6 78h96q-7 -55 -7 -79q0 -103 83 -103q45 0 62 27.5t17 81.5l-2 73h97q-2 -26 -2 -76.5t17 -78t63 -27.5z" />
    <glyph glyph-name="uniFC62" unicode="&#xfc62;" arabic-form="isolated" 
d="M5 1408h508v-88h-508v88zM386 1606q82 0 83 100q0 44 -6 82h96q4 -36 4 -66q0 -103 -49.5 -157.5t-134 -54.5t-123.5 63h-6q-41 -63 -133 -63q-161 0 -161 200q0 36 6 78h96q-7 -55 -7 -79q0 -103 83 -103q45 0 62 27.5t17 81.5l-2 73h97q-2 -26 -2 -76.5t17 -78
t63 -27.5z" />
    <glyph glyph-name="uniFDFC" unicode="&#xfdfc;" horiz-adv-x="3078" arabic-form="isolated" 
d="M2049 -347h-185v181h185v-181zM1727 -347h-185v181h185v-181zM2728 606q109 -272 109 -589q0 -100 -34 -206t-94.5 -178t-144 -109t-184.5 -37t-213 45v165q124 -39 213 -39q300 0 300 401q0 223 -113 547h161zM1539 371v1145h156v-1086q0 -150 22 -197t56.5 -67.5
t111 -20.5t122 52t45.5 164v422h156v-429q0 -200 -95 -288t-252 -88q-322 0 -322 393zM312 178q0 -195 74.5 -272t268.5 -77t282.5 105t88.5 362v1220h156v-1240q0 -302 -120 -450q-134 -165 -434 -166q-376 0 -450 288q-24 92 -23.5 210.5t27.5 263.5h152
q-22 -144 -22 -244z" />
    <glyph glyph-name="uniFE82" unicode="&#x622;" horiz-adv-x="513" arabic-form="final" 
d="M513 -14h-20q-187 0 -263 113q-58 86 -59 250v1167h156v-1108q0 -145 24 -185t61 -55t101 -15v-167zM613 1718q-81 -84 -166 -84t-163.5 33t-120.5 48t-93.5 15t-101.5 -44l-62 70q81 84 166 84t163.5 -33t120.5 -48t94.5 -15t100.5 44z" />
    <glyph glyph-name="uniFE84" unicode="&#x623;" horiz-adv-x="513" arabic-form="final" 
d="M513 -14h-20q-187 0 -263 113q-58 86 -59 250v1167h156v-1108q0 -145 24 -185t61 -55t101 -15v-167zM313 1925q-107 0 -107 -80q0 -88 142 -88h70v-97h-345v91h85l1 5q-45 51 -45 99q0 82 53.5 126t139.5 44q31 0 64 -6v-101q-30 7 -58 7z" />
    <glyph glyph-name="uniFE86" unicode="&#x624;" horiz-adv-x="1026" arabic-form="final" 
d="M324 310q0 -157 259 -157h101q-19 185 -103 301q-49 69 -103.5 68.5t-104 -68t-49.5 -144.5zM363 -342q242 0 299 210q13 48 20 118h-117q-283 0 -367 177q-27 57 -27 126q0 143 94 274.5t227.5 131.5t240.5 -170q90 -145 105 -372h188v-167h-189q-27 -345 -271 -459
q-86 -40 -203 -40q-180 0 -363 84v166q194 -79 363 -79zM541 1242q-107 0 -107 -80q0 -88 142 -88h70v-97h-345v91h85l1 5q-45 51 -45 99q0 82 53.5 126t139.5 44q31 0 64 -6v-101q-30 7 -58 7z" />
    <glyph glyph-name="uniFE88" unicode="&#x625;" horiz-adv-x="513" arabic-form="final" 
d="M513 -14h-20q-187 0 -263 113q-58 86 -59 250v1167h156v-1108q0 -145 24 -185t61 -55t101 -15v-167zM304.5 -249q-36.5 0 -67.5 -19t-31 -58q0 -91 142 -91h70v-97h-345v91h85l1 5q-45 51 -45 99q0 82 53.5 126t139.5 44q31 0 64 -6v-101q-30 7 -66.5 7z" />
    <glyph glyph-name="uniFE8A" unicode="&#x626;" horiz-adv-x="1710" arabic-form="final" 
d="M311 264q0 -173 78 -252q95 -97 340 -97q245 -1 319 87q22 26 22.5 56.5t-15.5 52t-35 45.5q-51 64 -51 128q0 115 69.5 181t176.5 66q130 -1 208 -159q64 -130 124 -174.5t163 -44.5v-167h-22q-174 0 -278 120q-47 54 -79 114q-33 60 -53 91q-39 59 -77 59
q-78 0 -78 -70q0 -33 16 -55q16 -21 35 -45q51 -63 51 -129.5t-22.5 -112.5t-61.5 -82q-143 -131 -461 -130q-280 0 -414 148q-112 122 -112 344q0 113 35 255h154q-32 -147 -32 -229zM263 877q0 -88 142 -88h70v-97h-345v91h85l1 5q-45 51 -45 99q0 82 53.5 126t139.5 44
q31 0 64 -6v-101q-30 7 -58 7q-107 0 -107 -80z" />
    <glyph glyph-name="uniFE8B" unicode="&#x626;" horiz-adv-x="684" arabic-form="initial" 
d="M153 153q100 0 132.5 28.5t44.5 64.5t12 93v444h156v-451q0 -263 -184 -323q-70 -23 -171 -23h-143q-35 0 -52.5 26t-17.5 58t17.5 57.5t52.5 25.5h153zM427 1242q-107 0 -107 -80q0 -88 142 -88h70v-97h-345v91h85l1 5q-45 51 -45 99q0 82 53.5 126t139.5 44q31 0 64 -6
v-101q-30 7 -58 7z" />
    <glyph glyph-name="uniFE8C" unicode="&#x626;" horiz-adv-x="684" arabic-form="medial" 
d="M662 -14q-188 0 -250 123h-4q-91 -123 -265 -123h-143q-35 0 -52.5 26t-17.5 58t17.5 57.5t52.5 25.5h153q121 -1 171 97q18 36 18 89v444h156v-375q0 -144 25.5 -184.5t62.5 -55.5t98 -15v-167h-22zM427 1242q-107 0 -107 -80q0 -88 142 -88h70v-97h-345v91h85l1 5
q-45 51 -45 99q0 82 53.5 126t139.5 44q31 0 64 -6v-101q-30 7 -58 7z" />
    <glyph glyph-name="uniFE8E" unicode="&#x627;" horiz-adv-x="513" arabic-form="final" 
d="M513 -14h-20q-187 0 -263 113q-58 86 -59 250v1167h156v-1108q0 -145 24 -185t61 -55t101 -15v-167z" />
    <glyph glyph-name="uniFE90" unicode="&#x628;" horiz-adv-x="1881" arabic-form="final" 
d="M328 416q0 -67 15.5 -116.5t53.5 -77.5q66 -48 195.5 -61.5t347 -13.5t313.5 5q95 6 159 26q126 41 127 175v430h156v-375q0 -144 25.5 -184.5t62 -55.5t98.5 -15v-167h-22q-97 0 -153 29t-88 93h-4q-111 -120 -419 -128q-90 -2 -206 -2q-307 0 -463.5 18t-231.5 82.5
t-99 140.5t-24 165t29 223h154q-26 -124 -26 -191zM1034 -346h-185v181h185v-181z" />
    <glyph glyph-name="uniFE91" unicode="&#x628;" horiz-adv-x="684" arabic-form="initial" 
d="M153 153q100 0 132.5 28.5t44.5 64.5t12 93v444h156v-451q0 -263 -184 -323q-70 -23 -171 -23h-143q-35 0 -52.5 26t-17.5 58t17.5 57.5t52.5 25.5h153zM480 -346h-185v181h185v-181z" />
    <glyph glyph-name="uniFE92" unicode="&#x628;" horiz-adv-x="684" arabic-form="medial" 
d="M662 -14q-188 0 -250 123h-4q-91 -123 -265 -123h-143q-35 0 -52.5 26t-17.5 58t17.5 57.5t52.5 25.5h153q121 -1 171 97q18 36 18 89v444h156v-375q0 -144 25.5 -184.5t62.5 -55.5t98 -15v-167h-22zM480 -346h-185v181h185v-181z" />
    <glyph glyph-name="uniFE94" unicode="&#x629;" horiz-adv-x="1026" arabic-form="final" 
d="M551.5 338q67.5 0 132.5 21v374q-258 -47 -344 -167q-30 -41 -29.5 -84.5t18.5 -70t47 -43t68.5 -23.5t107 -7zM533 175q-171 0 -271.5 71t-100.5 215q0 177 151 284.5t372 140.5v97h156v-587q0 -132 38 -187.5t148 -55.5v-167h-22q-181 0 -265 119q-29 41 -43 99
q-74 -29 -163 -29zM807 1199h-185v181h185v-181zM485 1199h-185v181h185v-181z" />
    <glyph glyph-name="uniFE96" unicode="&#x62a;" horiz-adv-x="1881" arabic-form="final" 
d="M328 416q0 -67 15.5 -116.5t53.5 -77.5q66 -48 195.5 -61.5t347 -13.5t313.5 5q95 6 159 26q126 41 127 175v430h156v-375q0 -144 25.5 -184.5t62 -55.5t98.5 -15v-167h-22q-97 0 -153 29t-88 93h-4q-111 -120 -419 -128q-90 -2 -206 -2q-307 0 -463.5 18t-231.5 82.5
t-99 140.5t-24 165t29 223h154q-26 -124 -26 -191zM1195 1021h-185v181h185v-181zM873 1021h-185v181h185v-181z" />
    <glyph glyph-name="uniFE97" unicode="&#x62a;" horiz-adv-x="684" arabic-form="initial" 
d="M153 153q100 0 132.5 28.5t44.5 64.5t12 93v444h156v-451q0 -263 -184 -323q-70 -23 -171 -23h-143q-35 0 -52.5 26t-17.5 58t17.5 57.5t52.5 25.5h153zM666 1021h-185v181h185v-181zM344 1021h-185v181h185v-181z" />
    <glyph glyph-name="uniFE98" unicode="&#x62a;" horiz-adv-x="684" arabic-form="medial" 
d="M662 -14q-188 0 -250 123h-4q-91 -123 -265 -123h-143q-35 0 -52.5 26t-17.5 58t17.5 57.5t52.5 25.5h153q121 -1 171 97q18 36 18 89v444h156v-375q0 -144 25.5 -184.5t62.5 -55.5t98 -15v-167h-22zM666 1021h-185v181h185v-181zM344 1021h-185v181h185v-181z" />
    <glyph glyph-name="uniFE9A" unicode="&#x62b;" horiz-adv-x="1881" arabic-form="final" 
d="M328 416q0 -67 15.5 -116.5t53.5 -77.5q66 -48 195.5 -61.5t347 -13.5t313.5 5q95 6 159 26q126 41 127 175v430h156v-375q0 -144 25.5 -184.5t62 -55.5t98.5 -15v-167h-22q-97 0 -153 29t-88 93h-4q-111 -120 -419 -128q-90 -2 -206 -2q-307 0 -463.5 18t-231.5 82.5
t-99 140.5t-24 165t29 223h154q-26 -124 -26 -191zM1034 1301h-185v181h185v-181zM1195 1021h-185v181h185v-181zM873 1021h-185v181h185v-181z" />
    <glyph glyph-name="uniFE9B" unicode="&#x62b;" horiz-adv-x="684" arabic-form="initial" 
d="M153 153q100 0 132.5 28.5t44.5 64.5t12 93v444h156v-451q0 -263 -184 -323q-70 -23 -171 -23h-143q-35 0 -52.5 26t-17.5 58t17.5 57.5t52.5 25.5h153zM505 1301h-185v181h185v-181zM666 1021h-185v181h185v-181zM344 1021h-185v181h185v-181z" />
    <glyph glyph-name="uniFE9C" unicode="&#x62b;" horiz-adv-x="684" arabic-form="medial" 
d="M662 -14q-188 0 -250 123h-4q-91 -123 -265 -123h-143q-35 0 -52.5 26t-17.5 58t17.5 57.5t52.5 25.5h153q121 -1 171 97q18 36 18 89v444h156v-375q0 -144 25.5 -184.5t62.5 -55.5t98 -15v-167h-22zM505 1301h-185v181h185v-181zM666 1021h-185v181h185v-181zM344 1021
h-185v181h185v-181z" />
    <glyph glyph-name="uniFE9E" unicode="&#x62c;" horiz-adv-x="1197" arabic-form="final" 
d="M402.5 852q106.5 0 161 -11t101 -27.5t88 -36t118.5 -47.5t197 -30l-32 -187q-68 -18 -128 -36q10 -187 75.5 -255.5t213.5 -68.5v-167h-24q-369 0 -391 449q-397 -143 -475 -344q-25 -63 -25 -131q0 -144 101.5 -231.5t299 -87.5t406.5 73v-154q-209 -73 -379 -73
q-305 0 -444.5 126t-139.5 324q0 353 440 565q102 50 237 92v8q-50 16 -88.5 32t-103.5 36t-193.5 20t-246.5 -36v157q125 41 231.5 41zM768 -94h-185v181h185v-181z" />
    <glyph glyph-name="uniFE9F" unicode="&#x62c;" horiz-adv-x="1197" arabic-form="initial" 
d="M406 783q110 0 172 -14.5t115 -36t101 -46.5q190 -98 354 -100l-32 -200q-43 -10 -100.5 -43t-130.5 -77q-203 -124 -354 -184q-239 -96 -481 -96h-50q-35 0 -52.5 26t-17.5 58t17.5 57.5t52.5 25.5h59q307 0 649 200q96 56 186 113v5q-57 27 -105 53q-175 96 -339 96.5
t-279 -35.5v157q125 41 235 41zM691 -346h-185v181h185v-181z" />
    <glyph glyph-name="uniFEA0" unicode="&#x62c;" horiz-adv-x="1197" arabic-form="medial" 
d="M406 783q110 0 172 -14.5t115 -36t101 -46.5q190 -98 354 -100l-32 -200q-51 -13 -161 -78q2 -89 49.5 -122t192.5 -33v-167h-20q-261 0 -312 158q-15 46 -17 99q-193 -115 -318 -162q-253 -95 -480 -95h-50q-35 0 -52.5 26t-17.5 58t17.5 57.5t52.5 25.5h59
q307 0 649 200q96 56 186 113v5q-57 27 -105 53q-175 96 -339 96.5t-279 -35.5v157q125 41 235 41zM691 -346h-185v181h185v-181z" />
    <glyph glyph-name="uniFEA2" unicode="&#x62d;" horiz-adv-x="1197" arabic-form="final" 
d="M402.5 852q106.5 0 161 -11t101 -27.5t88 -36t118.5 -47.5t197 -30l-32 -187q-68 -18 -128 -36q10 -187 75.5 -255.5t213.5 -68.5v-167h-24q-369 0 -391 449q-397 -143 -475 -344q-25 -63 -25 -131q0 -144 101.5 -231.5t299 -87.5t406.5 73v-154q-209 -73 -379 -73
q-305 0 -444.5 126t-139.5 324q0 353 440 565q102 50 237 92v8q-50 16 -88.5 32t-103.5 36t-193.5 20t-246.5 -36v157q125 41 231.5 41z" />
    <glyph glyph-name="uniFEA3" unicode="&#x62d;" horiz-adv-x="1197" arabic-form="initial" 
d="M406 783q110 0 172 -14.5t115 -36t101 -46.5q190 -98 354 -100l-32 -200q-43 -10 -100.5 -43t-130.5 -77q-203 -124 -354 -184q-239 -96 -481 -96h-50q-35 0 -52.5 26t-17.5 58t17.5 57.5t52.5 25.5h59q307 0 649 200q96 56 186 113v5q-57 27 -105 53q-175 96 -339 96.5
t-279 -35.5v157q125 41 235 41z" />
    <glyph glyph-name="uniFEA4" unicode="&#x62d;" horiz-adv-x="1197" arabic-form="medial" 
d="M406 783q110 0 172 -14.5t115 -36t101 -46.5q190 -98 354 -100l-32 -200q-51 -13 -161 -78q2 -89 49.5 -122t192.5 -33v-167h-20q-261 0 -312 158q-15 46 -17 99q-193 -115 -318 -162q-253 -95 -480 -95h-50q-35 0 -52.5 26t-17.5 58t17.5 57.5t52.5 25.5h59
q307 0 649 200q96 56 186 113v5q-57 27 -105 53q-175 96 -339 96.5t-279 -35.5v157q125 41 235 41z" />
    <glyph glyph-name="uniFEA6" unicode="&#x62e;" horiz-adv-x="1197" arabic-form="final" 
d="M402.5 852q106.5 0 161 -11t101 -27.5t88 -36t118.5 -47.5t197 -30l-32 -187q-68 -18 -128 -36q10 -187 75.5 -255.5t213.5 -68.5v-167h-24q-369 0 -391 449q-397 -143 -475 -344q-25 -63 -25 -131q0 -144 101.5 -231.5t299 -87.5t406.5 73v-154q-209 -73 -379 -73
q-305 0 -444.5 126t-139.5 324q0 353 440 565q102 50 237 92v8q-50 16 -88.5 32t-103.5 36t-193.5 20t-246.5 -36v157q125 41 231.5 41zM691 1061h-185v181h185v-181z" />
    <glyph glyph-name="uniFEA7" unicode="&#x62e;" horiz-adv-x="1197" arabic-form="initial" 
d="M406 783q110 0 172 -14.5t115 -36t101 -46.5q190 -98 354 -100l-32 -200q-43 -10 -100.5 -43t-130.5 -77q-203 -124 -354 -184q-239 -96 -481 -96h-50q-35 0 -52.5 26t-17.5 58t17.5 57.5t52.5 25.5h59q307 0 649 200q96 56 186 113v5q-57 27 -105 53q-175 96 -339 96.5
t-279 -35.5v157q125 41 235 41zM691 940h-185v181h185v-181z" />
    <glyph glyph-name="uniFEA8" unicode="&#x62e;" horiz-adv-x="1197" arabic-form="medial" 
d="M406 783q110 0 172 -14.5t115 -36t101 -46.5q190 -98 354 -100l-32 -200q-51 -13 -161 -78q2 -89 49.5 -122t192.5 -33v-167h-20q-261 0 -312 158q-15 46 -17 99q-193 -115 -318 -162q-253 -95 -480 -95h-50q-35 0 -52.5 26t-17.5 58t17.5 57.5t52.5 25.5h59
q307 0 649 200q96 56 186 113v5q-57 27 -105 53q-175 96 -339 96.5t-279 -35.5v157q125 41 235 41zM691 940h-185v181h185v-181z" />
    <glyph glyph-name="uniFEAA" unicode="&#x62f;" horiz-adv-x="1026" arabic-form="final" 
d="M412 147q136 0 199.5 35.5t63.5 113.5q0 134 -109 466q-32 98 -68 192h166q94 -281 162 -580q20 -93 48 -135q58 -86 152 -86v-167h-22q-157 0 -212 149h-5q-91 -157 -386 -157q-122 0 -287 22l-32 169q194 -22 330 -22z" />
    <glyph glyph-name="uniFEAC" unicode="&#x630;" horiz-adv-x="1026" arabic-form="final" 
d="M412 147q136 0 199.5 35.5t63.5 113.5q0 134 -109 466q-32 98 -68 192h166q94 -281 162 -580q20 -93 48 -135q58 -86 152 -86v-167h-22q-157 0 -212 149h-5q-91 -157 -386 -157q-122 0 -287 22l-32 169q194 -22 330 -22zM634 1192h-185v181h185v-181z" />
    <glyph glyph-name="uniFEAE" unicode="&#x631;" horiz-adv-x="855" arabic-form="final" 
d="M513 59q0 223 -113 547h161q59 -151 87 -316q18 -107 118 -129q36 -8 89 -8v-167h-22q-110 0 -162 69l-5 -1q0 -273 -124 -420t-326 -147q-104 0 -216 45v165q124 -39 213 -39q300 0 300 401z" />
    <glyph glyph-name="uniFEB0" unicode="&#x632;" horiz-adv-x="855" arabic-form="final" 
d="M513 59q0 223 -113 547h161q59 -151 87 -316q18 -107 118 -129q36 -8 89 -8v-167h-22q-110 0 -162 69l-5 -1q0 -273 -124 -420t-326 -147q-104 0 -216 45v165q124 -39 213 -39q300 0 300 401zM503 850h-185v181h185v-181z" />
    <glyph glyph-name="uniFEB2" unicode="&#x633;" horiz-adv-x="2394" arabic-form="final" 
d="M1365 153q174 0 174 186v267h156v-198q0 -146 25 -185.5t61 -54.5t86 -15q98 0 141.5 40t43.5 146v444h156v-369q0 -145 25.5 -187.5t62 -58t98.5 -15.5v-167h-22q-176 0 -236 111h-6q-77 -111 -263.5 -111t-249.5 123h-4q-88 -123 -257 -123q-118 0 -173 70l-5 -1
q-6 -277 -133 -422.5t-408 -145.5q-385 -1 -459 287q-24 92 -23.5 207.5t29.5 277.5h151q-23 -157 -23 -255q0 -194 75 -271t271 -77t284.5 105t88.5 362q0 135 -34 390h155q15 -116 25 -231q6 -66 50 -97.5t138 -31.5z" />
    <glyph glyph-name="uniFEB3" unicode="&#x633;" horiz-adv-x="1710" arabic-form="initial" 
d="M670 153q185 0 185 186v267h156v-198q0 -146 25 -185.5t61 -54.5t86 -15q98 0 141.5 40t43.5 146v444h156v-457q0 -196 -104 -278q-78 -62 -228 -62q-196 0 -259 123h-4q-91 -123 -273 -123t-244 123h-4q-91 -123 -265 -123h-143q-35 0 -52.5 26t-17.5 58t17.5 57.5
t52.5 25.5h153q121 -1 171 97q18 36 18 89v267h156v-201q0 -141 23.5 -181.5t57.5 -55.5t91 -15z" />
    <glyph glyph-name="uniFEB4" unicode="&#x633;" horiz-adv-x="1710" arabic-form="medial" 
d="M670 153q185 0 185 186v267h156v-198q0 -146 25 -185.5t61 -54.5t86 -15q98 0 141.5 40t43.5 146v444h156v-369q0 -145 25.5 -187.5t62 -58t98.5 -15.5v-167h-22q-176 0 -236 111h-6q-77 -111 -263.5 -111t-249.5 123h-4q-91 -123 -273 -123t-244 123h-4
q-91 -123 -265 -123h-143q-35 0 -52.5 26t-17.5 58t17.5 57.5t52.5 25.5h153q121 -1 171 97q18 36 18 89v267h156v-201q0 -141 23.5 -181.5t57.5 -55.5t91 -15z" />
    <glyph glyph-name="uniFEB6" unicode="&#x634;" horiz-adv-x="2394" arabic-form="final" 
d="M1365 153q174 0 174 186v267h156v-198q0 -146 25 -185.5t61 -54.5t86 -15q98 0 141.5 40t43.5 146v444h156v-369q0 -145 25.5 -187.5t62 -58t98.5 -15.5v-167h-22q-176 0 -236 111h-6q-77 -111 -263.5 -111t-249.5 123h-4q-88 -123 -257 -123q-118 0 -173 70l-5 -1
q-6 -277 -133 -422.5t-408 -145.5q-385 -1 -459 287q-24 92 -23.5 207.5t29.5 277.5h151q-23 -157 -23 -255q0 -194 75 -271t271 -77t284.5 105t88.5 362q0 135 -34 390h155q15 -116 25 -231q6 -66 50 -97.5t138 -31.5zM1709 1130h-185v181h185v-181zM1870 850h-185v181h185
v-181zM1548 850h-185v181h185v-181z" />
    <glyph glyph-name="uniFEB7" unicode="&#x634;" horiz-adv-x="1710" arabic-form="initial" 
d="M670 153q185 0 185 186v267h156v-198q0 -146 25 -185.5t61 -54.5t86 -15q98 0 141.5 40t43.5 146v444h156v-457q0 -196 -104 -278q-78 -62 -228 -62q-196 0 -259 123h-4q-91 -123 -273 -123t-244 123h-4q-91 -123 -265 -123h-143q-35 0 -52.5 26t-17.5 58t17.5 57.5
t52.5 25.5h153q121 -1 171 97q18 36 18 89v267h156v-201q0 -141 23.5 -181.5t57.5 -55.5t91 -15zM1025 1130h-185v181h185v-181zM1186 850h-185v181h185v-181zM864 850h-185v181h185v-181z" />
    <glyph glyph-name="uniFEB8" unicode="&#x634;" horiz-adv-x="1710" arabic-form="medial" 
d="M670 153q185 0 185 186v267h156v-198q0 -146 25 -185.5t61 -54.5t86 -15q98 0 141.5 40t43.5 146v444h156v-369q0 -145 25.5 -187.5t62 -58t98.5 -15.5v-167h-22q-176 0 -236 111h-6q-77 -111 -263.5 -111t-249.5 123h-4q-91 -123 -273 -123t-244 123h-4
q-91 -123 -265 -123h-143q-35 0 -52.5 26t-17.5 58t17.5 57.5t52.5 25.5h153q121 -1 171 97q18 36 18 89v267h156v-201q0 -141 23.5 -181.5t57.5 -55.5t91 -15zM1025 1130h-185v181h185v-181zM1186 850h-185v181h185v-181zM864 850h-185v181h185v-181z" />
    <glyph glyph-name="uniFEBA" unicode="&#x635;" horiz-adv-x="2736" arabic-form="final" 
d="M1840 147q228 0 309 5q81 4 135 24q110 39 110 168q0 315 -330 315q-269 -1 -465 -271q-80 -111 -125 -238q138 -3 366 -3zM1031 155.5q0 161.5 -41 357.5h154q11 -63 17.5 -120t12.5 -97q10 -70 42 -103.5t107 -37.5q89 241 267 433q222 240 510 240q217 0 332 -128.5
t119 -324.5q2 -121 40.5 -171.5t144.5 -50.5v-167h-22q-94 0 -152 29t-89 98h-6q-93 -122 -365 -132q-78 -3 -202 -3q-563 0 -621 17t-96 61l-5 -1q-6 -277 -133.5 -422.5t-412.5 -145.5q-380 -1 -454 287q-24 92 -23.5 207.5t29.5 277.5h151q-23 -157 -23 -255
q0 -194 75 -271t271 -77t284 104q46 55 67.5 144.5t21.5 251z" />
    <glyph glyph-name="uniFEBB" unicode="&#x635;" horiz-adv-x="2052" arabic-form="initial" 
d="M1156 147q228 0 309 5q81 4 135 24q110 39 110 168q0 315 -330 315q-203 0 -361.5 -153.5t-228.5 -355.5q138 -3 366 -3zM334 324.5q0 57.5 -28 188.5h154q11 -63 17.5 -120t12.5 -97q10 -70 42 -103.5t107 -37.5q89 241 267 433q222 240 510 240q219 0 335 -132.5
t116 -337.5q1 -254 -183 -330q-102 -42 -224 -46q-124 -4 -254 -4q-357 0 -500 5t-185.5 23.5t-65.5 43t-43 59.5h-4q-91 -123 -265 -123h-143q-35 0 -52.5 26t-17.5 58t17.5 57.5t52.5 25.5h153q75 -1 129 43q24 20 38 45.5t14 83z" />
    <glyph glyph-name="uniFEBC" unicode="&#x635;" horiz-adv-x="2052" arabic-form="medial" 
d="M1156 147q228 0 309 5q81 4 135 24q110 39 110 168q0 315 -330 315q-203 0 -361.5 -153.5t-228.5 -355.5q138 -3 366 -3zM334 324.5q0 57.5 -28 188.5h154q11 -63 17.5 -120t12.5 -97q10 -70 42 -103.5t107 -37.5q89 241 267 433q222 240 510 240q217 0 332 -128.5
t119 -324.5q2 -121 40.5 -171.5t144.5 -50.5v-167h-22q-94 0 -152 29t-89 98h-6q-93 -122 -365 -132q-78 -3 -210 -3q-358 0 -501.5 5t-186 23.5t-65.5 43t-43 59.5h-4q-91 -123 -265 -123h-143q-35 0 -52.5 26t-17.5 58t17.5 57.5t52.5 25.5h153q75 -1 129 43
q24 20 38 45.5t14 83z" />
    <glyph glyph-name="uniFEBE" unicode="&#x636;" horiz-adv-x="2736" arabic-form="final" 
d="M1840 147q228 0 309 5q81 4 135 24q110 39 110 168q0 315 -330 315q-269 -1 -465 -271q-80 -111 -125 -238q138 -3 366 -3zM1031 155.5q0 161.5 -41 357.5h154q11 -63 17.5 -120t12.5 -97q10 -70 42 -103.5t107 -37.5q89 241 267 433q222 240 510 240q217 0 332 -128.5
t119 -324.5q2 -121 40.5 -171.5t144.5 -50.5v-167h-22q-94 0 -152 29t-89 98h-6q-93 -122 -365 -132q-78 -3 -202 -3q-563 0 -621 17t-96 61l-5 -1q-6 -277 -133.5 -422.5t-412.5 -145.5q-380 -1 -454 287q-24 92 -23.5 207.5t29.5 277.5h151q-23 -157 -23 -255
q0 -194 75 -271t271 -77t284 104q46 55 67.5 144.5t21.5 251zM1831 1021h-185v181h185v-181z" />
    <glyph glyph-name="uniFEBF" unicode="&#x636;" horiz-adv-x="2052" arabic-form="initial" 
d="M1156 147q228 0 309 5q81 4 135 24q110 39 110 168q0 315 -330 315q-203 0 -361.5 -153.5t-228.5 -355.5q138 -3 366 -3zM334 324.5q0 57.5 -28 188.5h154q11 -63 17.5 -120t12.5 -97q10 -70 42 -103.5t107 -37.5q89 241 267 433q222 240 510 240q219 0 335 -132.5
t116 -337.5q1 -254 -183 -330q-102 -42 -224 -46q-124 -4 -254 -4q-357 0 -500 5t-185.5 23.5t-65.5 43t-43 59.5h-4q-91 -123 -265 -123h-143q-35 0 -52.5 26t-17.5 58t17.5 57.5t52.5 25.5h153q75 -1 129 43q24 20 38 45.5t14 83zM1147 1021h-185v181h185v-181z" />
    <glyph glyph-name="uniFEC0" unicode="&#x636;" horiz-adv-x="2052" arabic-form="medial" 
d="M1156 147q228 0 309 5q81 4 135 24q110 39 110 168q0 315 -330 315q-203 0 -361.5 -153.5t-228.5 -355.5q138 -3 366 -3zM334 324.5q0 57.5 -28 188.5h154q11 -63 17.5 -120t12.5 -97q10 -70 42 -103.5t107 -37.5q89 241 267 433q222 240 510 240q217 0 332 -128.5
t119 -324.5q2 -121 40.5 -171.5t144.5 -50.5v-167h-22q-94 0 -152 29t-89 98h-6q-93 -122 -365 -132q-78 -3 -210 -3q-358 0 -501.5 5t-186 23.5t-65.5 43t-43 59.5h-4q-91 -123 -265 -123h-143q-35 0 -52.5 26t-17.5 58t17.5 57.5t52.5 25.5h153q75 -1 129 43
q24 20 38 45.5t14 83zM1147 1021h-185v181h185v-181z" />
    <glyph glyph-name="uniFEC2" unicode="&#x637;" horiz-adv-x="1710" arabic-form="final" 
d="M816.5 147q225.5 0 306.5 5q81 4 135 24q110 39 110 168q0 177 -89 260t-241 83q-264 1 -461 -285q-78 -113 -124 -252q138 -3 363.5 -3zM341 1516h158v-995l3 -1q159 230 390 308q82 28 187 28t191 -39t142 -105q109 -128 113 -337q2 -121 40.5 -171.5t144.5 -50.5v-167
h-22q-94 0 -152 29t-89 98h-6q-93 -122 -365 -132q-78 -3 -212 -3q-558 0 -807 24l-32 167q89 -12 278 -14q11 30 38 94v1267z" />
    <glyph glyph-name="uniFEC3" unicode="&#x637;" horiz-adv-x="1710" arabic-form="initial" 
d="M816 147q226 0 307 5q81 4 135 24q110 39 110 168q0 177 -89 260t-241 83q-264 1 -461 -285q-78 -113 -124 -252q137 -3 363 -3zM341 1516h158v-995l3 -1q159 230 390 308q82 28 187.5 28t192.5 -39.5t143 -107.5q110 -134 110 -351q-1 -254 -183 -328
q-105 -43 -225.5 -46t-202.5 -3l-845 5h-69q-35 0 -52.5 26t-17.5 58t17.5 57.5t52.5 25.5h302q7 21 39 96v1267z" />
    <glyph glyph-name="uniFEC4" unicode="&#x637;" horiz-adv-x="1710" arabic-form="medial" 
d="M816 147q226 0 307 5q81 4 135 24q110 39 110 168q0 177 -89 260t-241 83q-264 1 -461 -285q-78 -113 -124 -252q137 -3 363 -3zM341 1516h158v-995l3 -1q159 230 390 308q82 28 187 28t191 -39t142 -105q109 -128 113 -337q2 -121 40.5 -171.5t144.5 -50.5v-167h-22
q-94 0 -152 30t-89 97h-6q-97 -121 -365 -129q-78 -2 -162 -3l-845 5h-69q-35 0 -52.5 26t-17.5 58t17.5 57.5t52.5 25.5h302q7 21 39 96v1267z" />
    <glyph glyph-name="uniFEC6" unicode="&#x638;" horiz-adv-x="1710" arabic-form="final" 
d="M816.5 147q225.5 0 306.5 5q81 4 135 24q110 39 110 168q0 177 -89 260t-241 83q-264 1 -461 -285q-78 -113 -124 -252q138 -3 363.5 -3zM341 1516h158v-995l3 -1q159 230 390 308q82 28 187 28t191 -39t142 -105q109 -128 113 -337q2 -121 40.5 -171.5t144.5 -50.5v-167
h-22q-94 0 -152 29t-89 98h-6q-93 -122 -365 -132q-78 -3 -212 -3q-558 0 -807 24l-32 167q89 -12 278 -14q11 30 38 94v1267zM1090 1021h-185v181h185v-181z" />
    <glyph glyph-name="uniFEC7" unicode="&#x638;" horiz-adv-x="1710" arabic-form="initial" 
d="M816 147q226 0 307 5q81 4 135 24q110 39 110 168q0 177 -89 260t-241 83q-264 1 -461 -285q-78 -113 -124 -252q137 -3 363 -3zM341 1516h158v-995l3 -1q159 230 390 308q82 28 187.5 28t192.5 -39.5t143 -107.5q110 -134 110 -351q-1 -254 -183 -328
q-105 -43 -225.5 -46t-202.5 -3l-845 5h-69q-35 0 -52.5 26t-17.5 58t17.5 57.5t52.5 25.5h302q7 21 39 96v1267zM1090 1021h-185v181h185v-181z" />
    <glyph glyph-name="uniFEC8" unicode="&#x638;" horiz-adv-x="1710" arabic-form="medial" 
d="M816 147q226 0 307 5q81 4 135 24q110 39 110 168q0 177 -89 260t-241 83q-264 1 -461 -285q-78 -113 -124 -252q137 -3 363 -3zM341 1516h158v-995l3 -1q159 230 390 308q82 28 187 28t191 -39t142 -105q109 -128 113 -337q2 -121 40.5 -171.5t144.5 -50.5v-167h-22
q-94 0 -152 30t-89 97h-6q-97 -121 -365 -129q-78 -2 -162 -3l-845 5h-69q-35 0 -52.5 26t-17.5 58t17.5 57.5t52.5 25.5h302q7 21 39 96v1267zM1090 1021h-185v181h185v-181z" />
    <glyph glyph-name="uniFECA" unicode="&#x639;" horiz-adv-x="1197" arabic-form="final" 
d="M632 760q-98 0 -308 -23v-13q113 -176 248 -305q150 67 216.5 138t66.5 115q0 88 -223 88zM1197 153v-167h-62q-321 0 -606 263q-272 -113 -272 -295q0 -217 224 -288q79 -25 192 -25q187 0 396 73v-154q-209 -73 -381 -73q-306 0 -446.5 126t-140.5 315.5t163 323.5
q63 52 161 102q-89 95 -160.5 202t-93.5 145v165q328 51 482 51q359 0 359 -196q0 -151 -163 -293q-64 -56 -166 -104q234 -171 493 -171h21z" />
    <glyph glyph-name="uniFECB" unicode="&#x639;" horiz-adv-x="1198" arabic-form="initial" 
d="M655 738q-328 0 -328 -232q0 -172 239 -327q249 49 517 175l1 -183q-328 -151 -632 -177q-98 -8 -202 -8h-250q-35 0 -52.5 26t-17.5 58t17.5 57.5t52.5 25.5h369l1 6q-199 164 -199 356q0 164 138 278q138 113 368 113q86 0 177 -17v-170q-109 19 -199 19z" />
    <glyph glyph-name="uniFECC" unicode="&#x639;" horiz-adv-x="1197" arabic-form="medial" 
d="M855 612q0 93 -224 93q-97 0 -307 -23v-11q142 -219 341 -355q140 110 180 243q10 33 10 53zM652 862q360 0 360 -203q0 -141 -119 -309q-41 -58 -98 -112q184 -85 402 -85v-167h-62q-257 0 -483 143q-230 -143 -549 -143h-103q-35 0 -52.5 26t-17.5 58t17.5 57.5
t52.5 25.5h113q232 0 406 77q-198 164 -348 408v173q328 51 481 51z" />
    <glyph glyph-name="uniFECE" unicode="&#x63a;" horiz-adv-x="1197" arabic-form="final" 
d="M632 760q-98 0 -308 -23v-13q113 -176 248 -305q150 67 216.5 138t66.5 115q0 88 -223 88zM1197 153v-167h-62q-321 0 -606 263q-272 -113 -272 -295q0 -217 224 -288q79 -25 192 -25q187 0 396 73v-154q-209 -73 -381 -73q-306 0 -446.5 126t-140.5 315.5t163 323.5
q63 52 161 102q-89 95 -160.5 202t-93.5 145v165q328 51 482 51q359 0 359 -196q0 -151 -163 -293q-64 -56 -166 -104q234 -171 493 -171h21zM691 1100h-185v181h185v-181z" />
    <glyph glyph-name="uniFECF" unicode="&#x63a;" horiz-adv-x="1198" arabic-form="initial" 
d="M655 738q-328 0 -328 -232q0 -172 239 -327q249 49 517 175l1 -183q-328 -151 -632 -177q-98 -8 -202 -8h-250q-35 0 -52.5 26t-17.5 58t17.5 57.5t52.5 25.5h369l1 6q-199 164 -199 356q0 164 138 278q138 113 368 113q86 0 177 -17v-170q-109 19 -199 19zM634 1071
h-185v181h185v-181z" />
    <glyph glyph-name="uniFED0" unicode="&#x63a;" horiz-adv-x="1197" arabic-form="medial" 
d="M855 612q0 93 -224 93q-97 0 -307 -23v-11q142 -219 341 -355q140 110 180 243q10 33 10 53zM652 862q360 0 360 -203q0 -141 -119 -309q-41 -58 -98 -112q184 -85 402 -85v-167h-62q-257 0 -483 143q-230 -143 -549 -143h-103q-35 0 -52.5 26t-17.5 58t17.5 57.5
t52.5 25.5h113q232 0 406 77q-198 164 -348 408v173q328 51 481 51zM691 1021h-185v181h185v-181z" />
    <glyph glyph-name="uniFED2" unicode="&#x641;" horiz-adv-x="2052" arabic-form="final" 
d="M1648 204q62 43 62 149.5t-64 223t-130 116.5t-114.5 -68t-48.5 -144q-1 -102 147 -197q58 -37 148 -80zM328 416q0 -147 73 -197.5t214 -61t436.5 -10.5t393.5 5l2 6q-203 82 -237 218q-10 42 -10 97.5t24 126t66 130.5q98 136 227 136q165 0 285 -239
q64 -129 64.5 -255t-51.5 -207q75 -12 237 -12v-167h-22q-214 0 -365 58q-126 -58 -369 -64q-69 -2 -138 -2h-185q-308 0 -413 13q-192 24 -266.5 87.5t-98.5 140t-24 165.5t29 223h154q-26 -124 -26 -191zM1588 1135h-185v181h185v-181z" />
    <glyph glyph-name="uniFED3" unicode="&#x641;" horiz-adv-x="1026" arabic-form="initial" 
d="M622 204q62 45 62 151q0 105 -64 221q-64 117 -138 117q-56 0 -106 -67q-49 -67 -49 -141q0 -73 64 -138q63 -65 231 -143zM200 153q111 0 219 -2l2 7q-203 82 -237 218q-10 42 -10 97.5t24 126t66 130.5q98 136 233 136t239 -172q105 -172 105 -325q-1 -257 -219 -335
q-116 -42 -238 -45t-193 -3h-191q-35 0 -52.5 26t-17.5 58t17.5 57.5t52.5 25.5h200zM562 1135h-185v181h185v-181z" />
    <glyph glyph-name="uniFED4" unicode="&#x641;" horiz-adv-x="1026" arabic-form="medial" 
d="M626 202q58 42 58 150t-64 224q-64 117 -130 117t-114 -68q-49 -68 -49 -144q0 -103 150 -199q58 -37 149 -80zM200 153q111 0 219 -2l2 7q-203 82 -237 218q-10 42 -10 97.5t24 126t66 130.5q98 136 227 136q165 0 285 -239q64 -129 64.5 -256t-51.5 -206
q75 -12 237 -12v-167h-22q-215 0 -366 58q-121 -53 -337 -57q-58 -1 -110 -1h-191q-35 0 -52.5 26t-17.5 58t17.5 57.5t52.5 25.5h200zM562 1135h-185v181h185v-181z" />
    <glyph glyph-name="uniFED6" unicode="&#x642;" horiz-adv-x="1539" arabic-form="final" 
d="M838 310q0 -157 258 -157h101q-19 185 -103 301q-49 68 -103.5 68t-103.5 -66.5t-49 -145.5zM312 6q0 -192 94 -271t336 -79q333 0 416 168q30 61 37 162h-117q-282 0 -366 177q-27 57 -27 126q0 143 94 274.5t227.5 131.5t231.5 -156t113 -386h188v-167h-187
q-22 -256 -173 -377.5t-450 -121.5q-455 1 -545 281q-30 92 -29.5 210.5t29.5 280.5h151q-23 -157 -23 -253zM1234 964h-185v181h185v-181zM912 964h-185v181h185v-181z" />
    <glyph glyph-name="uniFED7" unicode="&#x642;" horiz-adv-x="1026" arabic-form="initial" 
d="M622 204q62 45 62 151q0 105 -64 221q-64 117 -138 117q-56 0 -106 -67q-49 -67 -49 -141q0 -73 64 -138q63 -65 231 -143zM200 153q111 0 219 -2l2 7q-203 82 -237 218q-10 42 -10 97.5t24 126t66 130.5q98 136 233 136t239 -172q105 -172 105 -325q-1 -257 -219 -335
q-116 -42 -238 -45t-193 -3h-191q-35 0 -52.5 26t-17.5 58t17.5 57.5t52.5 25.5h200zM723 1135h-185v181h185v-181zM401 1135h-185v181h185v-181z" />
    <glyph glyph-name="uniFED8" unicode="&#x642;" horiz-adv-x="1026" arabic-form="medial" 
d="M626 202q58 42 58 150t-64 224q-64 117 -130 117t-114 -68q-49 -68 -49 -144q0 -103 150 -199q58 -37 149 -80zM200 153q111 0 219 -2l2 7q-203 82 -237 218q-10 42 -10 97.5t24 126t66 130.5q98 136 227 136q165 0 285 -239q64 -129 64.5 -256t-51.5 -206
q75 -12 237 -12v-167h-22q-215 0 -366 58q-121 -53 -337 -57q-58 -1 -110 -1h-191q-35 0 -52.5 26t-17.5 58t17.5 57.5t52.5 25.5h200zM723 1135h-185v181h185v-181zM401 1135h-185v181h185v-181z" />
    <glyph glyph-name="uniFEDA" unicode="&#x643;" horiz-adv-x="1710" arabic-form="final" 
d="M847 951q1 -20 17 -32q16 -11 35 -21q47 -24 70 -47t23 -61q0 -75 -80 -128.5t-228 -60.5v93q197 11 197 82q0 18 -15.5 29t-33.5 21q-44 23 -70 48q-26 24 -26 68q0 78 80.5 126.5t208.5 65.5v-93q-178 -23 -178 -90zM328 416q0 -66 16 -116t52 -77q63 -46 177 -61
t292.5 -15t259.5 5q81 6 135 26q108 41 108 175v1163h156v-1108q0 -144 25.5 -184.5t62 -55.5t98.5 -15v-167h-22q-100 0 -158.5 29t-90.5 93h-4q-95 -120 -361 -128q-78 -2 -178 -2q-252 0 -392.5 20t-212.5 82.5t-96 138.5t-24 165t29 223h154q-26 -124 -26 -191z" />
    <glyph glyph-name="uniFEDB" unicode="&#x643;" horiz-adv-x="1026" arabic-form="initial" 
d="M0 -14q-35 0 -52.5 26t-17.5 58t17.5 57.5t52.5 25.5h296q271 -1 316 95q15 32 15 90.5t-44 128.5t-126 137q-145 118 -457 270v118l843 546v-176l-666 -417q299 -142 454 -290q154 -148 154 -324q0 -264 -301 -328q-80 -17 -191 -17h-293z" />
    <glyph glyph-name="uniFEDC" unicode="&#x643;" horiz-adv-x="1026" arabic-form="medial" 
d="M0 -14q-35 0 -52.5 26t-17.5 58t17.5 57.5t52.5 25.5h296q271 -1 316 95q15 32 15 90.5t-44 128.5t-126 137q-145 118 -457 270v118l843 546v-176l-666 -417q457 -217 559 -436q32 -69 41.5 -113.5t15 -66t15.5 -45.5q55 -131 218 -131v-167h-22q-192 0 -274 159h-5
q-108 -159 -432 -159h-293z" />
    <glyph glyph-name="uniFEDE" unicode="&#x644;" horiz-adv-x="1368" arabic-form="final" 
d="M312 178q0 -196 74.5 -272.5t268.5 -76.5t282.5 105t88.5 362v1220h156v-1104q0 -144 25.5 -186t62.5 -57.5t98 -15.5v-167h-19q-133 0 -190 78h-4q-72 -404 -527 -404q-376 0 -450 288q-24 92 -23.5 210.5t27.5 263.5h152q-22 -144 -22 -244z" />
    <glyph glyph-name="uniFEDF" unicode="&#x644;" horiz-adv-x="684" arabic-form="initial" 
d="M153 153q100 0 132.5 28.5t44.5 64.5t12 93v1177h156v-1184q0 -263 -184 -323q-70 -23 -171 -23h-143q-35 0 -52.5 26t-17.5 58t17.5 57.5t52.5 25.5h153z" />
    <glyph glyph-name="uniFEE0" unicode="&#x644;" horiz-adv-x="684" arabic-form="medial" 
d="M0 -14q-35 0 -52.5 26t-17.5 58t17.5 57.5t52.5 25.5h153q121 -1 171 97q18 36 18 89v1177h156v-1108q0 -144 25.5 -184.5t62.5 -55.5t98 -15v-167h-22q-183 0 -242 123h-4q-95 -123 -273 -123h-143z" />
    <glyph glyph-name="uniFEE2" unicode="&#x645;" horiz-adv-x="1197" arabic-form="final" 
d="M709 152q146 0 146 123q0 80 -57.5 168t-132 88t-129 -82t-95.5 -255q33 -5 67 -12t90 -18.5t111 -11.5zM214 -118q0 -206 63 -395h-166q-54 222 -54 328q0 177 68.5 271t184.5 112q76 372 260 470q55 29 118 29q121 0 208 -107.5t107 -228t42 -150.5q43 -58 152 -58
v-167h-22q-150 0 -218 112h-4q-80 -113 -225 -113q-71 0 -198 30.5t-171 30.5q-78 0 -111.5 -50t-33.5 -114z" />
    <glyph glyph-name="uniFEE3" unicode="&#x645;" horiz-adv-x="1198" arabic-form="initial" 
d="M855 292q0 79 -57.5 154t-159.5 75q-138 -1 -214 -159q-22 -48 -39 -101q86 -107 278 -107t192 138zM0 -14q-35 0 -52.5 26t-17.5 58t17.5 57.5t52.5 25.5h26q165 0 245 187q29 69 56.5 126t69.5 106q99 115 263 115t266 -135q86 -113 86 -245.5t-90.5 -226.5t-254.5 -94
q-200 0 -347 147q-97 -147 -301 -147h-19z" />
    <glyph glyph-name="uniFEE4" unicode="&#x645;" horiz-adv-x="1197" arabic-form="medial" 
d="M663.5 154q191.5 0 191.5 137q0 80 -57.5 155t-158.5 75q-173 0 -254 -260q87 -107 278.5 -107zM0 -14q-35 0 -52.5 26t-17.5 58t17.5 57.5t52.5 25.5h26q168 0 243 182q48 116 74 160q115 192 289 192q268 -1 352 -245q19 -55 25.5 -103t12.5 -79q23 -108 175 -108v-166
h-22q-172 0 -232 129h-5q-102 -129 -286.5 -129t-331.5 147q-97 -147 -301 -147h-19z" />
    <glyph glyph-name="uniFEE6" unicode="&#x646;" horiz-adv-x="1368" arabic-form="final" 
d="M1033 118q0 124 -33 331h156q8 -45 12 -87t12 -94q16 -115 188 -115v-167h-22q-110 0 -160 70l-5 -1q-6 -279 -134 -423.5t-415 -144.5q-380 -1 -454 287q-24 92 -23.5 207.5t29.5 277.5h151q-23 -157 -23 -255q0 -194 75 -271t271 -77t285.5 104.5t89.5 357.5zM764 679
h-185v181h185v-181z" />
    <glyph glyph-name="uniFEE7" unicode="&#x646;" horiz-adv-x="684" arabic-form="initial" 
d="M153 153q100 0 132.5 28.5t44.5 64.5t12 93v444h156v-451q0 -263 -184 -323q-70 -23 -171 -23h-143q-35 0 -52.5 26t-17.5 58t17.5 57.5t52.5 25.5h153zM505 1021h-185v181h185v-181z" />
    <glyph glyph-name="uniFEE8" unicode="&#x646;" horiz-adv-x="684" arabic-form="medial" 
d="M662 -14q-188 0 -250 123h-4q-91 -123 -265 -123h-143q-35 0 -52.5 26t-17.5 58t17.5 57.5t52.5 25.5h153q121 -1 171 97q18 36 18 89v444h156v-375q0 -144 25.5 -184.5t62.5 -55.5t98 -15v-167h-22zM505 1021h-185v181h185v-181z" />
    <glyph glyph-name="uniFEEA" unicode="&#x647;" horiz-adv-x="1026" arabic-form="final" 
d="M551.5 338q67.5 0 132.5 21v374q-258 -47 -344 -167q-30 -41 -29.5 -84.5t18.5 -70t47 -43t68.5 -23.5t107 -7zM533 175q-171 0 -271.5 71t-100.5 215q0 177 151 284.5t372 140.5v97h156v-587q0 -132 38 -187.5t148 -55.5v-167h-22q-181 0 -265 119q-29 41 -43 99
q-74 -29 -163 -29z" />
    <glyph glyph-name="uniFEEB" unicode="&#x647;" horiz-adv-x="1368" arabic-form="initial" 
d="M758 471q0 -174 -87 -278q131 -51 296 -64q29 45 29 93q0 84 -66.5 177t-183.5 202l-5 -5q17 -60 17 -125zM631 483q0 85 -48 153t-101.5 68t-107 -73.5t-53.5 -140.5t33 -108q62 -76 193 -143q84 104 84 244zM0 -14q-35 0 -52.5 26t-17.5 58t17.5 57.5t52.5 25.5l230 -2
q132 0 188 3l1 4q-203 82 -237 218q-10 42 -10 93q0 112 72.5 229.5t179.5 149.5l1 6l-83 54v199q376 -211 610 -475q102 -116 154.5 -215t52.5 -155q0 -114 -50 -195t-136 -81q-123 0 -286 47q-59 17 -116 43q-118 -90 -413 -90h-158z" />
    <glyph glyph-name="uniFEEC" unicode="&#x647;" horiz-adv-x="1026" arabic-form="medial" 
d="M654.5 -309q29.5 36 29.5 79q0 87 -66 151.5t-171 64.5h-124q7 -164 79.5 -247.5t147.5 -83.5t104.5 36zM464 153q94 0 157.5 90.5t63.5 189.5q1 99 -23 153q-43 99 -85 99q-26 0 -61.5 -35.5t-71.5 -103.5q-85 -163 -110 -393h130zM841 -249q0 -107 -78.5 -185.5
t-206.5 -78.5q-128 -1 -237 103q-137 128 -148 396h-171q-35 0 -52.5 26t-17.5 58t17.5 57.5t52.5 25.5h180q72 457 290 637q77 64 132 64q99 0 169 -121t70 -259q0 -192 -142 -314l2 -7h325v-167h-320l-1 -6q136 -85 136 -229z" />
    <glyph glyph-name="uniFEEE" unicode="&#x648;" horiz-adv-x="1026" arabic-form="final" 
d="M324 310q0 -157 259 -157h101q-19 185 -103 301q-49 69 -103.5 68.5t-104 -68t-49.5 -144.5zM363 -342q242 0 299 210q13 48 20 118h-117q-283 0 -367 177q-27 57 -27 126q0 143 94 274.5t227.5 131.5t240.5 -170q90 -145 105 -372h188v-167h-189q-27 -345 -271 -459
q-86 -40 -203 -40q-180 0 -363 84v166q194 -79 363 -79z" />
    <glyph glyph-name="uniFEF0" unicode="&#x649;" horiz-adv-x="1710" arabic-form="final" 
d="M311 264q0 -173 78 -252q95 -97 340 -97q245 -1 319 87q22 26 22.5 56.5t-15.5 52t-35 45.5q-51 64 -51 128q0 115 69.5 181t176.5 66q130 -1 208 -159q64 -130 124 -174.5t163 -44.5v-167h-22q-174 0 -278 120q-47 54 -79 114q-33 60 -53 91q-39 59 -77 59
q-78 0 -78 -70q0 -33 16 -55q16 -21 35 -45q51 -63 51 -129.5t-22.5 -112.5t-61.5 -82q-143 -131 -461 -130q-280 0 -414 148q-112 122 -112 344q0 113 35 255h154q-32 -147 -32 -229z" />
    </font>
</defs>
</svg>
