<?xml version="1.0" encoding="utf-8"?>
<!DOCTYPE svg PUBLIC "-//W3C//DTD SVG 1.1//EN" "http://www.w3.org/Graphics/SVG/1.1/DTD/svg11.dtd">
<svg version="1.1" id="arrow-down" xmlns="http://www.w3.org/2000/svg" xmlns:xlink="http://www.w3.org/1999/xlink" x="0px" y="0px"
	 viewBox="0 0 50 50" style="enable-background:new 0 0 50 50;" xml:space="preserve">
<style type="text/css">
<![CDATA[
	.st0{fill:#010101;}
]]>
</style>
<path id="circle" d="M0.2,27.4c-0.2-1.9-0.3-3.4,0-5.3c0.1-0.4,0.2-0.8,0.2-1.1C2.2,9.1,12.3,0.2,24.3,0c8.2-0.1,14.9,3,20.1,9.4
	c3,3.8,4.6,8.2,5.3,12.9c0.1,2.5,0.1,2.5,0,4.7c-0.1,0.5-0.2,0.8-0.2,1.3C47.7,40.2,37.9,49.1,26,49.5c-10,0.3-17.5-4-22.7-12.6
	C1.5,34,0.7,30.7,0.2,27.4z M2.3,24.7c-0.2,11.6,9.2,22.7,22.6,22.7c13.2,0,22.6-10.7,22.6-22.6c0-12-9.4-22.7-22.6-22.7
	C11.4,2.1,2.2,13.3,2.3,24.7z"/>
	<path id="arrow" class="st0" d="M31.8,23.4c-0.2-0.3-0.6-0.3-0.9-0.1l-6,5l-6-5c-0.3-0.2-0.7-0.2-0.9,0.1c-0.2,0.3-0.2,0.7,0.1,0.9l6.5,5.4
		c0.1,0.1,0.3,0.1,0.4,0.1c0.1,0,0.3,0,0.4-0.1l6.5-5.4C31.9,24,32,23.6,31.8,23.4z"/>
</svg>
