<?xml version="1.0" encoding="utf-8"?>
<!DOCTYPE svg PUBLIC "-//W3C//DTD SVG 1.1//EN" "http://www.w3.org/Graphics/SVG/1.1/DTD/svg11.dtd">
<svg version="1.1" id="brand-logo" xmlns="http://www.w3.org/2000/svg" xmlns:xlink="http://www.w3.org/1999/xlink" x="0px" y="0px"
	 viewBox="-4 -4 58 58" enable-background="new -4 -4 58 58" xml:space="preserve">
<path id="circle" d="M0.2,27.2c-0.2-1.9-0.3-3.4,0-5.3c0.1-0.4,0.2-0.8,0.2-1.1C2.2,9,12.2,0.2,24.2,0C32.3-0.1,39,3,44.1,9.4
	c3,3.7,4.6,8.1,5.2,12.8c0.1,2.5,0.1,2.5,0,4.7c-0.1,0.5-0.2,0.8-0.2,1.3c-1.8,11.7-11.5,20.6-23.3,20.9c-9.9,0.3-17.4-4-22.5-12.5
	C1.5,33.7,0.7,30.5,0.2,27.2z M2.3,24.5C2.1,36,11.4,47.1,24.8,47c13.1,0,22.4-10.6,22.4-22.4c0-11.9-9.4-22.5-22.5-22.5
	C11.3,2.1,2.2,13.1,2.3,24.5z"/>
<path id="icon" d="M24.9,45.2c-3.4,0-6.6-2.5-7.7-5.6c-3-8.9-5.9-17.9-8.8-26.9c-0.3-1,0-1.2,0.9-1.2c3.6,0.1,7.4,3.1,8.5,6.7
	c2.1,6.6,4.2,13.2,6.3,19.8c0.1,0.3,0.4,0.6,0.5,1c0.1-0.3,0.3-0.6,0.4-0.9c2.1-6.6,4.2-13.2,6.3-19.8c1.1-3.5,4.8-6.5,8.3-6.7
	c1.6-0.1,1.7,0,1.2,1.5C38.3,21,35.6,29,33,37c-0.6,2-1.2,3.9-2.7,5.5C28.8,44.2,26.9,45.1,24.9,45.2z"/>
<path id="circle-alt" d="M-3.2,27.6c-0.2-2.2-0.3-3.9,0-6c0.1-0.5,0.2-0.9,0.2-1.3c2-13.4,13.4-23.4,27.1-23.7
	C33.3-3.4,41,0.1,46.8,7.4c3.4,4.2,5.2,9.2,5.9,14.6c0.1,2.8,0.1,2.8,0,5.3c-0.1,0.6-0.2,0.9-0.2,1.5c-2,13.3-13.1,23.4-26.5,23.8
	C14.7,52.9,6.1,48,0.3,38.3C-1.7,35-2.6,31.4-3.2,27.6z M-0.8,24.6C-1,37.6,9.6,50.3,24.8,50.2c14.9,0,25.5-12.1,25.5-25.5
	c0-13.5-10.7-25.6-25.6-25.6C9.4-0.9-0.9,11.6-0.8,24.6z"/>
</svg>
