<?xml version="1.0" encoding="utf-8"?>
<!DOCTYPE svg PUBLIC "-//W3C//DTD SVG 1.1//EN" "http://www.w3.org/Graphics/SVG/1.1/DTD/svg11.dtd">
<svg version="1.1" id="icon-dribbble" xmlns="http://www.w3.org/2000/svg" xmlns:xlink="http://www.w3.org/1999/xlink" x="0px"
	 y="0px" viewBox="0 0 50 50" enable-background="new 0 0 50 50" xml:space="preserve">
<path d="M34,27.2c0.9,0,1.7,0.1,2.6,0.2c0.9,0.1,1.8,0.3,2.7,0.5c-0.4,2.1-1.2,4-2.4,5.6s-2.7,3-4.5,4.1c-0.2-1.7-0.5-3.4-0.8-5.1
	c-0.3-1.7-0.8-3.3-1.3-5C31.5,27.3,32.7,27.2,34,27.2L34,27.2z M21.2,31.7c1.9-1.5,3.9-2.6,6.2-3.4c0.6,1.7,1,3.4,1.4,5.2
	c0.4,1.8,0.6,3.6,0.8,5.4c-0.8,0.3-1.5,0.5-2.3,0.6c-0.8,0.1-1.5,0.2-2.3,0.2c-3,0-5.9-0.9-8.6-2.7C17.7,34.9,19.4,33.1,21.2,31.7z
	 M28.8,23.5c-0.1-0.4-0.3-0.8-0.5-1.2c3.1-1.4,6-3.3,8.8-5.6c0.8,1.2,1.4,2.5,1.9,3.9c0.5,1.4,0.7,2.8,0.7,4.3
	c-1-0.2-1.9-0.4-2.8-0.6c-0.9-0.1-1.8-0.2-2.8-0.2c-0.8,0-1.5,0.1-2.3,0.1c-0.8,0.1-1.6,0.2-2.4,0.4C29.1,24.3,28.9,23.9,28.8,23.5z
	 M27,19.6c-1.6-3-3.5-5.9-5.8-8.7c1.2-0.4,2.5-0.5,3.8-0.5c1.9,0,3.8,0.4,5.5,1.1c1.7,0.7,3.3,1.7,4.7,3
	C32.5,16.7,29.8,18.4,27,19.6L27,19.6z M18.4,22.3c-2,0.3-4,0.5-6,0.5h-2c0.4-2.4,1.3-4.5,2.7-6.4c1.4-1.9,3.1-3.4,5.1-4.4
	c2.4,2.8,4.4,5.7,6.1,8.7C22.3,21.4,20.4,22,18.4,22.3z M18.1,8.8c-2.1,0.9-4,2.2-5.5,3.8C11,14.2,9.7,16,8.8,18.2
	c-0.9,2.1-1.4,4.4-1.4,6.8c0,2.4,0.5,4.7,1.4,6.9c0.9,2.1,2.2,4,3.8,5.6c1.6,1.6,3.4,2.8,5.5,3.8c2.1,0.9,4.4,1.4,6.8,1.4
	c2.4,0,4.7-0.5,6.8-1.4c2.1-0.9,4-2.2,5.6-3.8c1.6-1.6,2.9-3.4,3.8-5.6c0.9-2.1,1.4-4.4,1.4-6.9c0-2.4-0.5-4.7-1.4-6.8
	c-0.9-2.1-2.2-4-3.8-5.6c-1.6-1.6-3.5-2.8-5.6-3.8c-2.1-0.9-4.4-1.4-6.8-1.4C22.5,7.5,20.2,7.9,18.1,8.8z M19.6,29.1
	c-2.1,1.6-3.9,3.5-5.3,5.7c-1.2-1.2-2.1-2.6-2.8-4.2c-0.7-1.6-1-3.2-1.1-5c0.4,0,0.7,0,1.1,0.1c0.3,0,0.7,0.1,1,0.1
	c2.2,0,4.4-0.2,6.6-0.6c2.2-0.4,4.3-1,6.5-1.8c0.1,0.3,0.2,0.7,0.4,1c0.1,0.4,0.3,0.7,0.5,1.1C23.9,26.4,21.6,27.6,19.6,29.1z"/>
</svg>
