<?xml version="1.0" encoding="utf-8"?>
<!DOCTYPE svg PUBLIC "-//W3C//DTD SVG 1.1//EN" "http://www.w3.org/Graphics/SVG/1.1/DTD/svg11.dtd">
<svg version="1.1" id="icon-behance" xmlns="http://www.w3.org/2000/svg" xmlns:xlink="http://www.w3.org/1999/xlink" x="0px"
	 y="0px" viewBox="0 0 50 50" enable-background="new 0 0 50 50" xml:space="preserve">
<path d="M18.1,33.1c-0.6,0.3-1.5,0.5-2.7,0.5H9.8v-7h5.8c0.6,0,1.1,0,1.5,0.1c0.4,0,0.8,0.2,1.1,0.4c1.2,0.5,1.7,1.5,1.7,2.8
	C19.8,31.5,19.3,32.6,18.1,33.1L18.1,33.1z M41.1,26.1h-8.5c0.2-1.2,0.7-2.2,1.3-2.9c0.7-0.7,1.7-1.1,3-1.1c1.1,0,2.1,0.3,2.9,1
	C40.5,23.8,41,24.8,41.1,26.1L41.1,26.1z M3.7,11.8v26.5h11.9c0.7,0,1.4,0,2-0.1s1.2-0.1,1.8-0.2c0.6-0.2,1.1-0.4,1.6-0.6
	c0.5-0.2,0.9-0.5,1.3-0.8c0.7-0.5,1.4-1.2,1.9-2c0.8-1.4,1.2-2.8,1.2-4.2s-0.4-2.7-1.1-3.9c-0.3-0.6-0.7-1-1.3-1.4
	c-0.5-0.4-1.1-0.7-1.7-1c0.4-0.2,0.8-0.4,1.1-0.7s0.6-0.5,0.8-0.8c0.9-0.9,1.3-2.2,1.3-3.9c0-1.5-0.4-2.8-1.2-4
	c-1.4-1.9-3.7-2.8-6.9-2.8H3.7z M27.5,28.1c0,3.5,0.9,6.1,2.8,7.7c2,1.5,4.2,2.2,6.7,2.2c1.5,0,2.9-0.2,4.1-0.7c1.2-0.4,2.2-1.1,3-2
	c1.1-1.1,1.7-2.3,1.8-3.4h-5c-0.2,0.6-0.6,1-1,1.3c-0.8,0.6-1.7,0.9-2.8,0.9c-1.1,0-2-0.3-2.7-0.8c-0.6-0.4-1.1-0.9-1.4-1.5
	c-0.4-0.7-0.5-1.5-0.5-2.4h13.9c0-0.8,0-1.5-0.1-2.1c0-0.6-0.1-1.1-0.2-1.6c-0.1-0.8-0.3-1.5-0.6-2.1c-0.3-0.6-0.6-1.3-0.9-1.9
	c-0.4-0.7-0.9-1.2-1.5-1.7c-0.5-0.4-1.1-0.8-1.8-1.1C40,18.2,38.5,18,36.9,18c-2.8,0-5.1,0.9-6.8,2.6C28.3,22.4,27.5,24.9,27.5,28.1
	L27.5,28.1z M31.5,12.9v2.7H42v-2.7H31.5z M17,22c-0.4,0.1-1,0.2-1.6,0.2H9.8v-5.8h5c0.7,0,1.3,0,1.7,0.1c0.5,0.1,0.9,0.2,1.4,0.3
	c1,0.4,1.4,1.3,1.4,2.5c0,1.1-0.4,1.9-1.1,2.3C17.8,21.7,17.4,21.9,17,22z"/>
</svg>
