<?xml version="1.0" encoding="utf-8"?>
<!DOCTYPE svg PUBLIC "-//W3C//DTD SVG 1.1//EN" "http://www.w3.org/Graphics/SVG/1.1/DTD/svg11.dtd">
<svg version="1.1" id="icon-twitter" xmlns="http://www.w3.org/2000/svg" xmlns:xlink="http://www.w3.org/1999/xlink" x="0px"
	 y="0px" viewBox="0 0 50 50" enable-background="new 0 0 50 50" xml:space="preserve">
<path d="M41,15.2c-0.7,0.2-1.4,0.3-2.2,0.4c1.5-1,2.5-2.3,3.2-4c-0.7,0.4-1.4,0.7-2.2,1c-0.8,0.3-1.6,0.5-2.4,0.7
	c-0.7-0.7-1.5-1.2-2.3-1.6c-0.9-0.4-1.9-0.6-2.9-0.6c-1,0-1.9,0.2-2.8,0.6c-0.9,0.4-1.6,0.9-2.3,1.6c-0.7,0.7-1.2,1.4-1.6,2.3
	c-0.4,0.9-0.6,1.9-0.6,2.8c0,0.6,0.1,1.1,0.2,1.6c-3-0.1-5.8-0.8-8.3-2.2c-2.6-1.3-4.7-3.1-6.5-5.4c-0.6,1.2-1,2.4-1,3.7
	c0,1.3,0.3,2.4,0.8,3.5c0.6,1,1.4,1.9,2.4,2.5c-0.7,0-1.3-0.1-1.8-0.2c-0.5-0.2-1-0.4-1.5-0.6v0.1c0,1.8,0.5,3.3,1.6,4.6
	c1.1,1.3,2.5,2.1,4.2,2.5c-0.3,0.1-0.6,0.1-0.9,0.2c-0.3,0-0.6,0.1-1,0.1c-0.4,0-0.8-0.1-1.3-0.2c0.4,1.4,1.3,2.6,2.5,3.6
	c1.2,0.9,2.6,1.4,4.2,1.5c-2.5,2-5.5,3.1-8.9,3.1c-0.3,0-0.6,0-0.9,0c-0.3,0-0.6,0-0.8-0.1c1.6,1,3.4,1.9,5.2,2.4
	c1.9,0.6,3.8,0.9,5.9,0.9c3.3,0,6.2-0.6,8.8-1.9c2.5-1.2,4.7-2.8,6.4-4.8c1.7-2,3.1-4.2,4-6.7c0.9-2.5,1.4-4.9,1.4-7.3v-0.8
	c1.4-1.1,2.6-2.4,3.6-3.8C42.3,14.8,41.7,15,41,15.2z"/>
</svg>
