<?xml version="1.0" encoding="utf-8"?>
<!DOCTYPE svg PUBLIC "-//W3C//DTD SVG 1.1//EN" "http://www.w3.org/Graphics/SVG/1.1/DTD/svg11.dtd">
<svg version="1.1" id="icon-infinity" xmlns="http://www.w3.org/2000/svg" xmlns:xlink="http://www.w3.org/1999/xlink" x="0px"
	 y="0px" viewBox="0 12 50 26" enable-background="new 0 12 50 26" xml:space="preserve">
<path id="icon" fill-rule="evenodd" clip-rule="evenodd" d="M24.8,20c1.4-1.4,2.8-2.7,4.1-3.9c5.2-4.6,12.5-4.4,17.2,0.4
	c4.6,4.7,4.6,12.2,0,16.9c-4.7,4.8-12,5-17.2,0.4c-1.4-1.2-2.7-2.5-4.2-3.9c-1.5,1.4-2.9,2.8-4.4,4.1c-5.1,4.4-12.3,4.2-16.9-0.5
	c-4.5-4.6-4.6-12-0.3-16.7c4.5-4.8,11.8-5.3,16.9-1C21.7,17,23.1,18.5,24.8,20z M19.6,25c-1.6-1.5-2.8-2.8-4.1-3.9
	c-2.3-1.9-5.2-1.6-7.1,0.5c-1.8,2-1.8,5,0.1,6.9c1.9,2,4.9,2.2,7.1,0.3C17,27.7,18.1,26.4,19.6,25z M29.9,25c1.5,1.4,2.7,2.7,4,3.8
	c2.3,1.9,5.2,1.7,7.1-0.3c1.8-1.9,1.9-4.9,0.1-6.9c-1.8-2-4.9-2.3-7.1-0.5C32.6,22.2,31.5,23.5,29.9,25z"/>
</svg>
